<svg version="1.1" viewBox="0.0 0.0 1082.1811023622047 443.81889763779526" fill="none" stroke="none" stroke-linecap="square" stroke-miterlimit="10" xmlns:xlink="http://www.w3.org/1999/xlink" xmlns="http://www.w3.org/2000/svg"><clipPath id="p.0"><path d="m0 0l1082.1812 0l0 443.8189l-1082.1812 0l0 -443.8189z" clip-rule="nonzero"/></clipPath><g clip-path="url(#p.0)"><path fill="#ffffff" d="m0 0l1082.1812 0l0 443.8189l-1082.1812 0z" fill-rule="evenodd"/><path fill="#cd5c5c" d="m112.8937 251.2454l0 -91.90552l34.456688 0l0 91.90552z" fill-rule="evenodd"/><path stroke="#cd5c5c" stroke-width="1.0" stroke-linejoin="round" stroke-linecap="butt" d="m112.8937 251.2454l0 -91.90552l34.456688 0l0 91.90552z" fill-rule="evenodd"/><path fill="#29465b" d="m85.12992 265.26904l0 0c0 -25.379013 20.573753 -45.952774 45.95275 -45.952774l0 0c12.187439 0 23.875702 4.841446 32.493515 13.459259c8.617813 8.617813 13.459244 20.306076 13.459244 32.493515l0 0c0 25.378998 -20.573746 45.95273 -45.95276 45.95273l0 0c-25.378998 0 -45.95275 -20.57373 -45.95275 -45.95273z" fill-rule="evenodd"/><path stroke="#29465b" stroke-width="1.0" stroke-linejoin="round" stroke-linecap="butt" d="m85.12992 265.26904l0 0c0 -25.379013 20.573753 -45.952774 45.95275 -45.952774l0 0c12.187439 0 23.875702 4.841446 32.493515 13.459259c8.617813 8.617813 13.459244 20.306076 13.459244 32.493515l0 0c0 25.378998 -20.573746 45.95273 -45.95276 45.95273l0 0c-25.378998 0 -45.95275 -20.57373 -45.95275 -45.95273z" fill-rule="evenodd"/><path fill="#efefef" d="m122.70082 279.66904q-0.875 0 -1.484375 -0.59375q-0.59375 -0.609375 -0.59375 -1.484375l0 -27.07814q0 -0.921875 0.59375 -1.5q0.609375 -0.578125 1.484375 -0.578125l9.5625 0q2.71875 0 4.78125 1.0625q2.0625 1.046875 3.234375 2.9375q1.1875 1.875 1.1875 4.3125153q0 1.96875 -1.0625 3.546875q-1.0625 1.578125 -2.90625 2.5q2.640625 0.640625 4.234375 2.515625q1.609375 1.875 1.609375 4.921875q0 2.75 -1.296875 4.875q-1.296875 2.125 -3.625 3.34375q-2.3125 1.21875 -5.3125 1.21875l-10.40625 0zm2.078125 -3.84375l8.328125 0q1.828125 0 3.234375 -0.640625q1.40625 -0.640625 2.203125 -1.875q0.796875 -1.234375 0.796875 -3.078125q0 -1.71875 -0.796875 -2.84375q-0.796875 -1.125 -2.203125 -1.703125q-1.40625 -0.578125 -3.234375 -0.578125l-8.328125 0l0 10.71875zm0 -14.5625l7.484375 0q2.28125 0 3.734375 -1.109375q1.46875 -1.125 1.46875 -3.40625q0 -2.2812653 -1.46875 -3.3750153q-1.453125 -1.109375 -3.734375 -1.109375l-7.484375 0l0 9.000015z" fill-rule="nonzero"/><path fill="#29465b" d="m85.12992 142.71617l0 0c0 -25.379005 20.573753 -45.95276 45.95275 -45.95276l0 0c12.187439 0 23.875702 4.8414383 32.493515 13.459251c8.617813 8.617813 13.459244 20.306084 13.459244 32.493507l0 0c0 25.379013 -20.573746 45.95276 -45.95276 45.95276l0 0c-25.378998 0 -45.95275 -20.573746 -45.95275 -45.95276z" fill-rule="evenodd"/><path stroke="#29465b" stroke-width="1.0" stroke-linejoin="round" stroke-linecap="butt" d="m85.12992 142.71617l0 0c0 -25.379005 20.573753 -45.95276 45.95275 -45.95276l0 0c12.187439 0 23.875702 4.8414383 32.493515 13.459251c8.617813 8.617813 13.459244 20.306084 13.459244 32.493507l0 0c0 25.379013 -20.573746 45.95276 -45.95276 45.95276l0 0c-25.378998 0 -45.95275 -20.573746 -45.95275 -45.95276z" fill-rule="evenodd"/><path fill="#efefef" d="m119.788315 157.11617q-1.125 0 -1.734375 -0.953125q-0.59375 -0.96875 -0.109375 -2.046875l11.234375 -26.84375q0.609375 -1.390625 1.96875 -1.390625q1.4375 0 1.953125 1.390625l11.28125 26.921875q0.4375 1.125 -0.140625 2.03125q-0.578125 0.890625 -1.734375 0.890625q-0.609375 0 -1.15625 -0.34375q-0.53125 -0.34375 -0.765625 -0.9375l-9.921875 -24.640625l1.125 0l-10.078125 24.640625q-0.28125 0.640625 -0.828125 0.96875q-0.546875 0.3125 -1.09375 0.3125zm2.109375 -6.875l1.609375 -3.4375l15.671875 0l1.609375 3.4375l-18.890625 0z" fill-rule="nonzero"/><path fill="#cd5c5c" d="m278.78497 248.03882l91.90552 0l0 34.456696l-91.90552 0z" fill-rule="evenodd"/><path stroke="#cd5c5c" stroke-width="1.0" stroke-linejoin="round" stroke-linecap="butt" d="m278.78497 248.03882l91.90552 0l0 34.456696l-91.90552 0z" fill-rule="evenodd"/><path fill="#29465b" d="m210.8086 266.22778l0 0c0 -25.378998 20.573746 -45.95276 45.95276 -45.95276l0 0c12.187439 0 23.875702 4.841446 32.4935 13.459259c8.617828 8.617813 13.459259 20.306076 13.459259 32.4935l0 0c0 25.378998 -20.573761 45.95276 -45.95276 45.95276l0 0c-25.379013 0 -45.95276 -20.573761 -45.95276 -45.95276z" fill-rule="evenodd"/><path stroke="#29465b" stroke-width="1.0" stroke-linejoin="round" stroke-linecap="butt" d="m210.8086 266.22778l0 0c0 -25.378998 20.573746 -45.95276 45.95276 -45.95276l0 0c12.187439 0 23.875702 4.841446 32.4935 13.459259c8.617828 8.617813 13.459259 20.306076 13.459259 32.4935l0 0c0 25.378998 -20.573761 45.95276 -45.95276 45.95276l0 0c-25.379013 0 -45.95276 -20.573761 -45.95276 -45.95276z" fill-rule="evenodd"/><path fill="#efefef" d="m245.46698 280.62778q-1.125 0 -1.734375 -0.953125q-0.59375 -0.96875 -0.109375 -2.046875l11.234375 -26.84375q0.609375 -1.390625 1.96875 -1.390625q1.4375 0 1.953125 1.390625l11.28125 26.921875q0.4375 1.125 -0.140625 2.03125q-0.578125 0.890625 -1.734375 0.890625q-0.609375 0 -1.15625 -0.34375q-0.53125 -0.34375 -0.765625 -0.9375l-9.921875 -24.640625l1.125 0l-10.078125 24.640625q-0.28125 0.640625 -0.828125 0.96875q-0.546875 0.3125 -1.09375 0.3125zm2.109375 -6.875l1.609375 -3.4375l15.671875 0l1.609375 3.4375l-18.890625 0z" fill-rule="nonzero"/><path fill="#36454f" d="m352.2338 266.22778l0 0c0 -25.378998 20.57373 -45.95276 45.95276 -45.95276l0 0c12.187408 0 23.875671 4.841446 32.4935 13.459259c8.617798 8.617813 13.459259 20.306076 13.459259 32.4935l0 0c0 25.378998 -20.573761 45.95276 -45.95276 45.95276l0 0c-25.379028 0 -45.95276 -20.573761 -45.95276 -45.95276z" fill-rule="evenodd"/><path stroke="#36454f" stroke-width="1.0" stroke-linejoin="round" stroke-linecap="butt" d="m352.2338 266.22778l0 0c0 -25.378998 20.57373 -45.95276 45.95276 -45.95276l0 0c12.187408 0 23.875671 4.841446 32.4935 13.459259c8.617798 8.617813 13.459259 20.306076 13.459259 32.4935l0 0c0 25.378998 -20.573761 45.95276 -45.95276 45.95276l0 0c-25.379028 0 -45.95276 -20.573761 -45.95276 -45.95276z" fill-rule="evenodd"/><path fill="#efefef" d="m389.8047 280.62778q-0.875 0 -1.484375 -0.59375q-0.59375 -0.609375 -0.59375 -1.484375l0 -27.078125q0 -0.921875 0.59375 -1.5q0.609375 -0.578125 1.484375 -0.578125l9.5625 0q2.71875 0 4.78125 1.0625q2.0625 1.046875 3.234375 2.9375q1.1875 1.875 1.1875 4.3125q0 1.96875 -1.0625 3.546875q-1.0625 1.578125 -2.90625 2.5q2.640625 0.640625 4.234375 2.515625q1.609375 1.875 1.609375 4.921875q0 2.75 -1.296875 4.875q-1.296875 2.125 -3.625 3.34375q-2.3125 1.21875 -5.3125 1.21875l-10.40625 0zm2.078125 -3.84375l8.328125 0q1.828125 0 3.234375 -0.640625q1.40625 -0.640625 2.203125 -1.875q0.796875 -1.234375 0.796875 -3.078125q0 -1.71875 -0.796875 -2.84375q-0.796875 -1.125 -2.203125 -1.703125q-1.40625 -0.578125 -3.234375 -0.578125l-8.328125 0l0 10.71875zm0 -14.5625l7.484375 0q2.28125 0 3.734375 -1.109375q1.46875 -1.125 1.46875 -3.40625q0 -2.28125 -1.46875 -3.375q-1.453125 -1.109375 -3.734375 -1.109375l-7.484375 0l0 9.0z" fill-rule="nonzero"/><path fill="#cd5c5c" d="m344.7023 267.87607l0 91.90552l-34.456696 0l0 -91.90552z" fill-rule="evenodd"/><path stroke="#cd5c5c" stroke-width="1.0" stroke-linejoin="round" stroke-linecap="butt" d="m344.7023 267.87607l0 91.90552l-34.456696 0l0 -91.90552z" fill-rule="evenodd"/><path fill="#2b547e" d="m280.56244 352.3886l0 0c0 -25.378998 20.57373 -45.95276 45.95276 -45.95276l0 0c12.187408 0 23.875671 4.841461 32.4935 13.459259c8.617798 8.617828 13.459259 20.306091 13.459259 32.4935l0 0c0 25.379028 -20.573761 45.95276 -45.95276 45.95276l0 0c-25.379028 0 -45.95276 -20.57373 -45.95276 -45.95276z" fill-rule="evenodd"/><path stroke="#2b547e" stroke-width="1.0" stroke-linejoin="round" stroke-linecap="butt" d="m280.56244 352.3886l0 0c0 -25.378998 20.57373 -45.95276 45.95276 -45.95276l0 0c12.187408 0 23.875671 4.841461 32.4935 13.459259c8.617798 8.617828 13.459259 20.306091 13.459259 32.4935l0 0c0 25.379028 -20.573761 45.95276 -45.95276 45.95276l0 0c-25.379028 0 -45.95276 -20.57373 -45.95276 -45.95276z" fill-rule="evenodd"/><path fill="#efefef" d="m328.97522 367.19485q-3.2344055 0 -6.0625305 -1.21875q-2.8125 -1.234375 -4.921875 -3.40625q-2.09375 -2.1875 -3.28125 -5.09375q-1.171875 -2.921875 -1.171875 -6.328125q0 -3.359375 1.171875 -6.25q1.1875 -2.90625 3.28125 -5.078125q2.109375 -2.1875 4.90625 -3.421875q2.796875 -1.25 6.0781555 -1.25q3.078125 0 5.296875 0.796875q2.21875 0.796875 4.46875 2.640625q0.3125 0.25 0.484375 0.515625q0.1875 0.25 0.25 0.515625q0.0625 0.25 0.0625 0.609375q0 0.765625 -0.546875 1.265625q-0.53125 0.5 -1.296875 0.5625q-0.765625 0.046875 -1.484375 -0.5q-1.46875 -1.28125 -3.0625 -1.953125q-1.578125 -0.6875 -4.171875 -0.6875q-2.359375 0 -4.4375305 0.96875q-2.078125 0.953125 -3.671875 2.640625q-1.578125 1.671875 -2.453125 3.890625q-0.875 2.21875 -0.875 4.734375q0 2.5625 0.875 4.78125q0.875 2.21875 2.453125 3.90625q1.59375 1.671875 3.671875 2.609375q2.0781555 0.9375 4.4375305 0.9375q2.046875 0 3.859375 -0.6875q1.828125 -0.703125 3.5 -1.953125q0.71875 -0.515625 1.421875 -0.453125q0.703125 0.0625 1.171875 0.5625q0.484375 0.5 0.484375 1.375q0 0.40625 -0.15625 0.78125q-0.15625 0.375 -0.484375 0.703125q-2.15625 1.71875 -4.625 2.609375q-2.453125 0.875 -5.171875 0.875z" fill-rule="nonzero"/><path fill="#cd5c5c" d="m279.6957 161.1732l91.90552 0l0 -34.456696l-91.90552 0z" fill-rule="evenodd"/><path stroke="#cd5c5c" stroke-width="1.0" stroke-linejoin="round" stroke-linecap="butt" d="m279.6957 161.1732l91.90552 0l0 -34.456696l-91.90552 0z" fill-rule="evenodd"/><path fill="#36454f" d="m303.62485 142.98422l0 0c0 -25.379005 -20.573761 -45.95275 -45.95276 -45.95275l0 0c-12.187439 0 -23.875702 4.8414383 -32.493515 13.459251c-8.617813 8.617813 -13.459244 20.306076 -13.459244 32.4935l0 0c0 25.379013 20.573746 45.95276 45.95276 45.95276l0 0c25.378998 0 45.95276 -20.573746 45.95276 -45.95276z" fill-rule="evenodd"/><path stroke="#36454f" stroke-width="1.0" stroke-linejoin="round" stroke-linecap="butt" d="m303.62485 142.98422l0 0c0 -25.379005 -20.573761 -45.95275 -45.95276 -45.95275l0 0c-12.187439 0 -23.875702 4.8414383 -32.493515 13.459251c-8.617813 8.617813 -13.459244 20.306076 -13.459244 32.4935l0 0c0 25.379013 20.573746 45.95276 45.95276 45.95276l0 0c25.378998 0 45.95276 -20.573746 45.95276 -45.95276z" fill-rule="evenodd"/><path fill="#efefef" d="m249.29022 157.38422q-0.875 0 -1.484375 -0.59375q-0.59375 -0.609375 -0.59375 -1.484375l0 -27.078125q0 -0.9218674 0.59375 -1.4999924q0.609375 -0.578125 1.484375 -0.578125l9.5625 0q2.71875 0 4.78125 1.0625q2.0625 1.0468674 3.234375 2.9374924q1.1875 1.875 1.1875 4.3125q0 1.96875 -1.0625 3.546875q-1.0625 1.578125 -2.90625 2.5q2.640625 0.640625 4.234375 2.515625q1.609375 1.875 1.609375 4.921875q0 2.75 -1.296875 4.875q-1.296875 2.125 -3.625 3.34375q-2.3125 1.21875 -5.3125 1.21875l-10.40625 0zm2.078125 -3.84375l8.328125 0q1.828125 0 3.234375 -0.640625q1.40625 -0.640625 2.203125 -1.875q0.796875 -1.234375 0.796875 -3.078125q0 -1.71875 -0.796875 -2.84375q-0.796875 -1.125 -2.203125 -1.703125q-1.40625 -0.578125 -3.234375 -0.578125l-8.328125 0l0 10.71875zm0 -14.5625l7.484375 0q2.28125 0 3.734375 -1.109375q1.46875 -1.125 1.46875 -3.40625q0 -2.28125 -1.46875 -3.375q-1.453125 -1.109375 -3.734375 -1.109375l-7.484375 0l0 9.0z" fill-rule="nonzero"/><path fill="#2b547e" d="m445.05005 142.98422l0 0c0 -25.379005 -20.573761 -45.95275 -45.95276 -45.95275l0 0c-12.187439 0 -23.875702 4.8414383 -32.4935 13.459251c-8.617828 8.617813 -13.459259 20.306076 -13.459259 32.4935l0 0c0 25.379013 20.57373 45.95276 45.95276 45.95276l0 0c25.378998 0 45.95276 -20.573746 45.95276 -45.95276z" fill-rule="evenodd"/><path stroke="#2b547e" stroke-width="1.0" stroke-linejoin="round" stroke-linecap="butt" d="m445.05005 142.98422l0 0c0 -25.379005 -20.573761 -45.95275 -45.95276 -45.95275l0 0c-12.187439 0 -23.875702 4.8414383 -32.4935 13.459251c-8.617828 8.617813 -13.459259 20.306076 -13.459259 32.4935l0 0c0 25.379013 20.57373 45.95276 45.95276 45.95276l0 0c25.378998 0 45.95276 -20.573746 45.95276 -45.95276z" fill-rule="evenodd"/><path fill="#efefef" d="m401.5573 157.79047q-3.2344055 0 -6.0625305 -1.21875q-2.8125 -1.234375 -4.921875 -3.40625q-2.09375 -2.1875 -3.28125 -5.09375q-1.171875 -2.921875 -1.171875 -6.328125q0 -3.359375 1.171875 -6.25q1.1875 -2.90625 3.28125 -5.078125q2.109375 -2.1875 4.90625 -3.4218674q2.796875 -1.25 6.0781555 -1.25q3.078125 0 5.296875 0.796875q2.21875 0.796875 4.46875 2.6406174q0.3125 0.25 0.484375 0.515625q0.1875 0.25 0.25 0.515625q0.0625 0.25 0.0625 0.609375q0 0.765625 -0.546875 1.265625q-0.53125 0.5 -1.296875 0.5625q-0.765625 0.046875 -1.484375 -0.5q-1.46875 -1.28125 -3.0625 -1.953125q-1.578125 -0.6875 -4.171875 -0.6875q-2.359375 0 -4.4375305 0.96875q-2.078125 0.953125 -3.671875 2.640625q-1.578125 1.671875 -2.453125 3.890625q-0.875 2.21875 -0.875 4.734375q0 2.5625 0.875 4.78125q0.875 2.21875 2.453125 3.90625q1.59375 1.671875 3.671875 2.609375q2.0781555 0.9375 4.4375305 0.9375q2.046875 0 3.859375 -0.6875q1.828125 -0.703125 3.5 -1.953125q0.71875 -0.515625 1.421875 -0.453125q0.703125 0.0625 1.171875 0.5625q0.484375 0.5 0.484375 1.375q0 0.40625 -0.15625 0.78125q-0.15625 0.375 -0.484375 0.703125q-2.15625 1.71875 -4.625 2.609375q-2.453125 0.875 -5.171875 0.875z" fill-rule="nonzero"/><path fill="#cd5c5c" d="m345.61304 141.33594l0 -91.90552l-34.456696 0l0 91.90552z" fill-rule="evenodd"/><path stroke="#cd5c5c" stroke-width="1.0" stroke-linejoin="round" stroke-linecap="butt" d="m345.61304 141.33594l0 -91.90552l-34.456696 0l0 91.90552z" fill-rule="evenodd"/><path fill="#29465b" d="m373.3787 56.823395l0 0c0 -25.379007 -20.573761 -45.95276 -45.95276 -45.95276l0 0c-12.187439 0 -23.875702 4.8414373 -32.49353 13.45925c-8.617798 8.617813 -13.4592285 20.306076 -13.4592285 32.493507l0 0c0 25.379005 20.57373 45.95275 45.95276 45.95275l0 0c25.378998 0 45.95276 -20.573746 45.95276 -45.95275z" fill-rule="evenodd"/><path stroke="#29465b" stroke-width="1.0" stroke-linejoin="round" stroke-linecap="butt" d="m373.3787 56.823395l0 0c0 -25.379007 -20.573761 -45.95276 -45.95276 -45.95276l0 0c-12.187439 0 -23.875702 4.8414373 -32.49353 13.45925c-8.617798 8.617813 -13.4592285 20.306076 -13.4592285 32.493507l0 0c0 25.379005 20.57373 45.95275 45.95276 45.95275l0 0c25.378998 0 45.95276 -20.573746 45.95276 -45.95275z" fill-rule="evenodd"/><path fill="#efefef" d="m316.13156 71.22339q-1.125 0 -1.734375 -0.953125q-0.59375 -0.96875 -0.109375 -2.046875l11.234375 -26.84375q0.609375 -1.390625 1.96875 -1.390625q1.4375 0 1.953125 1.390625l11.28125 26.921875q0.4375 1.125 -0.140625 2.03125q-0.578125 0.890625 -1.734375 0.890625q-0.609375 0 -1.15625 -0.34375q-0.53125 -0.34375 -0.765625 -0.9375l-9.921875 -24.640625l1.125 0l-10.078125 24.640625q-0.28125 0.640625 -0.828125 0.96875q-0.546875 0.3125 -1.09375 0.3125zm2.109375 -6.875l1.609375 -3.4375l15.671875 0l1.609375 3.4375l-18.890625 0z" fill-rule="nonzero"/><path fill="#cd5c5c" d="m529.0206 38.634613l91.90552 0l0 34.456696l-91.90552 0z" fill-rule="evenodd"/><path stroke="#cd5c5c" stroke-width="1.0" stroke-linejoin="round" stroke-linecap="butt" d="m529.0206 38.634613l91.90552 0l0 34.456696l-91.90552 0z" fill-rule="evenodd"/><path fill="#29465b" d="m461.04425 56.82359l0 0c0 -25.379007 20.573761 -45.95276 45.95276 -45.95276l0 0c12.187439 0 23.875671 4.8414373 32.49353 13.459251c8.617798 8.617811 13.4592285 20.306074 13.4592285 32.493507l0 0c0 25.379002 -20.57373 45.952755 -45.95276 45.952755l0 0c-25.378998 0 -45.95276 -20.573753 -45.95276 -45.952755z" fill-rule="evenodd"/><path stroke="#29465b" stroke-width="1.0" stroke-linejoin="round" stroke-linecap="butt" d="m461.04425 56.82359l0 0c0 -25.379007 20.573761 -45.95276 45.95276 -45.95276l0 0c12.187439 0 23.875671 4.8414373 32.49353 13.459251c8.617798 8.617811 13.4592285 20.306074 13.4592285 32.493507l0 0c0 25.379002 -20.57373 45.952755 -45.95276 45.952755l0 0c-25.378998 0 -45.95276 -20.573753 -45.95276 -45.952755z" fill-rule="evenodd"/><path fill="#efefef" d="m495.70264 71.22359q-1.125 0 -1.734375 -0.953125q-0.59375 -0.96875 -0.109375 -2.046875l11.234375 -26.843754q0.609375 -1.390625 1.96875 -1.390625q1.4375 0 1.953125 1.390625l11.28125 26.921879q0.4375 1.125 -0.140625 2.03125q-0.578125 0.890625 -1.734375 0.890625q-0.609375 0 -1.15625 -0.34375q-0.53125 -0.34375 -0.765625 -0.9375l-9.921875 -24.640629l1.125 0l-10.078125 24.640629q-0.28125 0.640625 -0.828125 0.96875q-0.546875 0.3125 -1.09375 0.3125zm2.109375 -6.875l1.609375 -3.4375038l15.671875 0l1.609375 3.4375038l-18.890625 0z" fill-rule="nonzero"/><path fill="#36454f" d="m602.4695 56.82359l0 0c0 -25.379007 20.57373 -45.95276 45.952698 -45.95276l0 0c12.187439 0 23.875732 4.8414373 32.49353 13.459251c8.617798 8.617811 13.4592285 20.306074 13.4592285 32.493507l0 0c0 25.379002 -20.57373 45.952755 -45.95276 45.952755l0 0c-25.378967 0 -45.952698 -20.573753 -45.952698 -45.952755z" fill-rule="evenodd"/><path stroke="#36454f" stroke-width="1.0" stroke-linejoin="round" stroke-linecap="butt" d="m602.4695 56.82359l0 0c0 -25.379007 20.57373 -45.95276 45.952698 -45.95276l0 0c12.187439 0 23.875732 4.8414373 32.49353 13.459251c8.617798 8.617811 13.4592285 20.306074 13.4592285 32.493507l0 0c0 25.379002 -20.57373 45.952755 -45.95276 45.952755l0 0c-25.378967 0 -45.952698 -20.573753 -45.952698 -45.952755z" fill-rule="evenodd"/><path fill="#efefef" d="m640.04034 71.22359q-0.875 0 -1.484375 -0.59375q-0.59375 -0.609375 -0.59375 -1.484375l0 -27.078129q0 -0.921875 0.59375 -1.5q0.609375 -0.578125 1.484375 -0.578125l9.5625 0q2.71875 0 4.78125 1.0625q2.0625 1.046875 3.234375 2.9375q1.1875 1.875 1.1875 4.3125q0 1.96875 -1.0625 3.546875q-1.0625 1.578125 -2.90625 2.5q2.640625 0.640625 4.234375 2.515625q1.609375 1.875 1.609375 4.921875q0 2.7500038 -1.296875 4.875004q-1.296875 2.125 -3.625 3.34375q-2.3125 1.21875 -5.3125 1.21875l-10.40625 0zm2.078125 -3.84375l8.328125 0q1.828125 0 3.234375 -0.640625q1.40625 -0.640625 2.203125 -1.875q0.796875 -1.2343788 0.796875 -3.0781288q0 -1.71875 -0.796875 -2.84375q-0.796875 -1.125 -2.203125 -1.703125q-1.40625 -0.578125 -3.234375 -0.578125l-8.328125 0l0 10.718754zm0 -14.562504l7.484375 0q2.28125 0 3.734375 -1.109375q1.46875 -1.125 1.46875 -3.40625q0 -2.28125 -1.46875 -3.375q-1.453125 -1.109375 -3.734375 -1.109375l-7.484375 0l0 9.0z" fill-rule="nonzero"/><path fill="#cd5c5c" d="m594.93756 54.155563l0 208.22047l-34.456665 0l0 -208.22047z" fill-rule="evenodd"/><path stroke="#cd5c5c" stroke-width="1.0" stroke-linejoin="round" stroke-linecap="butt" d="m594.93756 54.155563l0 208.22047l-34.456665 0l0 -208.22047z" fill-rule="evenodd"/><path fill="#2b547e" d="m530.7981 266.28348l0 0c0 -25.379013 20.57373 -45.952774 45.95276 -45.952774l0 0c12.187439 0 23.875671 4.841446 32.49353 13.459259c8.617798 8.617813 13.4592285 20.306076 13.4592285 32.493515l0 0c0 25.378998 -20.57373 45.95273 -45.95276 45.95273l0 0c-25.379028 0 -45.95276 -20.57373 -45.95276 -45.95273z" fill-rule="evenodd"/><path stroke="#2b547e" stroke-width="1.0" stroke-linejoin="round" stroke-linecap="butt" d="m530.7981 266.28348l0 0c0 -25.379013 20.57373 -45.952774 45.95276 -45.952774l0 0c12.187439 0 23.875671 4.841446 32.49353 13.459259c8.617798 8.617813 13.4592285 20.306076 13.4592285 32.493515l0 0c0 25.378998 -20.57373 45.95273 -45.95276 45.95273l0 0c-25.379028 0 -45.95276 -20.57373 -45.95276 -45.95273z" fill-rule="evenodd"/><path fill="#efefef" d="m579.2109 281.08972q-3.234375 0 -6.0625 -1.21875q-2.8125 -1.234375 -4.921875 -3.40625q-2.09375 -2.1875 -3.28125 -5.09375q-1.171875 -2.921875 -1.171875 -6.328125q0 -3.359375 1.171875 -6.25q1.1875 -2.9062653 3.28125 -5.0781403q2.109375 -2.1875 4.90625 -3.421875q2.796875 -1.25 6.078125 -1.25q3.078125 0 5.296875 0.796875q2.21875 0.796875 4.46875 2.640625q0.3125 0.25 0.484375 0.515625q0.1875 0.25 0.25 0.515625q0.0625 0.25 0.0625 0.609375q0 0.765625 -0.546875 1.265625q-0.53125 0.5 -1.296875 0.5625q-0.765625 0.046875 -1.484375 -0.5q-1.46875 -1.28125 -3.0625 -1.953125q-1.578125 -0.6875 -4.171875 -0.6875q-2.359375 0 -4.4375 0.96875q-2.078125 0.953125 -3.671875 2.6406403q-1.578125 1.671875 -2.453125 3.890625q-0.875 2.21875 -0.875 4.734375q0 2.5625 0.875 4.78125q0.875 2.21875 2.453125 3.90625q1.59375 1.671875 3.671875 2.609375q2.078125 0.9375 4.4375 0.9375q2.046875 0 3.859375 -0.6875q1.828125 -0.703125 3.5 -1.953125q0.71875 -0.515625 1.421875 -0.453125q0.703125 0.0625 1.171875 0.5625q0.484375 0.5 0.484375 1.375q0 0.40625 -0.15625 0.78125q-0.15625 0.375 -0.484375 0.703125q-2.15625 1.71875 -4.625 2.609375q-2.453125 0.875 -5.171875 0.875z" fill-rule="nonzero"/><path fill="#cd5c5c" d="m560.48 177.84796l91.90546 0l0 34.456696l-91.90546 0z" fill-rule="evenodd"/><path stroke="#cd5c5c" stroke-width="1.0" stroke-linejoin="round" stroke-linecap="butt" d="m560.48 177.84796l91.90546 0l0 34.456696l-91.90546 0z" fill-rule="evenodd"/><path fill="#2b3856" d="m633.9288 196.03694l0 0c0 -25.379013 20.57373 -45.95276 45.95276 -45.95276l0 0c12.187439 0 23.875671 4.841446 32.49353 13.459259c8.617798 8.617813 13.4592285 20.306076 13.4592285 32.4935l0 0c0 25.379013 -20.57373 45.95276 -45.95276 45.95276l0 0c-25.379028 0 -45.95276 -20.573746 -45.95276 -45.95276z" fill-rule="evenodd"/><path stroke="#2b3856" stroke-width="1.0" stroke-linejoin="round" stroke-linecap="butt" d="m633.9288 196.03694l0 0c0 -25.379013 20.57373 -45.95276 45.95276 -45.95276l0 0c12.187439 0 23.875671 4.841446 32.49353 13.459259c8.617798 8.617813 13.4592285 20.306076 13.4592285 32.4935l0 0c0 25.379013 -20.57373 45.95276 -45.95276 45.95276l0 0c-25.379028 0 -45.95276 -20.573746 -45.95276 -45.95276z" fill-rule="evenodd"/><path fill="#efefef" d="m670.2997 210.43694q-0.875 0 -1.484375 -0.59375q-0.59375 -0.609375 -0.59375 -1.484375l0 -27.078125q0 -0.921875 0.59375 -1.5q0.609375 -0.578125 1.484375 -0.578125l7.234375 0q3.453125 0 6.265625 1.140625q2.828125 1.140625 4.90625 3.234375q2.078125 2.09375 3.1875 4.9375q1.125 2.84375 1.125 6.28125q0 3.4375 -1.125 6.296875q-1.109375 2.859375 -3.1875 4.96875q-2.078125 2.09375 -4.90625 3.234375q-2.8125 1.140625 -6.265625 1.140625l-7.234375 0zm2.078125 -3.6875l5.15625 0q3.375 0 5.953125 -1.53125q2.578125 -1.546875 4.046875 -4.234375q1.484375 -2.703125 1.484375 -6.1875q0 -3.515625 -1.484375 -6.1875q-1.46875 -2.6875 -4.046875 -4.203125q-2.578125 -1.53125 -5.953125 -1.53125l-5.15625 0l0 23.875z" fill-rule="nonzero"/><path fill="#cd5c5c" d="m830.785 248.03882l91.90552 0l0 34.456696l-91.90552 0z" fill-rule="evenodd"/><path stroke="#cd5c5c" stroke-width="1.0" stroke-linejoin="round" stroke-linecap="butt" d="m830.785 248.03882l91.90552 0l0 34.456696l-91.90552 0z" fill-rule="evenodd"/><path fill="#2b547e" d="m762.8086 266.22778l0 0c0 -25.378998 20.57373 -45.95276 45.95276 -45.95276l0 0c12.187439 0 23.875671 4.841446 32.49353 13.459259c8.617798 8.617813 13.4592285 20.306076 13.4592285 32.4935l0 0c0 25.378998 -20.57373 45.95276 -45.95276 45.95276l0 0c-25.379028 0 -45.95276 -20.573761 -45.95276 -45.95276z" fill-rule="evenodd"/><path stroke="#2b547e" stroke-width="1.0" stroke-linejoin="round" stroke-linecap="butt" d="m762.8086 266.22778l0 0c0 -25.378998 20.57373 -45.95276 45.95276 -45.95276l0 0c12.187439 0 23.875671 4.841446 32.49353 13.459259c8.617798 8.617813 13.4592285 20.306076 13.4592285 32.4935l0 0c0 25.378998 -20.57373 45.95276 -45.95276 45.95276l0 0c-25.379028 0 -45.95276 -20.573761 -45.95276 -45.95276z" fill-rule="evenodd"/><path fill="#efefef" d="m811.2214 281.03403q-3.234375 0 -6.0625 -1.21875q-2.8125 -1.234375 -4.921875 -3.40625q-2.09375 -2.1875 -3.28125 -5.09375q-1.171875 -2.921875 -1.171875 -6.328125q0 -3.359375 1.171875 -6.25q1.1875 -2.90625 3.28125 -5.078125q2.109375 -2.1875 4.90625 -3.421875q2.796875 -1.25 6.078125 -1.25q3.078125 0 5.296875 0.796875q2.21875 0.796875 4.46875 2.640625q0.3125 0.25 0.484375 0.515625q0.1875 0.25 0.25 0.515625q0.0625 0.25 0.0625 0.609375q0 0.765625 -0.546875 1.265625q-0.53125 0.5 -1.296875 0.5625q-0.765625 0.046875 -1.484375 -0.5q-1.46875 -1.28125 -3.0625 -1.953125q-1.578125 -0.6875 -4.171875 -0.6875q-2.359375 0 -4.4375 0.96875q-2.078125 0.953125 -3.671875 2.640625q-1.578125 1.671875 -2.453125 3.890625q-0.875 2.21875 -0.875 4.734375q0 2.5625 0.875 4.78125q0.875 2.21875 2.453125 3.90625q1.59375 1.671875 3.671875 2.609375q2.078125 0.9375 4.4375 0.9375q2.046875 0 3.859375 -0.6875q1.828125 -0.703125 3.5 -1.953125q0.71875 -0.515625 1.421875 -0.453125q0.703125 0.0625 1.171875 0.5625q0.484375 0.5 0.484375 1.375q0 0.40625 -0.15625 0.78125q-0.15625 0.375 -0.484375 0.703125q-2.15625 1.71875 -4.625 2.609375q-2.453125 0.875 -5.171875 0.875z" fill-rule="nonzero"/><path fill="#2b3856" d="m904.23376 266.22778l0 0c0 -25.378998 20.573792 -45.95276 45.95276 -45.95276l0 0c12.187439 0 23.875732 4.841446 32.49353 13.459259c8.617798 8.617813 13.4592285 20.306076 13.4592285 32.4935l0 0c0 25.378998 -20.57373 45.95276 -45.95276 45.95276l0 0c-25.378967 0 -45.95276 -20.573761 -45.95276 -45.95276z" fill-rule="evenodd"/><path stroke="#2b3856" stroke-width="1.0" stroke-linejoin="round" stroke-linecap="butt" d="m904.23376 266.22778l0 0c0 -25.378998 20.573792 -45.95276 45.95276 -45.95276l0 0c12.187439 0 23.875732 4.841446 32.49353 13.459259c8.617798 8.617813 13.4592285 20.306076 13.4592285 32.4935l0 0c0 25.378998 -20.57373 45.95276 -45.95276 45.95276l0 0c-25.378967 0 -45.95276 -20.573761 -45.95276 -45.95276z" fill-rule="evenodd"/><path fill="#efefef" d="m940.6047 280.62778q-0.875 0 -1.484375 -0.59375q-0.59375 -0.609375 -0.59375 -1.484375l0 -27.078125q0 -0.921875 0.59375 -1.5q0.609375 -0.578125 1.484375 -0.578125l7.234375 0q3.453125 0 6.265625 1.140625q2.828125 1.140625 4.90625 3.234375q2.078125 2.09375 3.1875 4.9375q1.125 2.84375 1.125 6.28125q0 3.4375 -1.125 6.296875q-1.109375 2.859375 -3.1875 4.96875q-2.078125 2.09375 -4.90625 3.234375q-2.8125 1.140625 -6.265625 1.140625l-7.234375 0zm2.078125 -3.6875l5.15625 0q3.375 0 5.953125 -1.53125q2.578125 -1.546875 4.046875 -4.234375q1.484375 -2.703125 1.484375 -6.1875q0 -3.515625 -1.484375 -6.1875q-1.46875 -2.6875 -4.046875 -4.203125q-2.578125 -1.53125 -5.953125 -1.53125l-5.15625 0l0 23.875z" fill-rule="nonzero"/><path fill="#cd5c5c" d="m831.6957 161.1732l91.90552 0l0 -34.456696l-91.90552 0z" fill-rule="evenodd"/><path stroke="#cd5c5c" stroke-width="1.0" stroke-linejoin="round" stroke-linecap="butt" d="m831.6957 161.1732l91.90552 0l0 -34.456696l-91.90552 0z" fill-rule="evenodd"/><path fill="#29465b" d="m855.6248 142.98422l0 0c0 -25.379005 -20.57373 -45.95275 -45.95276 -45.95275l0 0c-12.187378 0 -23.875671 4.8414383 -32.49347 13.459251c-8.617798 8.617813 -13.45929 20.306076 -13.45929 32.4935l0 0c0 25.379013 20.573792 45.95276 45.95276 45.95276l0 0c25.379028 0 45.95276 -20.573746 45.95276 -45.95276z" fill-rule="evenodd"/><path stroke="#29465b" stroke-width="1.0" stroke-linejoin="round" stroke-linecap="butt" d="m855.6248 142.98422l0 0c0 -25.379005 -20.57373 -45.95275 -45.95276 -45.95275l0 0c-12.187378 0 -23.875671 4.8414383 -32.49347 13.459251c-8.617798 8.617813 -13.45929 20.306076 -13.45929 32.4935l0 0c0 25.379013 20.573792 45.95276 45.95276 45.95276l0 0c25.379028 0 45.95276 -20.573746 45.95276 -45.95276z" fill-rule="evenodd"/><path fill="#efefef" d="m798.37775 157.38422q-1.125 0 -1.734375 -0.953125q-0.59375 -0.96875 -0.109375 -2.046875l11.234375 -26.843742q0.609375 -1.390625 1.96875 -1.390625q1.4375 0 1.953125 1.390625l11.28125 26.921867q0.4375 1.125 -0.140625 2.03125q-0.578125 0.890625 -1.734375 0.890625q-0.609375 0 -1.15625 -0.34375q-0.53125 -0.34375 -0.765625 -0.9375l-9.921875 -24.640625l1.125 0l-10.078125 24.640625q-0.28125 0.640625 -0.828125 0.96875q-0.546875 0.3125 -1.09375 0.3125zm2.109375 -6.875l1.609375 -3.4375l15.671875 0l1.609375 3.4375l-18.890625 0z" fill-rule="nonzero"/><path fill="#36454f" d="m997.05005 142.98422l0 0c0 -25.379005 -20.573792 -45.95275 -45.95276 -45.95275l0 0c-12.187439 0 -23.875671 4.8414383 -32.49353 13.459251c-8.617798 8.617813 -13.4592285 20.306076 -13.4592285 32.4935l0 0c0 25.379013 20.57373 45.95276 45.95276 45.95276l0 0c25.378967 0 45.95276 -20.573746 45.95276 -45.95276z" fill-rule="evenodd"/><path stroke="#36454f" stroke-width="1.0" stroke-linejoin="round" stroke-linecap="butt" d="m997.05005 142.98422l0 0c0 -25.379005 -20.573792 -45.95275 -45.95276 -45.95275l0 0c-12.187439 0 -23.875671 4.8414383 -32.49353 13.459251c-8.617798 8.617813 -13.4592285 20.306076 -13.4592285 32.4935l0 0c0 25.379013 20.57373 45.95276 45.95276 45.95276l0 0c25.378967 0 45.95276 -20.573746 45.95276 -45.95276z" fill-rule="evenodd"/><path fill="#efefef" d="m942.7154 157.38422q-0.875 0 -1.484375 -0.59375q-0.59375 -0.609375 -0.59375 -1.484375l0 -27.078125q0 -0.9218674 0.59375 -1.4999924q0.609375 -0.578125 1.484375 -0.578125l9.562561 0q2.71875 0 4.78125 1.0625q2.0625 1.0468674 3.234375 2.9374924q1.1875 1.875 1.1875 4.3125q0 1.96875 -1.0625 3.546875q-1.0625 1.578125 -2.90625 2.5q2.640625 0.640625 4.234375 2.515625q1.609375 1.875 1.609375 4.921875q0 2.75 -1.296875 4.875q-1.296875 2.125 -3.625 3.34375q-2.3125 1.21875 -5.3125 1.21875l-10.406311 0zm2.078125 -3.84375l8.328186 0q1.828125 0 3.234375 -0.640625q1.40625 -0.640625 2.203125 -1.875q0.796875 -1.234375 0.796875 -3.078125q0 -1.71875 -0.796875 -2.84375q-0.796875 -1.125 -2.203125 -1.703125q-1.40625 -0.578125 -3.234375 -0.578125l-8.328186 0l0 10.71875zm0 -14.5625l7.484436 0q2.28125 0 3.734375 -1.109375q1.46875 -1.125 1.46875 -3.40625q0 -2.28125 -1.46875 -3.375q-1.453125 -1.109375 -3.734375 -1.109375l-7.484436 0l0 9.0z" fill-rule="nonzero"/><path fill="#cd5c5c" d="m896.7034 126.71673l0 152.44095l-34.456726 0l0 -152.44095z" fill-rule="evenodd"/><path stroke="#cd5c5c" stroke-width="1.0" stroke-linejoin="round" stroke-linecap="butt" d="m896.7034 126.71673l0 152.44095l-34.456726 0l0 -152.44095z" fill-rule="evenodd"/><path fill="#000000" fill-opacity="0.0" d="m106.18954 305.96414l45.95275 0l0 48.472443l-45.95275 0z" fill-rule="evenodd"/><path fill="#0b5394" d="m124.28329 338.00415l-0.0625 -1.5625q-0.375 0.40625 -0.796875 0.734375q-0.40625 0.328125 -0.90625 0.578125q-0.484375 0.25 -1.0625 0.375q-0.578125 0.140625 -1.265625 0.140625q-0.921875 0 -1.609375 -0.265625q-0.6875 -0.265625 -1.15625 -0.75q-0.46875 -0.484375 -0.71875 -1.15625q-0.234375 -0.6875 -0.234375 -1.5q0 -0.84375 0.359375 -1.5625q0.359375 -0.71875 1.078125 -1.234375q0.734375 -0.515625 1.828125 -0.796875q1.109375 -0.296875 2.578125 -0.296875l1.5625 0l0 -0.71875q0 -0.453125 -0.140625 -0.828125q-0.125 -0.375 -0.40625 -0.625q-0.28125 -0.265625 -0.75 -0.40625q-0.453125 -0.140625 -1.125 -0.140625q-1.046875 0 -2.078125 0.25q-1.015625 0.234375 -1.984375 0.671875l0 -2.28125q0.859375 -0.34375 1.96875 -0.5625q1.125 -0.234375 2.328125 -0.234375q1.328125 0 2.28125 0.265625q0.953125 0.25 1.5625 0.75q0.609375 0.5 0.90625 1.265625q0.296875 0.75 0.296875 1.75l0 8.140625l-2.453125 0zm-0.40625 -5.265625l-1.75 0q-0.71875 0 -1.234375 0.140625q-0.5 0.140625 -0.8125 0.390625q-0.3125 0.25 -0.46875 0.578125q-0.140625 0.3125 -0.140625 0.671875q0 0.734375 0.46875 1.109375q0.46875 0.375 1.28125 0.375q0.59375 0 1.234375 -0.421875q0.640625 -0.4375 1.421875 -1.25l0 -1.59375zm16.851555 -0.90625q0 1.640625 -0.46875 2.84375q-0.453125 1.1875 -1.28125 1.984375q-0.828125 0.796875 -1.953125 1.1875q-1.125 0.375 -2.453125 0.375q-1.296875 0 -2.421875 -0.203125q-1.109375 -0.1875 -2.140625 -0.515625l0 -16.0625l2.859375 0l0 3.890625l-0.109375 2.34375q0.640625 -0.828125 1.5 -1.328125q0.859375 -0.515625 2.078125 -0.515625q1.046875 0 1.859375 0.421875q0.828125 0.421875 1.375 1.203125q0.5625 0.78125 0.859375 1.890625q0.296875 1.109375 0.296875 2.484375zm-3.0 0.125q0 -0.984375 -0.140625 -1.671875q-0.140625 -0.703125 -0.40625 -1.140625q-0.265625 -0.453125 -0.65625 -0.65625q-0.375 -0.203125 -0.859375 -0.203125q-0.734375 0 -1.390625 0.59375q-0.65625 0.578125 -1.40625 1.59375l0 5.203125q0.34375 0.125 0.84375 0.203125q0.5 0.078125 1.015625 0.078125q0.671875 0 1.234375 -0.28125q0.5625 -0.28125 0.953125 -0.796875q0.390625 -0.515625 0.59375 -1.25q0.21875 -0.75 0.21875 -1.671875z" fill-rule="nonzero"/><path fill="#000000" fill-opacity="0.0" d="m282.5484 395.3459l91.90549 0l0 48.472443l-91.90549 0z" fill-rule="evenodd"/><path fill="#0b5394" d="m311.20425 427.3859l-0.0625 -1.5625q-0.375 0.40625 -0.796875 0.734375q-0.40625 0.328125 -0.90625 0.578125q-0.484375 0.25 -1.0625 0.375q-0.578125 0.140625 -1.265625 0.140625q-0.921875 0 -1.609375 -0.265625q-0.6875 -0.265625 -1.15625 -0.75q-0.46875 -0.484375 -0.71875 -1.15625q-0.234375 -0.6875 -0.234375 -1.5q0 -0.84375 0.359375 -1.5625q0.359375 -0.71875 1.078125 -1.234375q0.734375 -0.515625 1.828125 -0.796875q1.109375 -0.296875 2.578125 -0.296875l1.5625 0l0 -0.71875q0 -0.453125 -0.140625 -0.828125q-0.125 -0.375 -0.40625 -0.625q-0.28125 -0.265625 -0.75 -0.40625q-0.453125 -0.140625 -1.125 -0.140625q-1.046875 0 -2.078125 0.25q-1.015625 0.234375 -1.984375 0.671875l0 -2.28125q0.859375 -0.34375 1.96875 -0.5625q1.125 -0.234375 2.328125 -0.234375q1.328125 0 2.28125 0.265625q0.953125 0.25 1.5625 0.75q0.609375 0.5 0.90625 1.265625q0.296875 0.75 0.296875 1.75l0 8.140625l-2.453125 0zm-0.40625 -5.265625l-1.75 0q-0.71875 0 -1.234375 0.140625q-0.5 0.140625 -0.8125 0.390625q-0.3125 0.25 -0.46875 0.578125q-0.140625 0.3125 -0.140625 0.671875q0 0.734375 0.46875 1.109375q0.46875 0.375 1.28125 0.375q0.59375 0 1.234375 -0.421875q0.640625 -0.4375 1.421875 -1.25l0 -1.59375zm16.851562 -0.90625q0 1.640625 -0.46875 2.84375q-0.453125 1.1875 -1.28125 1.984375q-0.828125 0.796875 -1.953125 1.1875q-1.125 0.375 -2.453125 0.375q-1.296875 0 -2.421875 -0.203125q-1.109375 -0.1875 -2.140625 -0.515625l0 -16.0625l2.859375 0l0 3.890625l-0.109375 2.34375q0.640625 -0.828125 1.5 -1.328125q0.859375 -0.515625 2.078125 -0.515625q1.046875 0 1.859375 0.421875q0.828125 0.421875 1.375 1.203125q0.5625 0.78125 0.859375 1.890625q0.296875 1.109375 0.296875 2.484375zm-3.0 0.125q0 -0.984375 -0.140625 -1.671875q-0.140625 -0.703125 -0.40625 -1.140625q-0.265625 -0.453125 -0.65625 -0.65625q-0.375 -0.203125 -0.859375 -0.203125q-0.734375 0 -1.390625 0.59375q-0.65625 0.578125 -1.40625 1.59375l0 5.203125q0.34375 0.125 0.84375 0.203125q0.5 0.078125 1.015625 0.078125q0.671875 0 1.234375 -0.28125q0.5625 -0.28125 0.953125 -0.796875q0.390625 -0.515625 0.59375 -1.25q0.21875 -0.75 0.21875 -1.671875zm15.1171875 5.59375q-0.84375 0.328125 -1.75 0.5q-0.90625 0.171875 -1.890625 0.171875q-1.40625 0 -2.53125 -0.390625q-1.125 -0.390625 -1.921875 -1.15625q-0.78125 -0.765625 -1.203125 -1.890625q-0.40625 -1.125 -0.40625 -2.59375q0 -1.4375 0.453125 -2.59375q0.453125 -1.15625 1.265625 -1.96875q0.828125 -0.828125 1.96875 -1.265625q1.15625 -0.453125 2.578125 -0.453125q1.15625 0 1.953125 0.125q0.796875 0.125 1.421875 0.3125l0 2.765625q-0.71875 -0.359375 -1.578125 -0.546875q-0.84375 -0.203125 -1.609375 -0.203125q-0.796875 0 -1.4375 0.265625q-0.625 0.265625 -1.0625 0.75q-0.421875 0.484375 -0.65625 1.171875q-0.234375 0.671875 -0.234375 1.5q0 0.859375 0.25 1.546875q0.25 0.671875 0.703125 1.140625q0.453125 0.46875 1.078125 0.734375q0.640625 0.25 1.40625 0.25q0.375 0 0.78125 -0.046875q0.421875 -0.0625 0.84375 -0.15625q0.421875 -0.109375 0.8125 -0.234375q0.40625 -0.125 0.765625 -0.28125l0 2.546875zm3.7109375 0.453125l0 -2.546875l3.9062805 0l0 -9.84375l-3.4062805 1.875l-0.9375 -2.328125l4.8750305 -2.5625l2.390625 0l0 12.859375l3.375 0l0 2.546875l-10.2031555 0z" fill-rule="nonzero"/><path fill="#000000" fill-opacity="0.0" d="m282.5484 161.431l91.90549 0l0 48.472443l-91.90549 0z" fill-rule="evenodd"/><path fill="#0b5394" d="m311.20425 193.47101l-0.0625 -1.5625q-0.375 0.40625 -0.796875 0.734375q-0.40625 0.328125 -0.90625 0.578125q-0.484375 0.25 -1.0625 0.375q-0.578125 0.140625 -1.265625 0.140625q-0.921875 0 -1.609375 -0.265625q-0.6875 -0.265625 -1.15625 -0.75q-0.46875 -0.484375 -0.71875 -1.15625q-0.234375 -0.6875 -0.234375 -1.5q0 -0.84375 0.359375 -1.5625q0.359375 -0.71875 1.078125 -1.234375q0.734375 -0.515625 1.828125 -0.796875q1.109375 -0.296875 2.578125 -0.296875l1.5625 0l0 -0.71875q0 -0.453125 -0.140625 -0.828125q-0.125 -0.375 -0.40625 -0.625q-0.28125 -0.265625 -0.75 -0.40625q-0.453125 -0.140625 -1.125 -0.140625q-1.046875 0 -2.078125 0.25q-1.015625 0.234375 -1.984375 0.671875l0 -2.28125q0.859375 -0.34375 1.96875 -0.5625q1.125 -0.234375 2.328125 -0.234375q1.328125 0 2.28125 0.265625q0.953125 0.25 1.5625 0.75q0.609375 0.5 0.90625 1.265625q0.296875 0.75 0.296875 1.75l0 8.140625l-2.453125 0zm-0.40625 -5.265625l-1.75 0q-0.71875 0 -1.234375 0.140625q-0.5 0.140625 -0.8125 0.390625q-0.3125 0.25 -0.46875 0.578125q-0.140625 0.3125 -0.140625 0.671875q0 0.734375 0.46875 1.109375q0.46875 0.375 1.28125 0.375q0.59375 0 1.234375 -0.421875q0.640625 -0.4375 1.421875 -1.25l0 -1.59375zm16.851562 -0.90625q0 1.640625 -0.46875 2.84375q-0.453125 1.1875 -1.28125 1.984375q-0.828125 0.796875 -1.953125 1.1875q-1.125 0.375 -2.453125 0.375q-1.296875 0 -2.421875 -0.203125q-1.109375 -0.1875 -2.140625 -0.515625l0 -16.0625l2.859375 0l0 3.890625l-0.109375 2.34375q0.640625 -0.828125 1.5 -1.328125q0.859375 -0.515625 2.078125 -0.515625q1.046875 0 1.859375 0.421875q0.828125 0.421875 1.375 1.203125q0.5625 0.78125 0.859375 1.890625q0.296875 1.109375 0.296875 2.484375zm-3.0 0.125q0 -0.984375 -0.140625 -1.671875q-0.140625 -0.703125 -0.40625 -1.140625q-0.265625 -0.453125 -0.65625 -0.65625q-0.375 -0.203125 -0.859375 -0.203125q-0.734375 0 -1.390625 0.59375q-0.65625 0.578125 -1.40625 1.59375l0 5.203125q0.34375 0.125 0.84375 0.203125q0.5 0.078125 1.015625 0.078125q0.671875 0 1.234375 -0.28125q0.5625 -0.28125 0.953125 -0.796875q0.390625 -0.515625 0.59375 -1.25q0.21875 -0.75 0.21875 -1.671875zm15.1171875 5.59375q-0.84375 0.328125 -1.75 0.5q-0.90625 0.171875 -1.890625 0.171875q-1.40625 0 -2.53125 -0.390625q-1.125 -0.390625 -1.921875 -1.15625q-0.78125 -0.765625 -1.203125 -1.890625q-0.40625 -1.125 -0.40625 -2.59375q0 -1.4375 0.453125 -2.59375q0.453125 -1.15625 1.265625 -1.96875q0.828125 -0.828125 1.96875 -1.265625q1.15625 -0.453125 2.578125 -0.453125q1.15625 0 1.953125 0.125q0.796875 0.125 1.421875 0.3125l0 2.765625q-0.71875 -0.359375 -1.578125 -0.546875q-0.84375 -0.203125 -1.609375 -0.203125q-0.796875 0 -1.4375 0.265625q-0.625 0.265625 -1.0625 0.75q-0.421875 0.484375 -0.65625 1.171875q-0.234375 0.671875 -0.234375 1.5q0 0.859375 0.25 1.546875q0.25 0.671875 0.703125 1.140625q0.453125 0.46875 1.078125 0.734375q0.640625 0.25 1.40625 0.25q0.375 0 0.78125 -0.046875q0.421875 -0.0625 0.84375 -0.15625q0.421875 -0.109375 0.8125 -0.234375q0.40625 -0.125 0.765625 -0.28125l0 2.546875zm3.4453125 0.453125l0 -2.109375l3.6250305 -3.625q1.015625 -1.015625 1.625 -1.75q0.625 -0.75 0.953125 -1.328125q0.328125 -0.578125 0.4375 -1.0625q0.109375 -0.5 0.109375 -1.03125q0 -0.421875 -0.140625 -0.8125q-0.140625 -0.40625 -0.421875 -0.6875q-0.265625 -0.28125 -0.671875 -0.453125q-0.40625 -0.171875 -0.9375 -0.171875q-0.90625 0 -1.6875305 0.390625q-0.765625 0.390625 -1.453125 1.046875l-1.515625 -1.9375q1.0 -0.9375 2.25 -1.484375q1.2500305 -0.5625 2.7031555 -0.5625q1.125 0 2.03125 0.296875q0.921875 0.28125 1.5625 0.84375q0.65625 0.5625 1.015625 1.40625q0.359375 0.84375 0.359375 1.9375q0 0.921875 -0.25 1.71875q-0.25 0.78125 -0.71875 1.53125q-0.46875 0.75 -1.15625 1.5q-0.671875 0.75 -1.5625 1.578125l-2.21875 2.125l6.453125 0l0 2.640625l-10.3906555 0z" fill-rule="nonzero"/><path fill="#000000" fill-opacity="0.0" d="m530.7977 313.9638l91.90552 0l0 48.472443l-91.90552 0z" fill-rule="evenodd"/><path fill="#0b5394" d="m552.85596 346.0038l-0.0625 -1.5625q-0.375 0.40625 -0.796875 0.734375q-0.40625 0.328125 -0.90625 0.578125q-0.484375 0.25 -1.0625 0.375q-0.578125 0.140625 -1.265625 0.140625q-0.921875 0 -1.609375 -0.265625q-0.6875 -0.265625 -1.15625 -0.75q-0.46875 -0.484375 -0.71875 -1.15625q-0.234375 -0.6875 -0.234375 -1.5q0 -0.84375 0.359375 -1.5625q0.359375 -0.71875 1.078125 -1.234375q0.734375 -0.515625 1.828125 -0.796875q1.109375 -0.296875 2.578125 -0.296875l1.5625 0l0 -0.71875q0 -0.453125 -0.140625 -0.828125q-0.125 -0.375 -0.40625 -0.625q-0.28125 -0.265625 -0.75 -0.40625q-0.453125 -0.140625 -1.125 -0.140625q-1.046875 0 -2.078125 0.25q-1.015625 0.234375 -1.984375 0.671875l0 -2.28125q0.859375 -0.34375 1.96875 -0.5625q1.125 -0.234375 2.328125 -0.234375q1.328125 0 2.28125 0.265625q0.953125 0.25 1.5625 0.75q0.609375 0.5 0.90625 1.265625q0.296875 0.75 0.296875 1.75l0 8.140625l-2.453125 0zm-0.40625 -5.265625l-1.75 0q-0.71875 0 -1.234375 0.140625q-0.5 0.140625 -0.8125 0.390625q-0.3125 0.25 -0.46875 0.578125q-0.140625 0.3125 -0.140625 0.671875q0 0.734375 0.46875 1.109375q0.46875 0.375 1.28125 0.375q0.59375 0 1.234375 -0.421875q0.640625 -0.4375 1.421875 -1.25l0 -1.59375zm16.851562 -0.90625q0 1.640625 -0.46875 2.84375q-0.453125 1.1875 -1.28125 1.984375q-0.828125 0.796875 -1.953125 1.1875q-1.125 0.375 -2.453125 0.375q-1.296875 0 -2.421875 -0.203125q-1.109375 -0.1875 -2.140625 -0.515625l0 -16.0625l2.859375 0l0 3.890625l-0.109375 2.34375q0.640625 -0.828125 1.5 -1.328125q0.859375 -0.515625 2.078125 -0.515625q1.046875 0 1.859375 0.421875q0.828125 0.421875 1.375 1.203125q0.5625 0.78125 0.859375 1.890625q0.296875 1.109375 0.296875 2.484375zm-3.0 0.125q0 -0.984375 -0.140625 -1.671875q-0.140625 -0.703125 -0.40625 -1.140625q-0.265625 -0.453125 -0.65625 -0.65625q-0.375 -0.203125 -0.859375 -0.203125q-0.734375 0 -1.390625 0.59375q-0.65625 0.578125 -1.40625 1.59375l0 5.203125q0.34375 0.125 0.84375 0.203125q0.5 0.078125 1.015625 0.078125q0.671875 0 1.234375 -0.28125q0.5625 -0.28125 0.953125 -0.796875q0.390625 -0.515625 0.59375 -1.25q0.21875 -0.75 0.21875 -1.671875zm15.1171875 5.59375q-0.84375 0.328125 -1.75 0.5q-0.90625 0.171875 -1.890625 0.171875q-1.40625 0 -2.53125 -0.390625q-1.125 -0.390625 -1.921875 -1.15625q-0.78125 -0.765625 -1.203125 -1.890625q-0.40625 -1.125 -0.40625 -2.59375q0 -1.4375 0.453125 -2.59375q0.453125 -1.15625 1.265625 -1.96875q0.828125 -0.828125 1.96875 -1.265625q1.15625 -0.453125 2.578125 -0.453125q1.15625 0 1.953125 0.125q0.796875 0.125 1.421875 0.3125l0 2.765625q-0.71875 -0.359375 -1.578125 -0.546875q-0.84375 -0.203125 -1.609375 -0.203125q-0.796875 0 -1.4375 0.265625q-0.625 0.265625 -1.0625 0.75q-0.421875 0.484375 -0.65625 1.171875q-0.234375 0.671875 -0.234375 1.5q0 0.859375 0.25 1.546875q0.25 0.671875 0.703125 1.140625q0.453125 0.46875 1.078125 0.734375q0.640625 0.25 1.40625 0.25q0.375 0 0.78125 -0.046875q0.421875 -0.0625 0.84375 -0.15625q0.421875 -0.109375 0.8125 -0.234375q0.40625 -0.125 0.765625 -0.28125l0 2.546875zm11.0546875 0.453125l-0.078125 -1.765625q-0.375 0.46875 -0.78125 0.84375q-0.390625 0.375 -0.84375 0.640625q-0.453125 0.25 -0.984375 0.390625q-0.515625 0.15625 -1.15625 0.15625q-1.046875 0 -1.875 -0.421875q-0.8125 -0.421875 -1.375 -1.203125q-0.546875 -0.78125 -0.84375 -1.890625q-0.296875 -1.109375 -0.296875 -2.484375q0 -1.640625 0.453125 -2.84375q0.46875 -1.203125 1.28125 -1.984375q0.828125 -0.796875 1.953125 -1.171875q1.125 -0.390625 2.453125 -0.390625q0.453125 0 0.890625 0.0625q0.453125 0.0625 0.8125 0.15625l0 -4.65625l2.859375 0l0 16.5625l-2.46875 0zm-5.234375 -5.859375q0 0.984375 0.125 1.6875q0.140625 0.6875 0.40625 1.140625q0.265625 0.4375 0.65625 0.640625q0.390625 0.203125 0.875 0.203125q0.734375 0 1.390625 -0.578125q0.65625 -0.59375 1.390625 -1.609375l0 -5.203125q-0.34375 -0.125 -0.84375 -0.203125q-0.5 -0.09375 -1.0 -0.09375q-0.6875 0 -1.25 0.28125q-0.546875 0.28125 -0.9375 0.796875q-0.390625 0.515625 -0.609375 1.265625q-0.203125 0.75 -0.203125 1.671875zm11.0859375 5.859375l0 -2.546875l3.90625 0l0 -9.84375l-3.40625 1.875l-0.9375 -2.328125l4.875 -2.5625l2.390625 0l0 12.859375l3.375 0l0 2.546875l-10.203125 0z" fill-rule="nonzero"/><path fill="#000000" fill-opacity="0.0" d="m833.52216 305.9638l91.90552 0l0 48.472443l-91.90552 0z" fill-rule="evenodd"/><path fill="#0b5394" d="m855.5804 338.0038l-0.0625 -1.5625q-0.375 0.40625 -0.796875 0.734375q-0.40625 0.328125 -0.90625 0.578125q-0.484375 0.25 -1.0625 0.375q-0.578125 0.140625 -1.265625 0.140625q-0.921875 0 -1.609375 -0.265625q-0.6875 -0.265625 -1.15625 -0.75q-0.46875 -0.484375 -0.71875 -1.15625q-0.234375 -0.6875 -0.234375 -1.5q0 -0.84375 0.359375 -1.5625q0.359375 -0.71875 1.078125 -1.234375q0.734375 -0.515625 1.828125 -0.796875q1.109375 -0.296875 2.578125 -0.296875l1.5625 0l0 -0.71875q0 -0.453125 -0.140625 -0.828125q-0.125 -0.375 -0.40625 -0.625q-0.28125 -0.265625 -0.75 -0.40625q-0.453125 -0.140625 -1.125 -0.140625q-1.046875 0 -2.078125 0.25q-1.015625 0.234375 -1.984375 0.671875l0 -2.28125q0.859375 -0.34375 1.96875 -0.5625q1.125 -0.234375 2.328125 -0.234375q1.328125 0 2.28125 0.265625q0.953125 0.25 1.5625 0.75q0.609375 0.5 0.90625 1.265625q0.296875 0.75 0.296875 1.75l0 8.140625l-2.453125 0zm-0.40625 -5.265625l-1.75 0q-0.71875 0 -1.234375 0.140625q-0.5 0.140625 -0.8125 0.390625q-0.3125 0.25 -0.46875 0.578125q-0.140625 0.3125 -0.140625 0.671875q0 0.734375 0.46875 1.109375q0.46875 0.375 1.28125 0.375q0.59375 0 1.234375 -0.421875q0.640625 -0.4375 1.421875 -1.25l0 -1.59375zm16.851562 -0.90625q0 1.640625 -0.46875 2.84375q-0.453125 1.1875 -1.28125 1.984375q-0.828125 0.796875 -1.953125 1.1875q-1.125 0.375 -2.453125 0.375q-1.296875 0 -2.421875 -0.203125q-1.109375 -0.1875 -2.140625 -0.515625l0 -16.0625l2.859375 0l0 3.890625l-0.109375 2.34375q0.640625 -0.828125 1.5 -1.328125q0.859375 -0.515625 2.078125 -0.515625q1.046875 0 1.859375 0.421875q0.828125 0.421875 1.375 1.203125q0.5625 0.78125 0.859375 1.890625q0.296875 1.109375 0.296875 2.484375zm-3.0 0.125q0 -0.984375 -0.140625 -1.671875q-0.140625 -0.703125 -0.40625 -1.140625q-0.265625 -0.453125 -0.65625 -0.65625q-0.375 -0.203125 -0.859375 -0.203125q-0.734375 0 -1.390625 0.59375q-0.65625 0.578125 -1.40625 1.59375l0 5.203125q0.34375 0.125 0.84375 0.203125q0.5 0.078125 1.015625 0.078125q0.671875 0 1.234375 -0.28125q0.5625 -0.28125 0.953125 -0.796875q0.390625 -0.515625 0.59375 -1.25q0.21875 -0.75 0.21875 -1.671875zm15.1171875 5.59375q-0.84375 0.328125 -1.75 0.5q-0.90625 0.171875 -1.890625 0.171875q-1.40625 0 -2.53125 -0.390625q-1.125 -0.390625 -1.921875 -1.15625q-0.78125 -0.765625 -1.203125 -1.890625q-0.40625 -1.125 -0.40625 -2.59375q0 -1.4375 0.453125 -2.59375q0.453125 -1.15625 1.265625 -1.96875q0.828125 -0.828125 1.96875 -1.265625q1.15625 -0.453125 2.578125 -0.453125q1.15625 0 1.953125 0.125q0.796875 0.125 1.421875 0.3125l0 2.765625q-0.71875 -0.359375 -1.578125 -0.546875q-0.84375 -0.203125 -1.609375 -0.203125q-0.796875 0 -1.4375 0.265625q-0.625 0.265625 -1.0625 0.75q-0.421875 0.484375 -0.65625 1.171875q-0.234375 0.671875 -0.234375 1.5q0 0.859375 0.25 1.546875q0.25 0.671875 0.703125 1.140625q0.453125 0.46875 1.078125 0.734375q0.640625 0.25 1.40625 0.25q0.375 0 0.78125 -0.046875q0.421875 -0.0625 0.84375 -0.15625q0.421875 -0.109375 0.8125 -0.234375q0.40625 -0.125 0.765625 -0.28125l0 2.546875zm11.0546875 0.453125l-0.078125 -1.765625q-0.375 0.46875 -0.78125 0.84375q-0.390625 0.375 -0.84375 0.640625q-0.453125 0.25 -0.984375 0.390625q-0.515625 0.15625 -1.15625 0.15625q-1.046875 0 -1.875 -0.421875q-0.8125 -0.421875 -1.375 -1.203125q-0.546875 -0.78125 -0.84375 -1.890625q-0.296875 -1.109375 -0.296875 -2.484375q0 -1.640625 0.453125 -2.84375q0.46875 -1.203125 1.28125 -1.984375q0.828125 -0.796875 1.953125 -1.171875q1.125 -0.390625 2.453125 -0.390625q0.453125 0 0.890625 0.0625q0.453125 0.0625 0.8125 0.15625l0 -4.65625l2.859375 0l0 16.5625l-2.46875 0zm-5.234375 -5.859375q0 0.984375 0.125 1.6875q0.140625 0.6875 0.40625 1.140625q0.265625 0.4375 0.65625 0.640625q0.390625 0.203125 0.875 0.203125q0.734375 0 1.390625 -0.578125q0.65625 -0.59375 1.390625 -1.609375l0 -5.203125q-0.34375 -0.125 -0.84375 -0.203125q-0.5 -0.09375 -1.0 -0.09375q-0.6875 0 -1.25 0.28125q-0.546875 0.28125 -0.9375 0.796875q-0.390625 0.515625 -0.609375 1.265625q-0.203125 0.75 -0.203125 1.671875zm10.8203125 5.859375l0 -2.109375l3.625 -3.625q1.015625 -1.015625 1.625 -1.75q0.625 -0.75 0.953125 -1.328125q0.328125 -0.578125 0.4375 -1.0625q0.109375 -0.5 0.109375 -1.03125q0 -0.421875 -0.140625 -0.8125q-0.140625 -0.40625 -0.421875 -0.6875q-0.265625 -0.28125 -0.671875 -0.453125q-0.40625 -0.171875 -0.9375 -0.171875q-0.90625 0 -1.6875 0.390625q-0.765625 0.390625 -1.453125 1.046875l-1.515625 -1.9375q1.0 -0.9375 2.25 -1.484375q1.25 -0.5625 2.703125 -0.5625q1.125 0 2.03125 0.296875q0.921875 0.28125 1.5625 0.84375q0.65625 0.5625 1.015625 1.40625q0.359375 0.84375 0.359375 1.9375q0 0.921875 -0.25 1.71875q-0.25 0.78125 -0.71875 1.53125q-0.46875 0.75 -1.15625 1.5q-0.671875 0.75 -1.5625 1.578125l-2.21875 2.125l6.453125 0l0 2.640625l-10.390625 0z" fill-rule="nonzero"/><path fill="#000000" fill-opacity="0.0" d="m107.33652 181.57402l45.95276 0l0 42.015747l-45.95276 0z" fill-rule="evenodd"/><path fill="#000000" d="m126.574875 208.49402l0 -1.984375l3.03125 0l0 -7.640625l-2.640625 1.453125l-0.734375 -1.8125l3.78125 -2.0l1.875 0l0 10.0l2.609375 0l0 1.984375l-7.921875 0z" fill-rule="nonzero"/><path fill="#000000" fill-opacity="0.0" d="m126.825264 224.99922l45.95275 0l0 42.01573l-45.95275 0z" fill-rule="evenodd"/><path fill="#efefef" d="m145.84486 251.91922l0 -1.640625l2.8125 -2.8125q0.796875 -0.796875 1.265625 -1.359375q0.484375 -0.578125 0.75 -1.03125q0.265625 -0.453125 0.34375 -0.828125q0.078125 -0.390625 0.078125 -0.796875q0 -0.34375 -0.109375 -0.640625q-0.109375 -0.3125 -0.328125 -0.53125q-0.203125 -0.21875 -0.53125 -0.34375q-0.3125 -0.140625 -0.71875 -0.140625q-0.703125 0 -1.3125 0.3125q-0.59375 0.296875 -1.125 0.796875l-1.171875 -1.5q0.765625 -0.71875 1.734375 -1.15625q0.96875 -0.4375 2.109375 -0.4375q0.875 0 1.578125 0.234375q0.71875 0.21875 1.21875 0.65625q0.5 0.4375 0.78125 1.09375q0.28125 0.65625 0.28125 1.5q0 0.71875 -0.203125 1.34375q-0.1875 0.609375 -0.546875 1.1875q-0.359375 0.578125 -0.890625 1.171875q-0.53125 0.578125 -1.21875 1.21875l-1.734375 1.65625l5.015625 0l0 2.046875l-8.078125 0z" fill-rule="nonzero"/><path fill="#000000" fill-opacity="0.0" d="m129.08058 104.99922l45.95276 0l0 42.015747l-45.95276 0z" fill-rule="evenodd"/><path fill="#efefef" d="m148.31894 131.91922l0 -1.984375l3.03125 0l0 -7.640625l-2.640625 1.453125l-0.734375 -1.8125l3.78125 -2.0l1.875 0l0 10.0l2.609375 0l0 1.984375l-7.921875 0z" fill-rule="nonzero"/><path fill="#000000" fill-opacity="0.0" d="m304.49792 245.2165l45.95276 0l0 42.015762l-45.95276 0z" fill-rule="evenodd"/><path fill="#000000" d="m323.7363 272.1365l0 -1.984375l3.03125 0l0 -7.640625l-2.640625 1.453125l-0.734375 -1.8125l3.78125 -2.0l1.875 0l0 10.0l2.609375 0l0 1.984375l-7.921875 0z" fill-rule="nonzero"/><path fill="#000000" fill-opacity="0.0" d="m305.45538 121.38672l45.95276 0l0 42.015747l-45.95276 0z" fill-rule="evenodd"/><path fill="#000000" d="m324.69373 148.30672l0 -1.984375l3.03125 0l0 -7.640625l-2.640625 1.453125l-0.734375 -1.8125l3.78125 -2.0l1.875 0l0 10.0l2.609375 0l0 1.984375l-7.921875 0z" fill-rule="nonzero"/><path fill="#000000" fill-opacity="0.0" d="m305.45538 95.471825l45.95276 0l0 42.015755l-45.95276 0z" fill-rule="evenodd"/><path fill="#000000" d="m324.47498 122.39182l0 -1.640625l2.8125 -2.8125q0.796875 -0.796875 1.265625 -1.359375q0.484375 -0.578125 0.75 -1.03125q0.265625 -0.453125 0.34375 -0.828125q0.078125 -0.390625 0.078125 -0.796875q0 -0.34375 -0.109375 -0.640625q-0.109375 -0.3125 -0.328125 -0.53125q-0.203125 -0.21875 -0.53125 -0.34375q-0.3125 -0.140625 -0.71875 -0.140625q-0.703125 0 -1.3125 0.3125q-0.59375 0.296875 -1.125 0.796875l-1.171875 -1.5q0.765625 -0.71875 1.734375 -1.15625q0.96875 -0.4375 2.109375 -0.4375q0.875 0 1.578125 0.234375q0.71875 0.21875 1.21875 0.65625q0.5 0.4375 0.78125 1.09375q0.28125 0.65625 0.28125 1.5q0 0.71875 -0.203125 1.34375q-0.1875 0.609375 -0.546875 1.1875q-0.359375 0.578125 -0.890625 1.171875q-0.53125 0.578125 -1.21875 1.21875l-1.734375 1.65625l5.015625 0l0 2.046875l-8.078125 0z" fill-rule="nonzero"/><path fill="#000000" fill-opacity="0.0" d="m303.5405 271.47183l45.95276 0l0 42.015747l-45.95276 0z" fill-rule="evenodd"/><path fill="#000000" d="m322.5601 298.3918l0 -1.640625l2.8125 -2.8125q0.796875 -0.796875 1.265625 -1.359375q0.484375 -0.578125 0.75 -1.03125q0.265625 -0.453125 0.34375 -0.828125q0.078125 -0.390625 0.078125 -0.796875q0 -0.34375 -0.109375 -0.640625q-0.109375 -0.3125 -0.328125 -0.53125q-0.203125 -0.21875 -0.53125 -0.34375q-0.3125 -0.140625 -0.71875 -0.140625q-0.703125 0 -1.3125 0.3125q-0.59375 0.296875 -1.125 0.796875l-1.171875 -1.5q0.765625 -0.71875 1.734375 -1.15625q0.96875 -0.4375 2.109375 -0.4375q0.875 0 1.578125 0.234375q0.71875 0.21875 1.21875 0.65625q0.5 0.4375 0.78125 1.09375q0.28125 0.65625 0.28125 1.5q0 0.71875 -0.203125 1.34375q-0.1875 0.609375 -0.546875 1.1875q-0.359375 0.578125 -0.890625 1.171875q-0.53125 0.578125 -1.21875 1.21875l-1.734375 1.65625l5.015625 0l0 2.046875l-8.078125 0z" fill-rule="nonzero"/><path fill="#000000" fill-opacity="0.0" d="m250.05847 226.6777l45.95276 0l0 42.015747l-45.95276 0z" fill-rule="evenodd"/><path fill="#efefef" d="m269.2968 253.5977l0 -1.984375l3.03125 0l0 -7.640625l-2.640625 1.453125l-0.734375 -1.8125l3.78125 -2.0l1.875 0l0 10.0l2.609375 0l0 1.984375l-7.921875 0z" fill-rule="nonzero"/><path fill="#000000" fill-opacity="0.0" d="m257.0806 104.99922l45.95273 0l0 42.015747l-45.95273 0z" fill-rule="evenodd"/><path fill="#efefef" d="m276.1002 131.91922l0 -1.640625l2.8125 -2.8125q0.796875 -0.796875 1.265625 -1.359375q0.484375 -0.578125 0.75 -1.03125q0.265625 -0.453125 0.34375 -0.828125q0.078125 -0.390625 0.078125 -0.796875q0 -0.34375 -0.109375 -0.640625q-0.109375 -0.3125 -0.328125 -0.53125q-0.203125 -0.21875 -0.53125 -0.34375q-0.3125 -0.140625 -0.71875 -0.140625q-0.703125 0 -1.3125 0.3125q-0.59375 0.296875 -1.125 0.796875l-1.171875 -1.5q0.765625 -0.71875 1.734375 -1.15625q0.96875 -0.4375 2.109375 -0.4375q0.875 0 1.578125 0.234375q0.71875 0.21875 1.21875 0.65625q0.5 0.4375 0.78125 1.09375q0.28125 0.65625 0.28125 1.5q0 0.71875 -0.203125 1.34375q-0.1875 0.609375 -0.546875 1.1875q-0.359375 0.578125 -0.890625 1.171875q-0.53125 0.578125 -1.21875 1.21875l-1.734375 1.65625l5.015625 0l0 2.046875l-8.078125 0z" fill-rule="nonzero"/><path fill="#000000" fill-opacity="0.0" d="m395.9529 224.99922l45.95276 0l0 42.01573l-45.95276 0z" fill-rule="evenodd"/><path fill="#efefef" d="m414.97253 251.91922l0 -1.640625l2.8125 -2.8125q0.796875 -0.796875 1.265625 -1.359375q0.484375 -0.578125 0.75 -1.03125q0.265625 -0.453125 0.34375 -0.828125q0.078125 -0.390625 0.078125 -0.796875q0 -0.34375 -0.109375 -0.640625q-0.109375 -0.3125 -0.328125 -0.53125q-0.203125 -0.21875 -0.53125 -0.34375q-0.3125 -0.140625 -0.71875 -0.140625q-0.703125 0 -1.3125 0.3125q-0.59375 0.296875 -1.125 0.796875l-1.171875 -1.5q0.765625 -0.71875 1.734375 -1.15625q0.96875 -0.4375 2.109375 -0.4375q0.875 0 1.578125 0.234375q0.71875 0.21875 1.21875 0.65625q0.5 0.4375 0.78125 1.09375q0.28125 0.65625 0.28125 1.5q0 0.71875 -0.203125 1.34375q-0.1875 0.609375 -0.546875 1.1875q-0.359375 0.578125 -0.890625 1.171875q-0.53125 0.578125 -1.21875 1.21875l-1.734375 1.65625l5.015625 0l0 2.046875l-8.078125 0z" fill-rule="nonzero"/><path fill="#000000" fill-opacity="0.0" d="m322.05847 16.422377l45.95276 0l0 42.015747l-45.95276 0z" fill-rule="evenodd"/><path fill="#efefef" d="m341.2968 43.342377l0 -1.984375l3.03125 0l0 -7.640625l-2.640625 1.453125l-0.734375 -1.8125l3.78125 -2.000002l1.875 0l0 10.000002l2.609375 0l0 1.984375l-7.921875 0z" fill-rule="nonzero"/><path fill="#000000" fill-opacity="0.0" d="m402.05847 104.42238l45.95276 0l0 42.015747l-45.95276 0z" fill-rule="evenodd"/><path fill="#efefef" d="m429.20306 127.70175q0 0.890625 -0.328125 1.59375q-0.328125 0.703125 -1.015625 1.203125q-0.671875 0.5 -1.703125 0.765625q-1.03125 0.265625 -2.421875 0.265625q-0.3125 0 -0.65625 -0.015625q-0.34375 -0.015625 -0.6875 -0.046875q-0.328125 -0.015625 -0.65625 -0.046875q-0.3125 -0.03125 -0.5625 -0.078125l0 -1.9375q0.578125 0.109375 1.28125 0.1875q0.71875 0.0625 1.5 0.0625q0.75 0 1.296875 -0.125q0.546875 -0.125 0.90625 -0.359375q0.359375 -0.25 0.515625 -0.609375q0.171875 -0.359375 0.171875 -0.796875q0 -0.390625 -0.171875 -0.703125q-0.171875 -0.328125 -0.53125 -0.546875q-0.34375 -0.234375 -0.90625 -0.34375q-0.546875 -0.125 -1.296875 -0.125l-1.328125 0l0 -1.703125l1.21875 0q0.703125 0 1.171875 -0.140625q0.46875 -0.140625 0.75 -0.375q0.28125 -0.234375 0.390625 -0.5625q0.125 -0.328125 0.125 -0.671875q0 -0.734375 -0.484375 -1.109375q-0.46875 -0.375 -1.453125 -0.375q-0.71875 0 -1.40625 0.140625q-0.6875 0.125 -1.4375 0.359375l0 -1.875q0.421875 -0.125 0.78125 -0.21875q0.375 -0.09375 0.75 -0.15625q0.375 -0.0625 0.75 -0.09375q0.390625 -0.03125 0.8125 -0.03125q0.96875 0 1.703125 0.21875q0.75 0.203125 1.25 0.59375q0.515625 0.390625 0.765625 0.953125q0.265625 0.546875 0.265625 1.21875q0 1.09375 -0.5 1.765625q-0.5 0.65625 -1.390625 1.015625q0.578125 0.09375 1.03125 0.328125q0.46875 0.21875 0.796875 0.578125q0.34375 0.34375 0.515625 0.796875q0.1875 0.453125 0.1875 1.0z" fill-rule="nonzero"/><path fill="#000000" fill-opacity="0.0" d="m327.18613 312.42236l45.95276 0l0 42.015747l-45.95276 0z" fill-rule="evenodd"/><path fill="#efefef" d="m354.33075 335.70175q0 0.890625 -0.328125 1.59375q-0.328125 0.703125 -1.015625 1.203125q-0.671875 0.5 -1.703125 0.765625q-1.03125 0.265625 -2.421875 0.265625q-0.3125 0 -0.65625 -0.015625q-0.34375 -0.015625 -0.6875 -0.046875q-0.328125 -0.015625 -0.65625 -0.046875q-0.3125 -0.03125 -0.5625 -0.078125l0 -1.9375q0.578125 0.109375 1.28125 0.1875q0.71875 0.0625 1.5 0.0625q0.75 0 1.296875 -0.125q0.546875 -0.125 0.90625 -0.359375q0.359375 -0.25 0.515625 -0.609375q0.171875 -0.359375 0.171875 -0.796875q0 -0.390625 -0.171875 -0.703125q-0.171875 -0.328125 -0.53125 -0.546875q-0.34375 -0.234375 -0.90625 -0.34375q-0.546875 -0.125 -1.296875 -0.125l-1.328125 0l0 -1.703125l1.21875 0q0.703125 0 1.171875 -0.140625q0.46875 -0.140625 0.75 -0.375q0.28125 -0.234375 0.390625 -0.5625q0.125 -0.328125 0.125 -0.671875q0 -0.734375 -0.484375 -1.109375q-0.46875 -0.375 -1.453125 -0.375q-0.71875 0 -1.40625 0.140625q-0.6875 0.125 -1.4375 0.359375l0 -1.875q0.421875 -0.125 0.78125 -0.21875q0.375 -0.09375 0.75 -0.15625q0.375 -0.0625 0.75 -0.09375q0.390625 -0.03125 0.8125 -0.03125q0.96875 0 1.703125 0.21875q0.75 0.203125 1.25 0.59375q0.515625 0.390625 0.765625 0.953125q0.265625 0.546875 0.265625 1.21875q0 1.09375 -0.5 1.765625q-0.5 0.65625 -1.390625 1.015625q0.578125 0.09375 1.03125 0.328125q0.46875 0.21875 0.796875 0.578125q0.34375 0.34375 0.515625 0.796875q0.1875 0.453125 0.1875 1.0z" fill-rule="nonzero"/><path fill="#000000" fill-opacity="0.0" d="m555.3703 34.34417l45.95276 0l0 42.015747l-45.95276 0z" fill-rule="evenodd"/><path fill="#000000" d="m574.60864 61.264168l0 -1.984375l3.03125 0l0 -7.640625l-2.640625 1.453125l-0.734375 -1.8125l3.78125 -2.0l1.875 0l0 10.0l2.609375 0l0 1.984375l-7.921875 0z" fill-rule="nonzero"/><path fill="#000000" fill-opacity="0.0" d="m555.7107 121.72715l45.95276 0l0 42.01574l-45.95276 0z" fill-rule="evenodd"/><path fill="#000000" d="m574.7303 148.64714l0 -1.640625l2.8125 -2.8125q0.796875 -0.796875 1.265625 -1.359375q0.484375 -0.578125 0.75 -1.03125q0.265625 -0.453125 0.34375 -0.828125q0.078125 -0.390625 0.078125 -0.796875q0 -0.34375 -0.109375 -0.640625q-0.109375 -0.3125 -0.328125 -0.53125q-0.203125 -0.21875 -0.53125 -0.34375q-0.3125 -0.140625 -0.71875 -0.140625q-0.703125 0 -1.3125 0.3125q-0.59375 0.296875 -1.125 0.796875l-1.171875 -1.5q0.765625 -0.71875 1.734375 -1.15625q0.96875 -0.4375 2.109375 -0.4375q0.875 0 1.578125 0.234375q0.71875 0.21875 1.21875 0.65625q0.5 0.4375 0.78125 1.09375q0.28125 0.65625 0.28125 1.5q0 0.71875 -0.203125 1.34375q-0.1875 0.609375 -0.546875 1.1875q-0.359375 0.578125 -0.890625 1.171875q-0.53125 0.578125 -1.21875 1.21875l-1.734375 1.65625l5.015625 0l0 2.046875l-8.078125 0z" fill-rule="nonzero"/><path fill="#000000" fill-opacity="0.0" d="m587.7107 174.51437l45.95276 0l0 42.015762l-45.95276 0z" fill-rule="evenodd"/><path fill="#000000" d="m614.8553 197.79375q0 0.890625 -0.328125 1.59375q-0.328125 0.703125 -1.015625 1.203125q-0.671875 0.5 -1.703125 0.765625q-1.03125 0.265625 -2.421875 0.265625q-0.3125 0 -0.65625 -0.015625q-0.34375 -0.015625 -0.6875 -0.046875q-0.328125 -0.015625 -0.65625 -0.046875q-0.3125 -0.03125 -0.5625 -0.078125l0 -1.9375q0.578125 0.109375 1.28125 0.1875q0.71875 0.0625 1.5 0.0625q0.75 0 1.296875 -0.125q0.546875 -0.125 0.90625 -0.359375q0.359375 -0.25 0.515625 -0.609375q0.171875 -0.359375 0.171875 -0.796875q0 -0.390625 -0.171875 -0.703125q-0.171875 -0.328125 -0.53125 -0.546875q-0.34375 -0.234375 -0.90625 -0.34375q-0.546875 -0.125 -1.296875 -0.125l-1.328125 0l0 -1.703125l1.21875 0q0.703125 0 1.171875 -0.140625q0.46875 -0.140625 0.75 -0.375q0.28125 -0.234375 0.390625 -0.5625q0.125 -0.328125 0.125 -0.671875q0 -0.734375 -0.484375 -1.109375q-0.46875 -0.375 -1.453125 -0.375q-0.71875 0 -1.40625 0.140625q-0.6875 0.125 -1.4375 0.359375l0 -1.875q0.421875 -0.125 0.78125 -0.21875q0.375 -0.09375 0.75 -0.15625q0.375 -0.0625 0.75 -0.09375q0.390625 -0.03125 0.8125 -0.03125q0.96875 0 1.703125 0.21875q0.75 0.203125 1.25 0.59375q0.515625 0.390625 0.765625 0.953125q0.265625 0.546875 0.265625 1.21875q0 1.09375 -0.5 1.765625q-0.5 0.65625 -1.390625 1.015625q0.578125 0.09375 1.03125 0.328125q0.46875 0.21875 0.796875 0.578125q0.34375 0.34375 0.515625 0.796875q0.1875 0.453125 0.1875 1.0z" fill-rule="nonzero"/><path fill="#000000" fill-opacity="0.0" d="m499.97336 14.84791l45.95279 0l0 42.015747l-45.95279 0z" fill-rule="evenodd"/><path fill="#efefef" d="m519.21173 41.767906l0 -1.984375l3.03125 0l0 -7.640625l-2.640625 1.453125l-0.734375 -1.8124981l3.78125 -2.0l1.875 0l0 9.999998l2.609375 0l0 1.984375l-7.921875 0z" fill-rule="nonzero"/><path fill="#000000" fill-opacity="0.0" d="m646.20825 15.084326l45.95276 0l0 42.015747l-45.95276 0z" fill-rule="evenodd"/><path fill="#efefef" d="m665.22784 42.004322l0 -1.640625l2.8125 -2.8125q0.796875 -0.796875 1.265625 -1.359375q0.484375 -0.578125 0.75 -1.03125q0.265625 -0.453125 0.34375 -0.828125q0.078125 -0.390625 0.078125 -0.796875q0 -0.34375 -0.109375 -0.640625q-0.109375 -0.3125 -0.328125 -0.53125q-0.203125 -0.21875 -0.53125 -0.34375q-0.3125 -0.1406231 -0.71875 -0.1406231q-0.703125 0 -1.3125 0.3124981q-0.59375 0.296875 -1.125 0.796875l-1.171875 -1.4999981q0.765625 -0.71875 1.734375 -1.15625q0.96875 -0.4375 2.109375 -0.4375q0.875 0 1.578125 0.234375q0.71875 0.21875 1.21875 0.65625q0.5 0.4375 0.78125 1.09375q0.28125 0.6562481 0.28125 1.4999981q0 0.71875 -0.203125 1.34375q-0.1875 0.609375 -0.546875 1.1875q-0.359375 0.578125 -0.890625 1.171875q-0.53125 0.578125 -1.21875 1.21875l-1.734375 1.65625l5.015625 0l0 2.046875l-8.078125 0z" fill-rule="nonzero"/><path fill="#000000" fill-opacity="0.0" d="m576.1231 224.04178l45.95276 0l0 42.015747l-45.95276 0z" fill-rule="evenodd"/><path fill="#efefef" d="m603.26776 247.32115q0 0.890625 -0.328125 1.59375q-0.328125 0.703125 -1.015625 1.203125q-0.671875 0.5 -1.703125 0.765625q-1.03125 0.265625 -2.421875 0.265625q-0.3125 0 -0.65625 -0.015625q-0.34375 -0.015625 -0.6875 -0.046875q-0.328125 -0.015625 -0.65625 -0.046875q-0.3125 -0.03125 -0.5625 -0.078125l0 -1.9375q0.578125 0.109375 1.28125 0.1875q0.71875 0.0625 1.5 0.0625q0.75 0 1.296875 -0.125q0.546875 -0.125 0.90625 -0.359375q0.359375 -0.25 0.515625 -0.609375q0.171875 -0.359375 0.171875 -0.796875q0 -0.390625 -0.171875 -0.703125q-0.171875 -0.328125 -0.53125 -0.546875q-0.34375 -0.234375 -0.90625 -0.34375q-0.546875 -0.125 -1.296875 -0.125l-1.328125 0l0 -1.703125l1.21875 0q0.703125 0 1.171875 -0.140625q0.46875 -0.140625 0.75 -0.375q0.28125 -0.234375 0.390625 -0.5625q0.125 -0.328125 0.125 -0.671875q0 -0.734375 -0.484375 -1.109375q-0.46875 -0.375 -1.453125 -0.375q-0.71875 0 -1.40625 0.140625q-0.6875 0.125 -1.4375 0.359375l0 -1.875q0.421875 -0.125 0.78125 -0.21875q0.375 -0.09375 0.75 -0.15625q0.375 -0.0625 0.75 -0.09375q0.390625 -0.03125 0.8125 -0.03125q0.96875 0 1.703125 0.21875q0.75 0.203125 1.25 0.59375q0.515625 0.390625 0.765625 0.953125q0.265625 0.546875 0.265625 1.21875q0 1.09375 -0.5 1.765625q-0.5 0.65625 -1.390625 1.015625q0.578125 0.09375 1.03125 0.328125q0.46875 0.21875 0.796875 0.578125q0.34375 0.34375 0.515625 0.796875q0.1875 0.453125 0.1875 1.0z" fill-rule="nonzero"/><path fill="#000000" fill-opacity="0.0" d="m678.20825 156.82901l45.95276 0l0 42.015747l-45.95276 0z" fill-rule="evenodd"/><path fill="#efefef" d="m704.11847 181.32713l0 2.421875l-2.171875 0l0 -2.421875l-5.53125 0l0 -1.90625l4.640625 -7.578125l3.0625 0l0 7.53125l1.796875 0l0 1.953125l-1.796875 0zm-2.140625 -7.328125l-3.390625 5.375l3.390625 0l0 -5.375z" fill-rule="nonzero"/><path fill="#000000" fill-opacity="0.0" d="m803.9734 102.84791l45.95276 0l0 42.015755l-45.95276 0z" fill-rule="evenodd"/><path fill="#efefef" d="m823.21173 129.76791l0 -1.9843826l3.03125 0l0 -7.640625l-2.640625 1.453125l-0.734375 -1.8125l3.78125 -2.0l1.875 0l0 10.0l2.609375 0l0 1.9843826l-7.921875 0z" fill-rule="nonzero"/><path fill="#000000" fill-opacity="0.0" d="m950.20825 103.08433l45.95276 0l0 42.01574l-45.95276 0z" fill-rule="evenodd"/><path fill="#efefef" d="m969.22784 130.00432l0 -1.640625l2.8125 -2.8124924q0.796875 -0.796875 1.265625 -1.359375q0.484375 -0.578125 0.75 -1.03125q0.265625 -0.453125 0.34375 -0.828125q0.078125 -0.390625 0.078125 -0.796875q0 -0.34375 -0.109375 -0.640625q-0.109375 -0.3125 -0.328125 -0.53125q-0.203125 -0.21875 -0.53125 -0.34375q-0.3125 -0.140625 -0.71875 -0.140625q-0.703125 0 -1.3125 0.3125q-0.59375 0.296875 -1.125 0.796875l-1.171875 -1.5q0.765625 -0.71875 1.734375 -1.15625q0.96875 -0.4375 2.109375 -0.4375q0.875 0 1.578125 0.234375q0.71875 0.21875 1.21875 0.65625q0.5 0.4375 0.78125 1.09375q0.28125 0.65625 0.28125 1.5q0 0.71875 -0.203125 1.34375q-0.1875 0.609375 -0.546875 1.1875q-0.359375 0.578125 -0.890625 1.171875q-0.53125 0.578125 -1.21875 1.21875l-1.734375 1.65625l5.015625 0l0 2.0468674l-8.078125 0z" fill-rule="nonzero"/><path fill="#000000" fill-opacity="0.0" d="m809.08057 224.04178l45.95276 0l0 42.015747l-45.95276 0z" fill-rule="evenodd"/><path fill="#efefef" d="m836.2252 247.32115q0 0.890625 -0.328125 1.59375q-0.328125 0.703125 -1.015625 1.203125q-0.671875 0.5 -1.703125 0.765625q-1.03125 0.265625 -2.421875 0.265625q-0.3125 0 -0.65625 -0.015625q-0.34375 -0.015625 -0.6875 -0.046875q-0.328125 -0.015625 -0.65625 -0.046875q-0.3125 -0.03125 -0.5625 -0.078125l0 -1.9375q0.578125 0.109375 1.28125 0.1875q0.71875 0.0625 1.5 0.0625q0.75 0 1.296875 -0.125q0.546875 -0.125 0.90625 -0.359375q0.359375 -0.25 0.515625 -0.609375q0.171875 -0.359375 0.171875 -0.796875q0 -0.390625 -0.171875 -0.703125q-0.171875 -0.328125 -0.53125 -0.546875q-0.34375 -0.234375 -0.90625 -0.34375q-0.546875 -0.125 -1.296875 -0.125l-1.328125 0l0 -1.703125l1.21875 0q0.703125 0 1.171875 -0.140625q0.46875 -0.140625 0.75 -0.375q0.28125 -0.234375 0.390625 -0.5625q0.125 -0.328125 0.125 -0.671875q0 -0.734375 -0.484375 -1.109375q-0.46875 -0.375 -1.453125 -0.375q-0.71875 0 -1.40625 0.140625q-0.6875 0.125 -1.4375 0.359375l0 -1.875q0.421875 -0.125 0.78125 -0.21875q0.375 -0.09375 0.75 -0.15625q0.375 -0.0625 0.75 -0.09375q0.390625 -0.03125 0.8125 -0.03125q0.96875 0 1.703125 0.21875q0.75 0.203125 1.25 0.59375q0.515625 0.390625 0.765625 0.953125q0.265625 0.546875 0.265625 1.21875q0 1.09375 -0.5 1.765625q-0.5 0.65625 -1.390625 1.015625q0.578125 0.09375 1.03125 0.328125q0.46875 0.21875 0.796875 0.578125q0.34375 0.34375 0.515625 0.796875q0.1875 0.453125 0.1875 1.0z" fill-rule="nonzero"/><path fill="#000000" fill-opacity="0.0" d="m950.20825 228.82901l45.95276 0l0 42.015747l-45.95276 0z" fill-rule="evenodd"/><path fill="#efefef" d="m976.11847 253.32713l0 2.421875l-2.171875 0l0 -2.421875l-5.53125 0l0 -1.90625l4.640625 -7.578125l3.0625 0l0 7.53125l1.796875 0l0 1.953125l-1.796875 0zm-2.140625 -7.328125l-3.390625 5.375l3.390625 0l0 -5.375z" fill-rule="nonzero"/><path fill="#000000" fill-opacity="0.0" d="m856.4979 122.34417l45.95276 0l0 42.01574l-45.95276 0z" fill-rule="evenodd"/><path fill="#000000" d="m875.73627 149.26416l0 -1.984375l3.03125 0l0 -7.640625l-2.640625 1.453125l-0.734375 -1.8125l3.78125 -2.0l1.875 0l0 10.0l2.609375 0l0 1.984375l-7.921875 0z" fill-rule="nonzero"/><path fill="#000000" fill-opacity="0.0" d="m856.4979 241.72714l45.95276 0l0 42.015747l-45.95276 0z" fill-rule="evenodd"/><path fill="#000000" d="m875.5175 268.64716l0 -1.640625l2.8125 -2.8125q0.796875 -0.796875 1.265625 -1.359375q0.484375 -0.578125 0.75 -1.03125q0.265625 -0.453125 0.34375 -0.828125q0.078125 -0.390625 0.078125 -0.796875q0 -0.34375 -0.109375 -0.640625q-0.109375 -0.3125 -0.328125 -0.53125q-0.203125 -0.21875 -0.53125 -0.34375q-0.3125 -0.140625 -0.71875 -0.140625q-0.703125 0 -1.3125 0.3125q-0.59375 0.296875 -1.125 0.796875l-1.171875 -1.5q0.765625 -0.71875 1.734375 -1.15625q0.96875 -0.4375 2.109375 -0.4375q0.875 0 1.578125 0.234375q0.71875 0.21875 1.21875 0.65625q0.5 0.4375 0.78125 1.09375q0.28125 0.65625 0.28125 1.5q0 0.71875 -0.203125 1.34375q-0.1875 0.609375 -0.546875 1.1875q-0.359375 0.578125 -0.890625 1.171875q-0.53125 0.578125 -1.21875 1.21875l-1.734375 1.65625l5.015625 0l0 2.046875l-8.078125 0z" fill-rule="nonzero"/><path fill="#000000" fill-opacity="0.0" d="m856.4979 181.55693l45.95276 0l0 42.015747l-45.95276 0z" fill-rule="evenodd"/><path fill="#000000" d="m883.6425 204.8363q0 0.890625 -0.328125 1.59375q-0.328125 0.703125 -1.015625 1.203125q-0.671875 0.5 -1.703125 0.765625q-1.03125 0.265625 -2.421875 0.265625q-0.3125 0 -0.65625 -0.015625q-0.34375 -0.015625 -0.6875 -0.046875q-0.328125 -0.015625 -0.65625 -0.046875q-0.3125 -0.03125 -0.5625 -0.078125l0 -1.9375q0.578125 0.109375 1.28125 0.1875q0.71875 0.0625 1.5 0.0625q0.75 0 1.296875 -0.125q0.546875 -0.125 0.90625 -0.359375q0.359375 -0.25 0.515625 -0.609375q0.171875 -0.359375 0.171875 -0.796875q0 -0.390625 -0.171875 -0.703125q-0.171875 -0.328125 -0.53125 -0.546875q-0.34375 -0.234375 -0.90625 -0.34375q-0.546875 -0.125 -1.296875 -0.125l-1.328125 0l0 -1.703125l1.21875 0q0.703125 0 1.171875 -0.140625q0.46875 -0.140625 0.75 -0.375q0.28125 -0.234375 0.390625 -0.5625q0.125 -0.328125 0.125 -0.671875q0 -0.734375 -0.484375 -1.109375q-0.46875 -0.375 -1.453125 -0.375q-0.71875 0 -1.40625 0.140625q-0.6875 0.125 -1.4375 0.359375l0 -1.875q0.421875 -0.125 0.78125 -0.21875q0.375 -0.09375 0.75 -0.15625q0.375 -0.0625 0.75 -0.09375q0.390625 -0.03125 0.8125 -0.03125q0.96875 0 1.703125 0.21875q0.75 0.203125 1.25 0.59375q0.515625 0.390625 0.765625 0.953125q0.265625 0.546875 0.265625 1.21875q0 1.09375 -0.5 1.765625q-0.5 0.65625 -1.390625 1.015625q0.578125 0.09375 1.03125 0.328125q0.46875 0.21875 0.796875 0.578125q0.34375 0.34375 0.515625 0.796875q0.1875 0.453125 0.1875 1.0z" fill-rule="nonzero"/></g></svg>