<svg version="1.1" viewBox="0.0 0.0 1459.2152230971128 445.04199475065616" fill="none" stroke="none" stroke-linecap="square" stroke-miterlimit="10" xmlns:xlink="http://www.w3.org/1999/xlink" xmlns="http://www.w3.org/2000/svg"><clipPath id="p.0"><path d="m0 0l1459.2152 0l0 445.042l-1459.2152 0l0 -445.042z" clip-rule="nonzero"/></clipPath><g clip-path="url(#p.0)"><path fill="#ffffff" d="m0 0l1459.2152 0l0 445.042l-1459.2152 0z" fill-rule="evenodd"/><path fill="#cd5c5c" d="m301.41077 253.96075l0 -91.9055l34.456696 0l0 91.9055z" fill-rule="evenodd"/><path stroke="#cd5c5c" stroke-width="1.0" stroke-linejoin="round" stroke-linecap="butt" d="m301.41077 253.96075l0 -91.9055l34.456696 0l0 91.9055z" fill-rule="evenodd"/><path fill="#29465b" d="m273.64697 267.98438l0 0c0 -25.378998 20.573761 -45.952744 45.95276 -45.952744l0 0c12.187439 0 23.875702 4.8414307 32.4935 13.459244c8.617828 8.617813 13.459259 20.306076 13.459259 32.4935l0 0c0 25.379028 -20.573761 45.95276 -45.95276 45.95276l0 0c-25.378998 0 -45.95276 -20.57373 -45.95276 -45.95276z" fill-rule="evenodd"/><path stroke="#29465b" stroke-width="1.0" stroke-linejoin="round" stroke-linecap="butt" d="m273.64697 267.98438l0 0c0 -25.378998 20.573761 -45.952744 45.95276 -45.952744l0 0c12.187439 0 23.875702 4.8414307 32.4935 13.459244c8.617828 8.617813 13.459259 20.306076 13.459259 32.4935l0 0c0 25.379028 -20.573761 45.95276 -45.95276 45.95276l0 0c-25.378998 0 -45.95276 -20.57373 -45.95276 -45.95276z" fill-rule="evenodd"/><path fill="#efefef" d="m311.21786 282.38437q-0.875 0 -1.484375 -0.59375q-0.59375 -0.609375 -0.59375 -1.484375l0 -27.07811q0 -0.921875 0.59375 -1.5q0.609375 -0.578125 1.484375 -0.578125l9.5625305 0q2.71875 0 4.78125 1.0625q2.0625 1.046875 3.234375 2.9375q1.1875 1.8749847 1.1875 4.3124847q0 1.96875 -1.0625 3.546875q-1.0625 1.578125 -2.90625 2.5q2.640625 0.640625 4.234375 2.515625q1.609375 1.875 1.609375 4.921875q0 2.75 -1.296875 4.875q-1.296875 2.125 -3.625 3.34375q-2.3125 1.21875 -5.3125 1.21875l-10.4062805 0zm2.078125 -3.84375l8.3281555 0q1.828125 0 3.234375 -0.640625q1.40625 -0.640625 2.203125 -1.875q0.796875 -1.234375 0.796875 -3.078125q0 -1.71875 -0.796875 -2.84375q-0.796875 -1.125 -2.203125 -1.703125q-1.40625 -0.578125 -3.234375 -0.578125l-8.3281555 0l0 10.71875zm0 -14.5625l7.4844055 0q2.28125 0 3.734375 -1.109375q1.46875 -1.125 1.46875 -3.40625q0 -2.28125 -1.46875 -3.375q-1.453125 -1.1093597 -3.734375 -1.1093597l-7.4844055 0l0 8.999985z" fill-rule="nonzero"/><path fill="#29465b" d="m273.64697 145.43152l0 0c0 -25.378998 20.573761 -45.95275 45.95276 -45.95275l0 0c12.187439 0 23.875702 4.8414383 32.4935 13.459251c8.617828 8.617813 13.459259 20.306076 13.459259 32.4935l0 0c0 25.379013 -20.573761 45.95276 -45.95276 45.95276l0 0c-25.378998 0 -45.95276 -20.573746 -45.95276 -45.95276z" fill-rule="evenodd"/><path stroke="#29465b" stroke-width="1.0" stroke-linejoin="round" stroke-linecap="butt" d="m273.64697 145.43152l0 0c0 -25.378998 20.573761 -45.95275 45.95276 -45.95275l0 0c12.187439 0 23.875702 4.8414383 32.4935 13.459251c8.617828 8.617813 13.459259 20.306076 13.459259 32.4935l0 0c0 25.379013 -20.573761 45.95276 -45.95276 45.95276l0 0c-25.378998 0 -45.95276 -20.573746 -45.95276 -45.95276z" fill-rule="evenodd"/><path fill="#efefef" d="m308.30536 159.83153q-1.125 0 -1.734375 -0.953125q-0.59375 -0.96875 -0.109375 -2.046875l11.234375 -26.84375q0.609375 -1.390625 1.9687805 -1.390625q1.4375 0 1.953125 1.390625l11.28125 26.921875q0.4375 1.125 -0.140625 2.03125q-0.578125 0.890625 -1.734375 0.890625q-0.609375 0 -1.15625 -0.34375q-0.53125 -0.34375 -0.765625 -0.9375l-9.921875 -24.640625l1.125 0l-10.0781555 24.640625q-0.28125 0.640625 -0.828125 0.96875q-0.546875 0.3125 -1.09375 0.3125zm2.109375 -6.875l1.609375 -3.4375l15.6719055 0l1.609375 3.4375l-18.890656 0z" fill-rule="nonzero"/><path fill="#cd5c5c" d="m467.30203 250.75417l91.90549 0l0 34.45668l-91.90549 0z" fill-rule="evenodd"/><path stroke="#cd5c5c" stroke-width="1.0" stroke-linejoin="round" stroke-linecap="butt" d="m467.30203 250.75417l91.90549 0l0 34.45668l-91.90549 0z" fill-rule="evenodd"/><path fill="#29465b" d="m399.32565 268.94315l0 0c0 -25.379013 20.573761 -45.95276 45.95276 -45.95276l0 0c12.187439 0 23.875702 4.8414307 32.4935 13.459244c8.617828 8.617813 13.459259 20.306076 13.459259 32.493515l0 0c0 25.378998 -20.573761 45.95276 -45.95276 45.95276l0 0c-25.378998 0 -45.95276 -20.573761 -45.95276 -45.95276z" fill-rule="evenodd"/><path stroke="#29465b" stroke-width="1.0" stroke-linejoin="round" stroke-linecap="butt" d="m399.32565 268.94315l0 0c0 -25.379013 20.573761 -45.95276 45.95276 -45.95276l0 0c12.187439 0 23.875702 4.8414307 32.4935 13.459244c8.617828 8.617813 13.459259 20.306076 13.459259 32.493515l0 0c0 25.378998 -20.573761 45.95276 -45.95276 45.95276l0 0c-25.378998 0 -45.95276 -20.573761 -45.95276 -45.95276z" fill-rule="evenodd"/><path fill="#efefef" d="m433.98404 283.34314q-1.125 0 -1.734375 -0.953125q-0.59375 -0.96875 -0.109375 -2.046875l11.234375 -26.84375q0.609375 -1.390625 1.96875 -1.390625q1.4375 0 1.953125 1.390625l11.28125 26.921875q0.4375 1.125 -0.140625 2.03125q-0.578125 0.890625 -1.734375 0.890625q-0.609375 0 -1.15625 -0.34375q-0.53125 -0.34375 -0.765625 -0.9375l-9.921875 -24.640625l1.125 0l-10.078125 24.640625q-0.28125 0.640625 -0.828125 0.96875q-0.546875 0.3125 -1.09375 0.3125zm2.109375 -6.875l1.609375 -3.4375l15.671875 0l1.609375 3.4375l-18.890625 0z" fill-rule="nonzero"/><path fill="#36454f" d="m540.75085 268.94315l0 0c0 -25.379013 20.57373 -45.95276 45.95276 -45.95276l0 0c12.187439 0 23.875671 4.8414307 32.49347 13.459244c8.617859 8.617813 13.45929 20.306076 13.45929 32.493515l0 0c0 25.378998 -20.57373 45.95276 -45.95276 45.95276l0 0c-25.379028 0 -45.95276 -20.573761 -45.95276 -45.95276z" fill-rule="evenodd"/><path stroke="#36454f" stroke-width="1.0" stroke-linejoin="round" stroke-linecap="butt" d="m540.75085 268.94315l0 0c0 -25.379013 20.57373 -45.95276 45.95276 -45.95276l0 0c12.187439 0 23.875671 4.8414307 32.49347 13.459244c8.617859 8.617813 13.45929 20.306076 13.45929 32.493515l0 0c0 25.378998 -20.57373 45.95276 -45.95276 45.95276l0 0c-25.379028 0 -45.95276 -20.573761 -45.95276 -45.95276z" fill-rule="evenodd"/><path fill="#efefef" d="m578.3218 283.34314q-0.875 0 -1.484375 -0.59375q-0.59375 -0.609375 -0.59375 -1.484375l0 -27.078125q0 -0.921875 0.59375 -1.5q0.609375 -0.578125 1.484375 -0.578125l9.5625 0q2.71875 0 4.78125 1.0625q2.0625 1.046875 3.234375 2.9375q1.1875 1.875 1.1875 4.3125q0 1.96875 -1.0625 3.546875q-1.0625 1.578125 -2.90625 2.5q2.640625 0.640625 4.234375 2.515625q1.609375 1.875 1.609375 4.921875q0 2.75 -1.296875 4.875q-1.296875 2.125 -3.625 3.34375q-2.3125 1.21875 -5.3125 1.21875l-10.40625 0zm2.078125 -3.84375l8.328125 0q1.828125 0 3.234375 -0.640625q1.40625 -0.640625 2.203125 -1.875q0.796875 -1.234375 0.796875 -3.078125q0 -1.71875 -0.796875 -2.84375q-0.796875 -1.125 -2.203125 -1.703125q-1.40625 -0.578125 -3.234375 -0.578125l-8.328125 0l0 10.71875zm0 -14.5625l7.484375 0q2.28125 0 3.734375 -1.109375q1.46875 -1.125 1.46875 -3.40625q0 -2.28125 -1.46875 -3.375q-1.453125 -1.109375 -3.734375 -1.109375l-7.484375 0l0 9.0z" fill-rule="nonzero"/><path fill="#cd5c5c" d="m533.21936 270.59143l0 91.90552l-34.456696 0l0 -91.90552z" fill-rule="evenodd"/><path stroke="#cd5c5c" stroke-width="1.0" stroke-linejoin="round" stroke-linecap="butt" d="m533.21936 270.59143l0 91.90552l-34.456696 0l0 -91.90552z" fill-rule="evenodd"/><path fill="#2b547e" d="m469.0795 355.10397l0 0c0 -25.378998 20.57373 -45.95276 45.95273 -45.95276l0 0c12.187439 0 23.875732 4.8414307 32.49353 13.459259c8.617798 8.617798 13.4592285 20.30606 13.4592285 32.4935l0 0c0 25.378998 -20.57373 45.95276 -45.95276 45.95276l0 0c-25.378998 0 -45.95273 -20.573761 -45.95273 -45.95276z" fill-rule="evenodd"/><path stroke="#2b547e" stroke-width="1.0" stroke-linejoin="round" stroke-linecap="butt" d="m469.0795 355.10397l0 0c0 -25.378998 20.57373 -45.95276 45.95273 -45.95276l0 0c12.187439 0 23.875732 4.8414307 32.49353 13.459259c8.617798 8.617798 13.4592285 20.30606 13.4592285 32.4935l0 0c0 25.378998 -20.57373 45.95276 -45.95276 45.95276l0 0c-25.378998 0 -45.95273 -20.573761 -45.95273 -45.95276z" fill-rule="evenodd"/><path fill="#efefef" d="m517.49225 369.91022q-3.234375 0 -6.0624695 -1.21875q-2.8125 -1.234375 -4.921875 -3.40625q-2.09375 -2.1875 -3.28125 -5.09375q-1.171875 -2.921875 -1.171875 -6.328125q0 -3.359375 1.171875 -6.25q1.1875 -2.90625 3.28125 -5.078125q2.109375 -2.1875 4.90625 -3.421875q2.7968445 -1.25 6.0780945 -1.25q3.078125 0 5.296875 0.796875q2.21875 0.796875 4.46875 2.640625q0.3125 0.25 0.484375 0.515625q0.1875 0.25 0.25 0.515625q0.0625 0.25 0.0625 0.609375q0 0.765625 -0.546875 1.265625q-0.53125 0.5 -1.296875 0.5625q-0.765625 0.046875 -1.484375 -0.5q-1.46875 -1.28125 -3.0625 -1.953125q-1.578125 -0.6875 -4.171875 -0.6875q-2.359375 0 -4.4375 0.96875q-2.0780945 0.953125 -3.6718445 2.640625q-1.578125 1.671875 -2.453125 3.890625q-0.875 2.21875 -0.875 4.734375q0 2.5625 0.875 4.78125q0.875 2.21875 2.453125 3.90625q1.59375 1.671875 3.6718445 2.609375q2.078125 0.9375 4.4375 0.9375q2.046875 0 3.859375 -0.6875q1.828125 -0.703125 3.5 -1.953125q0.71875 -0.515625 1.421875 -0.453125q0.703125 0.0625 1.171875 0.5625q0.484375 0.5 0.484375 1.375q0 0.40625 -0.15625 0.78125q-0.15625 0.375 -0.484375 0.703125q-2.15625 1.71875 -4.625 2.609375q-2.453125 0.875 -5.171875 0.875z" fill-rule="nonzero"/><path fill="#cd5c5c" d="m468.21277 163.88855l91.90552 0l0 -34.456696l-91.90552 0z" fill-rule="evenodd"/><path stroke="#cd5c5c" stroke-width="1.0" stroke-linejoin="round" stroke-linecap="butt" d="m468.21277 163.88855l91.90552 0l0 -34.456696l-91.90552 0z" fill-rule="evenodd"/><path fill="#36454f" d="m492.1419 145.69958l0 0c0 -25.379013 -20.573761 -45.952766 -45.95276 -45.952766l0 0c-12.187439 0 -23.875702 4.8414383 -32.4935 13.459251c-8.617828 8.617813 -13.459259 20.306076 -13.459259 32.493515l0 0c0 25.378998 20.573761 45.952744 45.95276 45.952744l0 0c25.378998 0 45.95276 -20.573746 45.95276 -45.952744z" fill-rule="evenodd"/><path stroke="#36454f" stroke-width="1.0" stroke-linejoin="round" stroke-linecap="butt" d="m492.1419 145.69958l0 0c0 -25.379013 -20.573761 -45.952766 -45.95276 -45.952766l0 0c-12.187439 0 -23.875702 4.8414383 -32.4935 13.459251c-8.617828 8.617813 -13.459259 20.306076 -13.459259 32.493515l0 0c0 25.378998 20.573761 45.952744 45.95276 45.952744l0 0c25.378998 0 45.95276 -20.573746 45.95276 -45.952744z" fill-rule="evenodd"/><path fill="#efefef" d="m437.80728 160.09958q-0.875 0 -1.484375 -0.59375q-0.59375 -0.609375 -0.59375 -1.484375l0 -27.078125q0 -0.921875 0.59375 -1.5q0.609375 -0.578125 1.484375 -0.578125l9.5625 0q2.71875 0 4.78125 1.0625q2.0625 1.046875 3.234375 2.9375q1.1875 1.875 1.1875 4.3125q0 1.96875 -1.0625 3.546875q-1.0625 1.578125 -2.90625 2.5q2.640625 0.640625 4.234375 2.515625q1.609375 1.875 1.609375 4.921875q0 2.75 -1.296875 4.875q-1.296875 2.125 -3.625 3.34375q-2.3125 1.21875 -5.3125 1.21875l-10.40625 0zm2.078125 -3.84375l8.328125 0q1.828125 0 3.234375 -0.640625q1.40625 -0.640625 2.203125 -1.875q0.796875 -1.234375 0.796875 -3.078125q0 -1.71875 -0.796875 -2.84375q-0.796875 -1.125 -2.203125 -1.703125q-1.40625 -0.578125 -3.234375 -0.578125l-8.328125 0l0 10.71875zm0 -14.5625l7.484375 0q2.28125 0 3.734375 -1.109375q1.46875 -1.125 1.46875 -3.40625q0 -2.28125 -1.46875 -3.375q-1.453125 -1.109375 -3.734375 -1.109375l-7.484375 0l0 9.0z" fill-rule="nonzero"/><path fill="#2b547e" d="m633.5671 145.69958l0 0c0 -25.379013 -20.57373 -45.952766 -45.95276 -45.952766l0 0c-12.187378 0 -23.875671 4.8414383 -32.49347 13.459251c-8.617798 8.617813 -13.45929 20.306076 -13.45929 32.493515l0 0c0 25.378998 20.573792 45.952744 45.95276 45.952744l0 0c25.379028 0 45.95276 -20.573746 45.95276 -45.952744z" fill-rule="evenodd"/><path stroke="#2b547e" stroke-width="1.0" stroke-linejoin="round" stroke-linecap="butt" d="m633.5671 145.69958l0 0c0 -25.379013 -20.57373 -45.952766 -45.95276 -45.952766l0 0c-12.187378 0 -23.875671 4.8414383 -32.49347 13.459251c-8.617798 8.617813 -13.45929 20.306076 -13.45929 32.493515l0 0c0 25.378998 20.573792 45.952744 45.95276 45.952744l0 0c25.379028 0 45.95276 -20.573746 45.95276 -45.952744z" fill-rule="evenodd"/><path fill="#efefef" d="m590.07434 160.50583q-3.234375 0 -6.0625 -1.21875q-2.8125 -1.234375 -4.921875 -3.40625q-2.09375 -2.1875 -3.28125 -5.09375q-1.171875 -2.921875 -1.171875 -6.328125q0 -3.359375 1.171875 -6.25q1.1875 -2.90625 3.28125 -5.078125q2.109375 -2.1875 4.90625 -3.421875q2.796875 -1.25 6.078125 -1.25q3.078125 0 5.296875 0.796875q2.21875 0.796875 4.46875 2.640625q0.3125 0.25 0.484375 0.515625q0.1875 0.25 0.25 0.515625q0.0625 0.25 0.0625 0.609375q0 0.765625 -0.546875 1.265625q-0.53125 0.5 -1.296875 0.5625q-0.765625 0.046875 -1.484375 -0.5q-1.46875 -1.28125 -3.0625 -1.953125q-1.578125 -0.6875 -4.171875 -0.6875q-2.359375 0 -4.4375 0.96875q-2.078125 0.953125 -3.671875 2.640625q-1.578125 1.671875 -2.453125 3.890625q-0.875 2.21875 -0.875 4.734375q0 2.5625 0.875 4.78125q0.875 2.21875 2.453125 3.90625q1.59375 1.671875 3.671875 2.609375q2.078125 0.9375 4.4375 0.9375q2.046875 0 3.859375 -0.6875q1.828125 -0.703125 3.5 -1.953125q0.71875 -0.515625 1.421875 -0.453125q0.703125 0.0625 1.171875 0.5625q0.484375 0.5 0.484375 1.375q0 0.40625 -0.15625 0.78125q-0.15625 0.375 -0.484375 0.703125q-2.15625 1.71875 -4.625 2.609375q-2.453125 0.875 -5.171875 0.875z" fill-rule="nonzero"/><path fill="#cd5c5c" d="m534.13007 144.05128l0 -91.90552l-34.456665 0l0 91.90552z" fill-rule="evenodd"/><path stroke="#cd5c5c" stroke-width="1.0" stroke-linejoin="round" stroke-linecap="butt" d="m534.13007 144.05128l0 -91.90552l-34.456665 0l0 91.90552z" fill-rule="evenodd"/><path fill="#29465b" d="m561.89575 59.538746l0 0c0 -25.379005 -20.573792 -45.952755 -45.95276 -45.952755l0 0c-12.187439 0 -23.875702 4.8414373 -32.4935 13.45925c-8.617828 8.617815 -13.459259 20.306078 -13.459259 32.493507l0 0c0 25.37901 20.57373 45.952755 45.95276 45.952755l0 0c25.378967 0 45.95276 -20.573746 45.95276 -45.952755z" fill-rule="evenodd"/><path stroke="#29465b" stroke-width="1.0" stroke-linejoin="round" stroke-linecap="butt" d="m561.89575 59.538746l0 0c0 -25.379005 -20.573792 -45.952755 -45.95276 -45.952755l0 0c-12.187439 0 -23.875702 4.8414373 -32.4935 13.45925c-8.617828 8.617815 -13.459259 20.306078 -13.459259 32.493507l0 0c0 25.37901 20.57373 45.952755 45.95276 45.952755l0 0c25.378967 0 45.95276 -20.573746 45.95276 -45.952755z" fill-rule="evenodd"/><path fill="#efefef" d="m504.64862 73.93874q-1.125 0 -1.734375 -0.953125q-0.59375 -0.96875 -0.109375 -2.046875l11.234375 -26.84375q0.609375 -1.390625 1.96875 -1.390625q1.4375 0 1.953125 1.390625l11.28125 26.921875q0.4375 1.125 -0.140625 2.03125q-0.578125 0.890625 -1.734375 0.890625q-0.609375 0 -1.15625 -0.34375q-0.53125 -0.34375 -0.765625 -0.9375l-9.921875 -24.640625l1.125 0l-10.078125 24.640625q-0.28125 0.640625 -0.828125 0.96875q-0.546875 0.3125 -1.09375 0.3125zm2.109375 -6.875l1.609375 -3.4375l15.671875 0l1.609375 3.4375l-18.890625 0z" fill-rule="nonzero"/><path fill="#cd5c5c" d="m717.5377 41.349964l91.90546 0l0 34.45669l-91.90546 0z" fill-rule="evenodd"/><path stroke="#cd5c5c" stroke-width="1.0" stroke-linejoin="round" stroke-linecap="butt" d="m717.5377 41.349964l91.90546 0l0 34.45669l-91.90546 0z" fill-rule="evenodd"/><path fill="#29465b" d="m649.56134 59.53894l0 0c0 -25.379005 20.57373 -45.952755 45.95276 -45.952755l0 0c12.187378 0 23.875671 4.8414364 32.49347 13.459251c8.617798 8.617813 13.45929 20.306076 13.45929 32.493504l0 0c0 25.379005 -20.573792 45.95276 -45.95276 45.95276l0 0c-25.379028 0 -45.95276 -20.573753 -45.95276 -45.95276z" fill-rule="evenodd"/><path stroke="#29465b" stroke-width="1.0" stroke-linejoin="round" stroke-linecap="butt" d="m649.56134 59.53894l0 0c0 -25.379005 20.57373 -45.952755 45.95276 -45.952755l0 0c12.187378 0 23.875671 4.8414364 32.49347 13.459251c8.617798 8.617813 13.45929 20.306076 13.45929 32.493504l0 0c0 25.379005 -20.573792 45.95276 -45.95276 45.95276l0 0c-25.379028 0 -45.95276 -20.573753 -45.95276 -45.95276z" fill-rule="evenodd"/><path fill="#efefef" d="m684.2197 73.938934q-1.125 0 -1.734375 -0.953125q-0.59375 -0.96875 -0.109375 -2.046875l11.234375 -26.843746q0.609375 -1.390625 1.96875 -1.390625q1.4375 0 1.953125 1.390625l11.28125 26.921871q0.4375 1.125 -0.140625 2.03125q-0.578125 0.890625 -1.734375 0.890625q-0.609375 0 -1.15625 -0.34375q-0.53125 -0.34375 -0.765625 -0.9375l-9.921875 -24.640621l1.125 0l-10.078125 24.640621q-0.28125 0.640625 -0.828125 0.96875q-0.546875 0.3125 -1.09375 0.3125zm2.109375 -6.875l1.609375 -3.4374962l15.671875 0l1.609375 3.4374962l-18.890625 0z" fill-rule="nonzero"/><path fill="#36454f" d="m790.9865 59.53894l0 0c0 -25.379005 20.57373 -45.952755 45.95276 -45.952755l0 0c12.187439 0 23.875671 4.8414364 32.49353 13.459251c8.617798 8.617813 13.4592285 20.306076 13.4592285 32.493504l0 0c0 25.379005 -20.57373 45.95276 -45.95276 45.95276l0 0c-25.379028 0 -45.95276 -20.573753 -45.95276 -45.95276z" fill-rule="evenodd"/><path stroke="#36454f" stroke-width="1.0" stroke-linejoin="round" stroke-linecap="butt" d="m790.9865 59.53894l0 0c0 -25.379005 20.57373 -45.952755 45.95276 -45.952755l0 0c12.187439 0 23.875671 4.8414364 32.49353 13.459251c8.617798 8.617813 13.4592285 20.306076 13.4592285 32.493504l0 0c0 25.379005 -20.57373 45.95276 -45.95276 45.95276l0 0c-25.379028 0 -45.95276 -20.573753 -45.95276 -45.95276z" fill-rule="evenodd"/><path fill="#efefef" d="m828.55743 73.938934q-0.875 0 -1.484375 -0.59375q-0.59375 -0.609375 -0.59375 -1.484375l0 -27.078121q0 -0.921875 0.59375 -1.5q0.609375 -0.578125 1.484375 -0.578125l9.5625 0q2.71875 0 4.78125 1.0625q2.0625 1.046875 3.234375 2.9375q1.1875 1.875 1.1875 4.3125q0 1.96875 -1.0625 3.546875q-1.0625 1.578125 -2.90625 2.5q2.640625 0.640625 4.234375 2.515625q1.609375 1.875 1.609375 4.921871q0 2.75 -1.296875 4.875q-1.296875 2.125 -3.625 3.34375q-2.3125 1.21875 -5.3125 1.21875l-10.40625 0zm2.078125 -3.84375l8.328125 0q1.828125 0 3.234375 -0.640625q1.40625 -0.640625 2.203125 -1.875q0.796875 -1.234375 0.796875 -3.078125q0 -1.7187462 -0.796875 -2.8437462q-0.796875 -1.125 -2.203125 -1.703125q-1.40625 -0.578125 -3.234375 -0.578125l-8.328125 0l0 10.718746zm0 -14.562496l7.484375 0q2.28125 0 3.734375 -1.109375q1.46875 -1.125 1.46875 -3.40625q0 -2.28125 -1.46875 -3.375q-1.453125 -1.109375 -3.734375 -1.109375l-7.484375 0l0 9.0z" fill-rule="nonzero"/><path fill="#cd5c5c" d="m783.45465 56.870914l0 208.22049l-34.456726 0l0 -208.22049z" fill-rule="evenodd"/><path stroke="#cd5c5c" stroke-width="1.0" stroke-linejoin="round" stroke-linecap="butt" d="m783.45465 56.870914l0 208.22049l-34.456726 0l0 -208.22049z" fill-rule="evenodd"/><path fill="#2b547e" d="m719.3152 268.9988l0 0c0 -25.378998 20.57373 -45.952744 45.952698 -45.952744l0 0c12.187439 0 23.875732 4.8414307 32.49353 13.459244c8.617798 8.617813 13.4592285 20.306091 13.4592285 32.4935l0 0c0 25.379028 -20.57373 45.95276 -45.95276 45.95276l0 0c-25.378967 0 -45.952698 -20.57373 -45.952698 -45.95276z" fill-rule="evenodd"/><path stroke="#2b547e" stroke-width="1.0" stroke-linejoin="round" stroke-linecap="butt" d="m719.3152 268.9988l0 0c0 -25.378998 20.57373 -45.952744 45.952698 -45.952744l0 0c12.187439 0 23.875732 4.8414307 32.49353 13.459244c8.617798 8.617813 13.4592285 20.306091 13.4592285 32.4935l0 0c0 25.379028 -20.57373 45.95276 -45.95276 45.95276l0 0c-25.378967 0 -45.952698 -20.57373 -45.952698 -45.95276z" fill-rule="evenodd"/><path fill="#efefef" d="m767.7279 283.80505q-3.234375 0 -6.0625 -1.21875q-2.8125 -1.234375 -4.921875 -3.40625q-2.09375 -2.1875 -3.28125 -5.09375q-1.171875 -2.921875 -1.171875 -6.328125q0 -3.359375 1.171875 -6.25q1.1875 -2.90625 3.28125 -5.078125q2.109375 -2.1874847 4.90625 -3.4218597q2.796875 -1.25 6.078125 -1.25q3.078125 0 5.296875 0.796875q2.21875 0.796875 4.46875 2.640625q0.3125 0.25 0.484375 0.515625q0.1875 0.25 0.25 0.51560974q0.0625 0.25 0.0625 0.609375q0 0.765625 -0.546875 1.265625q-0.53125 0.5 -1.296875 0.5625q-0.765625 0.046875 -1.484375 -0.5q-1.46875 -1.28125 -3.0625 -1.953125q-1.578125 -0.68748474 -4.171875 -0.68748474q-2.359375 0 -4.4375 0.96873474q-2.078125 0.953125 -3.671875 2.640625q-1.578125 1.671875 -2.453125 3.890625q-0.875 2.21875 -0.875 4.734375q0 2.5625 0.875 4.78125q0.875 2.21875 2.453125 3.90625q1.59375 1.671875 3.671875 2.609375q2.078125 0.9375 4.4375 0.9375q2.046875 0 3.859375 -0.6875q1.828125 -0.703125 3.5 -1.953125q0.71875 -0.515625 1.421875 -0.453125q0.703125 0.0625 1.171875 0.5625q0.484375 0.5 0.484375 1.375q0 0.40625 -0.15625 0.78125q-0.15625 0.375 -0.484375 0.703125q-2.15625 1.71875 -4.625 2.609375q-2.453125 0.875 -5.171875 0.875z" fill-rule="nonzero"/><path fill="#cd5c5c" d="m748.997 180.56332l91.90552 0l0 34.45668l-91.90552 0z" fill-rule="evenodd"/><path stroke="#cd5c5c" stroke-width="1.0" stroke-linejoin="round" stroke-linecap="butt" d="m748.997 180.56332l91.90552 0l0 34.45668l-91.90552 0z" fill-rule="evenodd"/><path fill="#2b3856" d="m822.4458 198.75229l0 0c0 -25.378998 20.573792 -45.952744 45.95276 -45.952744l0 0c12.187439 0 23.875732 4.8414307 32.49353 13.459244c8.617798 8.617813 13.4592285 20.306076 13.4592285 32.4935l0 0c0 25.379013 -20.57373 45.95276 -45.95276 45.95276l0 0c-25.378967 0 -45.95276 -20.573746 -45.95276 -45.95276z" fill-rule="evenodd"/><path stroke="#2b3856" stroke-width="1.0" stroke-linejoin="round" stroke-linecap="butt" d="m822.4458 198.75229l0 0c0 -25.378998 20.573792 -45.952744 45.95276 -45.952744l0 0c12.187439 0 23.875732 4.8414307 32.49353 13.459244c8.617798 8.617813 13.4592285 20.306076 13.4592285 32.4935l0 0c0 25.379013 -20.57373 45.95276 -45.95276 45.95276l0 0c-25.378967 0 -45.95276 -20.573746 -45.95276 -45.95276z" fill-rule="evenodd"/><path fill="#efefef" d="m858.8167 213.15228q-0.875 0 -1.484375 -0.59375q-0.59375 -0.609375 -0.59375 -1.484375l0 -27.078125q0 -0.921875 0.59375 -1.5q0.609375 -0.578125 1.484375 -0.578125l7.234375 0q3.453125 0 6.265625 1.140625q2.828125 1.140625 4.90625 3.234375q2.078125 2.09375 3.1875 4.9375q1.125 2.84375 1.125 6.28125q0 3.4375 -1.125 6.296875q-1.109375 2.859375 -3.1875 4.96875q-2.078125 2.09375 -4.90625 3.234375q-2.8125 1.140625 -6.265625 1.140625l-7.234375 0zm2.078125 -3.6875l5.15625 0q3.375 0 5.953125 -1.53125q2.578125 -1.546875 4.046875 -4.234375q1.484375 -2.703125 1.484375 -6.1875q0 -3.515625 -1.484375 -6.1875q-1.46875 -2.6875 -4.046875 -4.203125q-2.578125 -1.53125 -5.953125 -1.53125l-5.15625 0l0 23.875z" fill-rule="nonzero"/><path fill="#cd5c5c" d="m1019.30206 250.75417l91.90546 0l0 34.45668l-91.90546 0z" fill-rule="evenodd"/><path stroke="#cd5c5c" stroke-width="1.0" stroke-linejoin="round" stroke-linecap="butt" d="m1019.30206 250.75417l91.90546 0l0 34.45668l-91.90546 0z" fill-rule="evenodd"/><path fill="#2b547e" d="m951.3257 268.94315l0 0c0 -25.379013 20.57373 -45.95276 45.952698 -45.95276l0 0c12.187439 0 23.875732 4.8414307 32.49359 13.459244c8.617798 8.617813 13.4592285 20.306076 13.4592285 32.493515l0 0c0 25.378998 -20.573792 45.95276 -45.95282 45.95276l0 0c-25.378967 0 -45.952698 -20.573761 -45.952698 -45.95276z" fill-rule="evenodd"/><path stroke="#2b547e" stroke-width="1.0" stroke-linejoin="round" stroke-linecap="butt" d="m951.3257 268.94315l0 0c0 -25.379013 20.57373 -45.95276 45.952698 -45.95276l0 0c12.187439 0 23.875732 4.8414307 32.49359 13.459244c8.617798 8.617813 13.4592285 20.306076 13.4592285 32.493515l0 0c0 25.378998 -20.573792 45.95276 -45.95282 45.95276l0 0c-25.378967 0 -45.952698 -20.573761 -45.952698 -45.95276z" fill-rule="evenodd"/><path fill="#efefef" d="m999.7384 283.7494q-3.234375 0 -6.0625 -1.21875q-2.8125 -1.234375 -4.921875 -3.40625q-2.09375 -2.1875 -3.28125 -5.09375q-1.171875 -2.921875 -1.171875 -6.328125q0 -3.359375 1.171875 -6.25q1.1875 -2.90625 3.28125 -5.078125q2.109375 -2.1875 4.90625 -3.421875q2.796875 -1.25 6.078125 -1.25q3.078125 0 5.296875 0.796875q2.21875 0.796875 4.46875 2.640625q0.3125 0.25 0.484375 0.515625q0.1875 0.25 0.25 0.515625q0.0625 0.25 0.0625 0.609375q0 0.765625 -0.546875 1.265625q-0.53125 0.5 -1.296875 0.5625q-0.765625 0.046875 -1.484375 -0.5q-1.46875 -1.28125 -3.0625 -1.953125q-1.578125 -0.6875 -4.171875 -0.6875q-2.359375 0 -4.4375 0.96875q-2.078125 0.953125 -3.671875 2.640625q-1.578125 1.671875 -2.453125 3.890625q-0.875 2.21875 -0.875 4.734375q0 2.5625 0.875 4.78125q0.875 2.21875 2.453125 3.90625q1.59375 1.671875 3.671875 2.609375q2.078125 0.9375 4.4375 0.9375q2.046875 0 3.859375 -0.6875q1.828125 -0.703125 3.5 -1.953125q0.71875 -0.515625 1.421875 -0.453125q0.703125 0.0625 1.171875 0.5625q0.484375 0.5 0.484375 1.375q0 0.40625 -0.15625 0.78125q-0.15625 0.375 -0.484375 0.703125q-2.15625 1.71875 -4.625 2.609375q-2.453125 0.875 -5.171875 0.875z" fill-rule="nonzero"/><path fill="#2b3856" d="m1092.7509 268.94315l0 0c0 -25.379013 20.57373 -45.95276 45.95276 -45.95276l0 0c12.187378 0 23.875732 4.8414307 32.49353 13.459244c8.617798 8.617813 13.4592285 20.306076 13.4592285 32.493515l0 0c0 25.378998 -20.57373 45.95276 -45.95276 45.95276l0 0c-25.379028 0 -45.95276 -20.573761 -45.95276 -45.95276z" fill-rule="evenodd"/><path stroke="#2b3856" stroke-width="1.0" stroke-linejoin="round" stroke-linecap="butt" d="m1092.7509 268.94315l0 0c0 -25.379013 20.57373 -45.95276 45.95276 -45.95276l0 0c12.187378 0 23.875732 4.8414307 32.49353 13.459244c8.617798 8.617813 13.4592285 20.306076 13.4592285 32.493515l0 0c0 25.378998 -20.57373 45.95276 -45.95276 45.95276l0 0c-25.379028 0 -45.95276 -20.573761 -45.95276 -45.95276z" fill-rule="evenodd"/><path fill="#efefef" d="m1129.1217 283.34314q-0.875 0 -1.484375 -0.59375q-0.59375 -0.609375 -0.59375 -1.484375l0 -27.078125q0 -0.921875 0.59375 -1.5q0.609375 -0.578125 1.484375 -0.578125l7.234375 0q3.453125 0 6.265625 1.140625q2.828125 1.140625 4.90625 3.234375q2.078125 2.09375 3.1875 4.9375q1.125 2.84375 1.125 6.28125q0 3.4375 -1.125 6.296875q-1.109375 2.859375 -3.1875 4.96875q-2.078125 2.09375 -4.90625 3.234375q-2.8125 1.140625 -6.265625 1.140625l-7.234375 0zm2.078125 -3.6875l5.15625 0q3.375 0 5.953125 -1.53125q2.578125 -1.546875 4.046875 -4.234375q1.484375 -2.703125 1.484375 -6.1875q0 -3.515625 -1.484375 -6.1875q-1.46875 -2.6875 -4.046875 -4.203125q-2.578125 -1.53125 -5.953125 -1.53125l-5.15625 0l0 23.875z" fill-rule="nonzero"/><path fill="#cd5c5c" d="m1020.21277 163.88855l91.90552 0l0 -34.456696l-91.90552 0z" fill-rule="evenodd"/><path stroke="#cd5c5c" stroke-width="1.0" stroke-linejoin="round" stroke-linecap="butt" d="m1020.21277 163.88855l91.90552 0l0 -34.456696l-91.90552 0z" fill-rule="evenodd"/><path fill="#29465b" d="m1044.1418 145.69958l0 0c0 -25.379013 -20.57367 -45.952766 -45.952698 -45.952766l0 0c-12.187439 0 -23.875671 4.8414383 -32.49353 13.459251c-8.617798 8.617813 -13.4592285 20.306076 -13.4592285 32.493515l0 0c0 25.378998 20.57373 45.952744 45.95276 45.952744l0 0c25.379028 0 45.952698 -20.573746 45.952698 -45.952744z" fill-rule="evenodd"/><path stroke="#29465b" stroke-width="1.0" stroke-linejoin="round" stroke-linecap="butt" d="m1044.1418 145.69958l0 0c0 -25.379013 -20.57367 -45.952766 -45.952698 -45.952766l0 0c-12.187439 0 -23.875671 4.8414383 -32.49353 13.459251c-8.617798 8.617813 -13.4592285 20.306076 -13.4592285 32.493515l0 0c0 25.378998 20.57373 45.952744 45.95276 45.952744l0 0c25.379028 0 45.952698 -20.573746 45.952698 -45.952744z" fill-rule="evenodd"/><path fill="#efefef" d="m986.8948 160.09958q-1.125 0 -1.734375 -0.953125q-0.59375 -0.96875 -0.109375 -2.046875l11.234375 -26.84375q0.609375 -1.390625 1.96875 -1.390625q1.4375 0 1.953125 1.390625l11.28125 26.921875q0.4375 1.125 -0.140625 2.03125q-0.578125 0.890625 -1.734375 0.890625q-0.609375 0 -1.15625 -0.34375q-0.53125 -0.34375 -0.765625 -0.9375l-9.921875 -24.640625l1.125 0l-10.078125 24.640625q-0.28125 0.640625 -0.828125 0.96875q-0.546875 0.3125 -1.09375 0.3125zm2.109375 -6.875l1.609375 -3.4375l15.671875 0l1.609375 3.4375l-18.890625 0z" fill-rule="nonzero"/><path fill="#36454f" d="m1185.5671 145.69958l0 0c0 -25.379013 -20.57373 -45.952766 -45.95276 -45.952766l0 0c-12.1875 0 -23.875732 4.8414383 -32.49353 13.459251c-8.617798 8.617813 -13.4592285 20.306076 -13.4592285 32.493515l0 0c0 25.378998 20.57373 45.952744 45.95276 45.952744l0 0c25.379028 0 45.95276 -20.573746 45.95276 -45.952744z" fill-rule="evenodd"/><path stroke="#36454f" stroke-width="1.0" stroke-linejoin="round" stroke-linecap="butt" d="m1185.5671 145.69958l0 0c0 -25.379013 -20.57373 -45.952766 -45.95276 -45.952766l0 0c-12.1875 0 -23.875732 4.8414383 -32.49353 13.459251c-8.617798 8.617813 -13.4592285 20.306076 -13.4592285 32.493515l0 0c0 25.378998 20.57373 45.952744 45.95276 45.952744l0 0c25.379028 0 45.95276 -20.573746 45.95276 -45.952744z" fill-rule="evenodd"/><path fill="#efefef" d="m1131.2324 160.09958q-0.875 0 -1.484375 -0.59375q-0.59375 -0.609375 -0.59375 -1.484375l0 -27.078125q0 -0.921875 0.59375 -1.5q0.609375 -0.578125 1.484375 -0.578125l9.562622 0q2.71875 0 4.78125 1.0625q2.0625 1.046875 3.234375 2.9375q1.1875 1.875 1.1875 4.3125q0 1.96875 -1.0625 3.546875q-1.0625 1.578125 -2.90625 2.5q2.640625 0.640625 4.234375 2.515625q1.609375 1.875 1.609375 4.921875q0 2.75 -1.296875 4.875q-1.296875 2.125 -3.625 3.34375q-2.3125 1.21875 -5.3125 1.21875l-10.406372 0zm2.078125 -3.84375l8.328247 0q1.828125 0 3.234375 -0.640625q1.40625 -0.640625 2.203125 -1.875q0.796875 -1.234375 0.796875 -3.078125q0 -1.71875 -0.796875 -2.84375q-0.796875 -1.125 -2.203125 -1.703125q-1.40625 -0.578125 -3.234375 -0.578125l-8.328247 0l0 10.71875zm0 -14.5625l7.484497 0q2.28125 0 3.734375 -1.109375q1.46875 -1.125 1.46875 -3.40625q0 -2.28125 -1.46875 -3.375q-1.453125 -1.109375 -3.734375 -1.109375l-7.484497 0l0 9.0z" fill-rule="nonzero"/><path fill="#cd5c5c" d="m1085.2205 129.43208l0 152.44093l-34.456665 0l0 -152.44093z" fill-rule="evenodd"/><path stroke="#cd5c5c" stroke-width="1.0" stroke-linejoin="round" stroke-linecap="butt" d="m1085.2205 129.43208l0 152.44093l-34.456665 0l0 -152.44093z" fill-rule="evenodd"/><path fill="#000000" fill-opacity="0.0" d="m294.7066 308.6795l45.95276 0l0 48.472443l-45.95276 0z" fill-rule="evenodd"/><path fill="#0b5394" d="m312.80035 340.7195l-0.0625 -1.5625q-0.375 0.40625 -0.796875 0.734375q-0.40625 0.328125 -0.90625 0.578125q-0.484375 0.25 -1.0625 0.375q-0.578125 0.140625 -1.265625 0.140625q-0.921875 0 -1.609375 -0.265625q-0.6875 -0.265625 -1.15625 -0.75q-0.46875 -0.484375 -0.71875 -1.15625q-0.234375 -0.6875 -0.234375 -1.5q0 -0.84375 0.359375 -1.5625q0.359375 -0.71875 1.078125 -1.234375q0.734375 -0.515625 1.828125 -0.796875q1.109375 -0.296875 2.578125 -0.296875l1.5625 0l0 -0.71875q0 -0.453125 -0.140625 -0.828125q-0.125 -0.375 -0.40625 -0.625q-0.28125 -0.265625 -0.75 -0.40625q-0.453125 -0.140625 -1.125 -0.140625q-1.046875 0 -2.078125 0.25q-1.015625 0.234375 -1.984375 0.671875l0 -2.28125q0.859375 -0.34375 1.96875 -0.5625q1.125 -0.234375 2.328125 -0.234375q1.328125 0 2.28125 0.265625q0.953125 0.25 1.5625 0.75q0.609375 0.5 0.90625 1.265625q0.296875 0.75 0.296875 1.75l0 8.140625l-2.453125 0zm-0.40625 -5.265625l-1.75 0q-0.71875 0 -1.234375 0.140625q-0.5 0.140625 -0.8125 0.390625q-0.3125 0.25 -0.46875 0.578125q-0.140625 0.3125 -0.140625 0.671875q0 0.734375 0.46875 1.109375q0.46875 0.375 1.28125 0.375q0.59375 0 1.234375 -0.421875q0.640625 -0.4375 1.421875 -1.25l0 -1.59375zm16.851562 -0.90625q0 1.640625 -0.46875 2.84375q-0.453125 1.1875 -1.28125 1.984375q-0.828125 0.796875 -1.953125 1.1875q-1.125 0.375 -2.453125 0.375q-1.296875 0 -2.421875 -0.203125q-1.109375 -0.1875 -2.140625 -0.515625l0 -16.0625l2.859375 0l0 3.890625l-0.109375 2.34375q0.640625 -0.828125 1.5 -1.328125q0.859375 -0.515625 2.078125 -0.515625q1.046875 0 1.859375 0.421875q0.828125 0.421875 1.375 1.203125q0.5625 0.78125 0.859375 1.890625q0.296875 1.109375 0.296875 2.484375zm-3.0 0.125q0 -0.984375 -0.140625 -1.671875q-0.140625 -0.703125 -0.40625 -1.140625q-0.265625 -0.453125 -0.65625 -0.65625q-0.375 -0.203125 -0.859375 -0.203125q-0.734375 0 -1.390625 0.59375q-0.65625 0.578125 -1.40625 1.59375l0 5.203125q0.34375 0.125 0.84375 0.203125q0.5 0.078125 1.015625 0.078125q0.671875 0 1.234375 -0.28125q0.5625 -0.28125 0.953125 -0.796875q0.390625 -0.515625 0.59375 -1.25q0.21875 -0.75 0.21875 -1.671875z" fill-rule="nonzero"/><path fill="#000000" fill-opacity="0.0" d="m471.06546 398.06125l91.90549 0l0 48.472443l-91.90549 0z" fill-rule="evenodd"/><path fill="#0b5394" d="m499.72134 430.10126l-0.0625 -1.5625q-0.375 0.40625 -0.796875 0.734375q-0.40625 0.328125 -0.90625 0.578125q-0.484375 0.25 -1.0625 0.375q-0.578125 0.140625 -1.265625 0.140625q-0.921875 0 -1.609375 -0.265625q-0.6875 -0.265625 -1.15625 -0.75q-0.46875 -0.484375 -0.71875 -1.15625q-0.234375 -0.6875 -0.234375 -1.5q0 -0.84375 0.359375 -1.5625q0.359375 -0.71875 1.078125 -1.234375q0.734375 -0.515625 1.828125 -0.796875q1.109375 -0.296875 2.578125 -0.296875l1.5625 0l0 -0.71875q0 -0.453125 -0.140625 -0.828125q-0.125 -0.375 -0.40625 -0.625q-0.28125 -0.265625 -0.75 -0.40625q-0.453125 -0.140625 -1.125 -0.140625q-1.046875 0 -2.078125 0.25q-1.015625 0.234375 -1.984375 0.671875l0 -2.28125q0.859375 -0.34375 1.96875 -0.5625q1.125 -0.234375 2.328125 -0.234375q1.328125 0 2.28125 0.265625q0.953125 0.25 1.5625 0.75q0.609375 0.5 0.90625 1.265625q0.296875 0.75 0.296875 1.75l0 8.140625l-2.453125 0zm-0.40625 -5.265625l-1.75 0q-0.71875 0 -1.234375 0.140625q-0.5 0.140625 -0.8125 0.390625q-0.3125 0.25 -0.46875 0.578125q-0.140625 0.3125 -0.140625 0.671875q0 0.734375 0.46875 1.109375q0.46875 0.375 1.28125 0.375q0.59375 0 1.234375 -0.421875q0.640625 -0.4375 1.421875 -1.25l0 -1.59375zm16.851532 -0.90625q0 1.640625 -0.46875 2.84375q-0.453125 1.1875 -1.28125 1.984375q-0.828125 0.796875 -1.953125 1.1875q-1.1249695 0.375 -2.4530945 0.375q-1.296875 0 -2.421875 -0.203125q-1.109375 -0.1875 -2.140625 -0.515625l0 -16.0625l2.859375 0l0 3.890625l-0.109375 2.34375q0.640625 -0.828125 1.5 -1.328125q0.859375 -0.515625 2.078125 -0.515625q1.0468445 0 1.8593445 0.421875q0.828125 0.421875 1.375 1.203125q0.5625 0.78125 0.859375 1.890625q0.296875 1.109375 0.296875 2.484375zm-3.0 0.125q0 -0.984375 -0.140625 -1.671875q-0.140625 -0.703125 -0.40625 -1.140625q-0.265625 -0.453125 -0.6562195 -0.65625q-0.375 -0.203125 -0.859375 -0.203125q-0.734375 0 -1.390625 0.59375q-0.65625 0.578125 -1.40625 1.59375l0 5.203125q0.34375 0.125 0.84375 0.203125q0.5 0.078125 1.015625 0.078125q0.671875 0 1.234375 -0.28125q0.5625 -0.28125 0.9530945 -0.796875q0.390625 -0.515625 0.59375 -1.25q0.21875 -0.75 0.21875 -1.671875zm15.1171875 5.59375q-0.84375 0.328125 -1.75 0.5q-0.90625 0.171875 -1.890625 0.171875q-1.40625 0 -2.53125 -0.390625q-1.125 -0.390625 -1.921875 -1.15625q-0.78125 -0.765625 -1.203125 -1.890625q-0.40625 -1.125 -0.40625 -2.59375q0 -1.4375 0.453125 -2.59375q0.453125 -1.15625 1.265625 -1.96875q0.828125 -0.828125 1.96875 -1.265625q1.15625 -0.453125 2.578125 -0.453125q1.15625 0 1.953125 0.125q0.796875 0.125 1.421875 0.3125l0 2.765625q-0.71875 -0.359375 -1.578125 -0.546875q-0.84375 -0.203125 -1.609375 -0.203125q-0.796875 0 -1.4375 0.265625q-0.625 0.265625 -1.0625 0.75q-0.421875 0.484375 -0.65625 1.171875q-0.234375 0.671875 -0.234375 1.5q0 0.859375 0.25 1.546875q0.25 0.671875 0.703125 1.140625q0.453125 0.46875 1.078125 0.734375q0.640625 0.25 1.40625 0.25q0.375 0 0.78125 -0.046875q0.421875 -0.0625 0.84375 -0.15625q0.421875 -0.109375 0.8125 -0.234375q0.40625 -0.125 0.765625 -0.28125l0 2.546875zm3.7109375 0.453125l0 -2.546875l3.90625 0l0 -9.84375l-3.40625 1.875l-0.9375 -2.328125l4.875 -2.5625l2.390625 0l0 12.859375l3.375 0l0 2.546875l-10.203125 0z" fill-rule="nonzero"/><path fill="#000000" fill-opacity="0.0" d="m471.06546 164.14636l91.90549 0l0 48.472443l-91.90549 0z" fill-rule="evenodd"/><path fill="#0b5394" d="m499.72134 196.18636l-0.0625 -1.5625q-0.375 0.40625 -0.796875 0.734375q-0.40625 0.328125 -0.90625 0.578125q-0.484375 0.25 -1.0625 0.375q-0.578125 0.140625 -1.265625 0.140625q-0.921875 0 -1.609375 -0.265625q-0.6875 -0.265625 -1.15625 -0.75q-0.46875 -0.484375 -0.71875 -1.15625q-0.234375 -0.6875 -0.234375 -1.5q0 -0.84375 0.359375 -1.5625q0.359375 -0.71875 1.078125 -1.234375q0.734375 -0.515625 1.828125 -0.796875q1.109375 -0.296875 2.578125 -0.296875l1.5625 0l0 -0.71875q0 -0.453125 -0.140625 -0.828125q-0.125 -0.375 -0.40625 -0.625q-0.28125 -0.265625 -0.75 -0.40625q-0.453125 -0.140625 -1.125 -0.140625q-1.046875 0 -2.078125 0.25q-1.015625 0.234375 -1.984375 0.671875l0 -2.28125q0.859375 -0.34375 1.96875 -0.5625q1.125 -0.234375 2.328125 -0.234375q1.328125 0 2.28125 0.265625q0.953125 0.25 1.5625 0.75q0.609375 0.5 0.90625 1.265625q0.296875 0.75 0.296875 1.75l0 8.140625l-2.453125 0zm-0.40625 -5.265625l-1.75 0q-0.71875 0 -1.234375 0.140625q-0.5 0.140625 -0.8125 0.390625q-0.3125 0.25 -0.46875 0.578125q-0.140625 0.3125 -0.140625 0.671875q0 0.734375 0.46875 1.109375q0.46875 0.375 1.28125 0.375q0.59375 0 1.234375 -0.421875q0.640625 -0.4375 1.421875 -1.25l0 -1.59375zm16.851532 -0.90625q0 1.640625 -0.46875 2.84375q-0.453125 1.1875 -1.28125 1.984375q-0.828125 0.796875 -1.953125 1.1875q-1.1249695 0.375 -2.4530945 0.375q-1.296875 0 -2.421875 -0.203125q-1.109375 -0.1875 -2.140625 -0.515625l0 -16.0625l2.859375 0l0 3.890625l-0.109375 2.34375q0.640625 -0.828125 1.5 -1.328125q0.859375 -0.515625 2.078125 -0.515625q1.0468445 0 1.8593445 0.421875q0.828125 0.421875 1.375 1.203125q0.5625 0.78125 0.859375 1.890625q0.296875 1.109375 0.296875 2.484375zm-3.0 0.125q0 -0.984375 -0.140625 -1.671875q-0.140625 -0.703125 -0.40625 -1.140625q-0.265625 -0.453125 -0.6562195 -0.65625q-0.375 -0.203125 -0.859375 -0.203125q-0.734375 0 -1.390625 0.59375q-0.65625 0.578125 -1.40625 1.59375l0 5.203125q0.34375 0.125 0.84375 0.203125q0.5 0.078125 1.015625 0.078125q0.671875 0 1.234375 -0.28125q0.5625 -0.28125 0.9530945 -0.796875q0.390625 -0.515625 0.59375 -1.25q0.21875 -0.75 0.21875 -1.671875zm15.1171875 5.59375q-0.84375 0.328125 -1.75 0.5q-0.90625 0.171875 -1.890625 0.171875q-1.40625 0 -2.53125 -0.390625q-1.125 -0.390625 -1.921875 -1.15625q-0.78125 -0.765625 -1.203125 -1.890625q-0.40625 -1.125 -0.40625 -2.59375q0 -1.4375 0.453125 -2.59375q0.453125 -1.15625 1.265625 -1.96875q0.828125 -0.828125 1.96875 -1.265625q1.15625 -0.453125 2.578125 -0.453125q1.15625 0 1.953125 0.125q0.796875 0.125 1.421875 0.3125l0 2.765625q-0.71875 -0.359375 -1.578125 -0.546875q-0.84375 -0.203125 -1.609375 -0.203125q-0.796875 0 -1.4375 0.265625q-0.625 0.265625 -1.0625 0.75q-0.421875 0.484375 -0.65625 1.171875q-0.234375 0.671875 -0.234375 1.5q0 0.859375 0.25 1.546875q0.25 0.671875 0.703125 1.140625q0.453125 0.46875 1.078125 0.734375q0.640625 0.25 1.40625 0.25q0.375 0 0.78125 -0.046875q0.421875 -0.0625 0.84375 -0.15625q0.421875 -0.109375 0.8125 -0.234375q0.40625 -0.125 0.765625 -0.28125l0 2.546875zm3.4453125 0.453125l0 -2.109375l3.625 -3.625q1.015625 -1.015625 1.625 -1.75q0.625 -0.75 0.953125 -1.328125q0.328125 -0.578125 0.4375 -1.0625q0.109375 -0.5 0.109375 -1.03125q0 -0.421875 -0.140625 -0.8125q-0.140625 -0.40625 -0.421875 -0.6875q-0.265625 -0.28125 -0.671875 -0.453125q-0.40625 -0.171875 -0.9375 -0.171875q-0.90625 0 -1.6875 0.390625q-0.765625 0.390625 -1.453125 1.046875l-1.515625 -1.9375q1.0 -0.9375 2.25 -1.484375q1.25 -0.5625 2.703125 -0.5625q1.125 0 2.03125 0.296875q0.921875 0.28125 1.5625 0.84375q0.65625 0.5625 1.015625 1.40625q0.359375 0.84375 0.359375 1.9375q0 0.921875 -0.25 1.71875q-0.25 0.78125 -0.71875 1.53125q-0.46875 0.75 -1.15625 1.5q-0.671875 0.75 -1.5625 1.578125l-2.21875 2.125l6.453125 0l0 2.640625l-10.390625 0z" fill-rule="nonzero"/><path fill="#000000" fill-opacity="0.0" d="m719.3148 316.67917l91.90546 0l0 48.472443l-91.90546 0z" fill-rule="evenodd"/><path fill="#0b5394" d="m741.37305 348.71918l-0.0625 -1.5625q-0.375 0.40625 -0.796875 0.734375q-0.40625 0.328125 -0.90625 0.578125q-0.484375 0.25 -1.0625 0.375q-0.578125 0.140625 -1.265625 0.140625q-0.921875 0 -1.609375 -0.265625q-0.6875 -0.265625 -1.15625 -0.75q-0.46875 -0.484375 -0.71875 -1.15625q-0.234375 -0.6875 -0.234375 -1.5q0 -0.84375 0.359375 -1.5625q0.359375 -0.71875 1.078125 -1.234375q0.734375 -0.515625 1.828125 -0.796875q1.109375 -0.296875 2.578125 -0.296875l1.5625 0l0 -0.71875q0 -0.453125 -0.140625 -0.828125q-0.125 -0.375 -0.40625 -0.625q-0.28125 -0.265625 -0.75 -0.40625q-0.453125 -0.140625 -1.125 -0.140625q-1.046875 0 -2.078125 0.25q-1.015625 0.234375 -1.984375 0.671875l0 -2.28125q0.859375 -0.34375 1.96875 -0.5625q1.125 -0.234375 2.328125 -0.234375q1.328125 0 2.28125 0.265625q0.953125 0.25 1.5625 0.75q0.609375 0.5 0.90625 1.265625q0.296875 0.75 0.296875 1.75l0 8.140625l-2.453125 0zm-0.40625 -5.265625l-1.75 0q-0.71875 0 -1.234375 0.140625q-0.5 0.140625 -0.8125 0.390625q-0.3125 0.25 -0.46875 0.578125q-0.140625 0.3125 -0.140625 0.671875q0 0.734375 0.46875 1.109375q0.46875 0.375 1.28125 0.375q0.59375 0 1.234375 -0.421875q0.640625 -0.4375 1.421875 -1.25l0 -1.59375zm16.851562 -0.90625q0 1.640625 -0.46875 2.84375q-0.453125 1.1875 -1.28125 1.984375q-0.828125 0.796875 -1.953125 1.1875q-1.125 0.375 -2.453125 0.375q-1.296875 0 -2.421875 -0.203125q-1.109375 -0.1875 -2.140625 -0.515625l0 -16.0625l2.859375 0l0 3.890625l-0.109375 2.34375q0.640625 -0.828125 1.5 -1.328125q0.859375 -0.515625 2.078125 -0.515625q1.046875 0 1.859375 0.421875q0.828125 0.421875 1.375 1.203125q0.5625 0.78125 0.859375 1.890625q0.296875 1.109375 0.296875 2.484375zm-3.0 0.125q0 -0.984375 -0.140625 -1.671875q-0.140625 -0.703125 -0.40625 -1.140625q-0.265625 -0.453125 -0.65625 -0.65625q-0.375 -0.203125 -0.859375 -0.203125q-0.734375 0 -1.390625 0.59375q-0.65625 0.578125 -1.40625 1.59375l0 5.203125q0.34375 0.125 0.84375 0.203125q0.5 0.078125 1.015625 0.078125q0.671875 0 1.234375 -0.28125q0.5625 -0.28125 0.953125 -0.796875q0.390625 -0.515625 0.59375 -1.25q0.21875 -0.75 0.21875 -1.671875zm15.1171875 5.59375q-0.84375 0.328125 -1.75 0.5q-0.90625 0.171875 -1.890625 0.171875q-1.40625 0 -2.53125 -0.390625q-1.125 -0.390625 -1.921875 -1.15625q-0.78125 -0.765625 -1.203125 -1.890625q-0.40625 -1.125 -0.40625 -2.59375q0 -1.4375 0.453125 -2.59375q0.453125 -1.15625 1.265625 -1.96875q0.828125 -0.828125 1.96875 -1.265625q1.15625 -0.453125 2.578125 -0.453125q1.15625 0 1.953125 0.125q0.796875 0.125 1.421875 0.3125l0 2.765625q-0.71875 -0.359375 -1.578125 -0.546875q-0.84375 -0.203125 -1.609375 -0.203125q-0.796875 0 -1.4375 0.265625q-0.625 0.265625 -1.0625 0.75q-0.421875 0.484375 -0.65625 1.171875q-0.234375 0.671875 -0.234375 1.5q0 0.859375 0.25 1.546875q0.25 0.671875 0.703125 1.140625q0.453125 0.46875 1.078125 0.734375q0.640625 0.25 1.40625 0.25q0.375 0 0.78125 -0.046875q0.421875 -0.0625 0.84375 -0.15625q0.421875 -0.109375 0.8125 -0.234375q0.40625 -0.125 0.765625 -0.28125l0 2.546875zm11.0546875 0.453125l-0.078125 -1.765625q-0.375 0.46875 -0.78125 0.84375q-0.390625 0.375 -0.84375 0.640625q-0.453125 0.25 -0.984375 0.390625q-0.515625 0.15625 -1.15625 0.15625q-1.046875 0 -1.875 -0.421875q-0.8125 -0.421875 -1.375 -1.203125q-0.546875 -0.78125 -0.84375 -1.890625q-0.296875 -1.109375 -0.296875 -2.484375q0 -1.640625 0.453125 -2.84375q0.46875 -1.203125 1.28125 -1.984375q0.828125 -0.796875 1.953125 -1.171875q1.125 -0.390625 2.453125 -0.390625q0.453125 0 0.890625 0.0625q0.453125 0.0625 0.8125 0.15625l0 -4.65625l2.859375 0l0 16.5625l-2.46875 0zm-5.234375 -5.859375q0 0.984375 0.125 1.6875q0.140625 0.6875 0.40625 1.140625q0.265625 0.4375 0.65625 0.640625q0.390625 0.203125 0.875 0.203125q0.734375 0 1.390625 -0.578125q0.65625 -0.59375 1.390625 -1.609375l0 -5.203125q-0.34375 -0.125 -0.84375 -0.203125q-0.5 -0.09375 -1.0 -0.09375q-0.6875 0 -1.25 0.28125q-0.546875 0.28125 -0.9375 0.796875q-0.390625 0.515625 -0.609375 1.265625q-0.203125 0.75 -0.203125 1.671875zm11.0859375 5.859375l0 -2.546875l3.90625 0l0 -9.84375l-3.40625 1.875l-0.9375 -2.328125l4.875 -2.5625l2.390625 0l0 12.859375l3.375 0l0 2.546875l-10.203125 0z" fill-rule="nonzero"/><path fill="#000000" fill-opacity="0.0" d="m1022.0392 308.67917l91.90552 0l0 48.472443l-91.90552 0z" fill-rule="evenodd"/><path fill="#0b5394" d="m1044.0974 340.71918l-0.0625 -1.5625q-0.375 0.40625 -0.796875 0.734375q-0.40625 0.328125 -0.90625 0.578125q-0.484375 0.25 -1.0625 0.375q-0.578125 0.140625 -1.265625 0.140625q-0.921875 0 -1.609375 -0.265625q-0.6875 -0.265625 -1.15625 -0.75q-0.46875 -0.484375 -0.71875 -1.15625q-0.234375 -0.6875 -0.234375 -1.5q0 -0.84375 0.359375 -1.5625q0.359375 -0.71875 1.078125 -1.234375q0.734375 -0.515625 1.828125 -0.796875q1.109375 -0.296875 2.578125 -0.296875l1.5625 0l0 -0.71875q0 -0.453125 -0.140625 -0.828125q-0.125 -0.375 -0.40625 -0.625q-0.28125 -0.265625 -0.75 -0.40625q-0.453125 -0.140625 -1.125 -0.140625q-1.046875 0 -2.078125 0.25q-1.015625 0.234375 -1.984375 0.671875l0 -2.28125q0.859375 -0.34375 1.96875 -0.5625q1.125 -0.234375 2.328125 -0.234375q1.328125 0 2.28125 0.265625q0.953125 0.25 1.5625 0.75q0.609375 0.5 0.90625 1.265625q0.296875 0.75 0.296875 1.75l0 8.140625l-2.453125 0zm-0.40625 -5.265625l-1.75 0q-0.71875 0 -1.234375 0.140625q-0.5 0.140625 -0.8125 0.390625q-0.3125 0.25 -0.46875 0.578125q-0.140625 0.3125 -0.140625 0.671875q0 0.734375 0.46875 1.109375q0.46875 0.375 1.28125 0.375q0.59375 0 1.234375 -0.421875q0.640625 -0.4375 1.421875 -1.25l0 -1.59375zm16.851562 -0.90625q0 1.640625 -0.46875 2.84375q-0.453125 1.1875 -1.28125 1.984375q-0.828125 0.796875 -1.953125 1.1875q-1.125 0.375 -2.453125 0.375q-1.296875 0 -2.421875 -0.203125q-1.109375 -0.1875 -2.140625 -0.515625l0 -16.0625l2.859375 0l0 3.890625l-0.109375 2.34375q0.640625 -0.828125 1.5 -1.328125q0.859375 -0.515625 2.078125 -0.515625q1.046875 0 1.859375 0.421875q0.828125 0.421875 1.375 1.203125q0.5625 0.78125 0.859375 1.890625q0.296875 1.109375 0.296875 2.484375zm-3.0 0.125q0 -0.984375 -0.140625 -1.671875q-0.140625 -0.703125 -0.40625 -1.140625q-0.265625 -0.453125 -0.65625 -0.65625q-0.375 -0.203125 -0.859375 -0.203125q-0.734375 0 -1.390625 0.59375q-0.65625 0.578125 -1.40625 1.59375l0 5.203125q0.34375 0.125 0.84375 0.203125q0.5 0.078125 1.015625 0.078125q0.671875 0 1.234375 -0.28125q0.5625 -0.28125 0.953125 -0.796875q0.390625 -0.515625 0.59375 -1.25q0.21875 -0.75 0.21875 -1.671875zm15.1171875 5.59375q-0.84375 0.328125 -1.75 0.5q-0.90625 0.171875 -1.890625 0.171875q-1.40625 0 -2.53125 -0.390625q-1.125 -0.390625 -1.921875 -1.15625q-0.78125 -0.765625 -1.203125 -1.890625q-0.40625 -1.125 -0.40625 -2.59375q0 -1.4375 0.453125 -2.59375q0.453125 -1.15625 1.265625 -1.96875q0.828125 -0.828125 1.96875 -1.265625q1.15625 -0.453125 2.578125 -0.453125q1.15625 0 1.953125 0.125q0.796875 0.125 1.421875 0.3125l0 2.765625q-0.71875 -0.359375 -1.578125 -0.546875q-0.84375 -0.203125 -1.609375 -0.203125q-0.796875 0 -1.4375 0.265625q-0.625 0.265625 -1.0625 0.75q-0.421875 0.484375 -0.65625 1.171875q-0.234375 0.671875 -0.234375 1.5q0 0.859375 0.25 1.546875q0.25 0.671875 0.703125 1.140625q0.453125 0.46875 1.078125 0.734375q0.640625 0.25 1.40625 0.25q0.375 0 0.78125 -0.046875q0.421875 -0.0625 0.84375 -0.15625q0.421875 -0.109375 0.8125 -0.234375q0.40625 -0.125 0.765625 -0.28125l0 2.546875zm11.0546875 0.453125l-0.078125 -1.765625q-0.375 0.46875 -0.78125 0.84375q-0.390625 0.375 -0.84375 0.640625q-0.453125 0.25 -0.984375 0.390625q-0.515625 0.15625 -1.15625 0.15625q-1.046875 0 -1.875 -0.421875q-0.8125 -0.421875 -1.375 -1.203125q-0.546875 -0.78125 -0.84375 -1.890625q-0.296875 -1.109375 -0.296875 -2.484375q0 -1.640625 0.453125 -2.84375q0.46875 -1.203125 1.28125 -1.984375q0.828125 -0.796875 1.953125 -1.171875q1.125 -0.390625 2.453125 -0.390625q0.453125 0 0.890625 0.0625q0.453125 0.0625 0.8125 0.15625l0 -4.65625l2.859375 0l0 16.5625l-2.46875 0zm-5.234375 -5.859375q0 0.984375 0.125 1.6875q0.140625 0.6875 0.40625 1.140625q0.265625 0.4375 0.65625 0.640625q0.390625 0.203125 0.875 0.203125q0.734375 0 1.390625 -0.578125q0.65625 -0.59375 1.390625 -1.609375l0 -5.203125q-0.34375 -0.125 -0.84375 -0.203125q-0.5 -0.09375 -1.0 -0.09375q-0.6875 0 -1.25 0.28125q-0.546875 0.28125 -0.9375 0.796875q-0.390625 0.515625 -0.609375 1.265625q-0.203125 0.75 -0.203125 1.671875zm10.8203125 5.859375l0 -2.109375l3.625 -3.625q1.015625 -1.015625 1.625 -1.75q0.625 -0.75 0.953125 -1.328125q0.328125 -0.578125 0.4375 -1.0625q0.109375 -0.5 0.109375 -1.03125q0 -0.421875 -0.140625 -0.8125q-0.140625 -0.40625 -0.421875 -0.6875q-0.265625 -0.28125 -0.671875 -0.453125q-0.40625 -0.171875 -0.9375 -0.171875q-0.90625 0 -1.6875 0.390625q-0.765625 0.390625 -1.453125 1.046875l-1.515625 -1.9375q1.0 -0.9375 2.25 -1.484375q1.25 -0.5625 2.703125 -0.5625q1.125 0 2.03125 0.296875q0.921875 0.28125 1.5625 0.84375q0.65625 0.5625 1.015625 1.40625q0.359375 0.84375 0.359375 1.9375q0 0.921875 -0.25 1.71875q-0.25 0.78125 -0.71875 1.53125q-0.46875 0.75 -1.15625 1.5q-0.671875 0.75 -1.5625 1.578125l-2.21875 2.125l6.453125 0l0 2.640625l-10.390625 0z" fill-rule="nonzero"/><path fill="#000000" fill-opacity="0.0" d="m295.85358 184.28937l45.95276 0l0 42.015762l-45.95276 0z" fill-rule="evenodd"/><path fill="#000000" d="m315.09192 211.20937l0 -1.984375l3.03125 0l0 -7.640625l-2.640625 1.453125l-0.734375 -1.8125l3.78125 -2.0l1.875 0l0 10.0l2.609375 0l0 1.984375l-7.921875 0z" fill-rule="nonzero"/><path fill="#000000" fill-opacity="0.0" d="m315.34232 227.71457l45.95276 0l0 42.015747l-45.95276 0z" fill-rule="evenodd"/><path fill="#efefef" d="m334.36194 254.63457l0 -1.640625l2.8125 -2.8125q0.796875 -0.796875 1.265625 -1.359375q0.484375 -0.578125 0.75 -1.03125q0.265625 -0.453125 0.34375 -0.828125q0.078125 -0.390625 0.078125 -0.796875q0 -0.34375 -0.109375 -0.640625q-0.109375 -0.3125 -0.328125 -0.53125q-0.203125 -0.21875 -0.53125 -0.34375q-0.3125 -0.140625 -0.71875 -0.140625q-0.703125 0 -1.3125 0.3125q-0.59375 0.296875 -1.125 0.796875l-1.171875 -1.5q0.765625 -0.71875 1.734375 -1.15625q0.96875 -0.4375 2.109375 -0.4375q0.875 0 1.578125 0.234375q0.71875 0.21875 1.21875 0.65625q0.5 0.4375 0.78125 1.09375q0.28125 0.65625 0.28125 1.5q0 0.71875 -0.203125 1.34375q-0.1875 0.609375 -0.546875 1.1875q-0.359375 0.578125 -0.890625 1.171875q-0.53125 0.578125 -1.21875 1.21875l-1.734375 1.65625l5.015625 0l0 2.046875l-8.078125 0z" fill-rule="nonzero"/><path fill="#000000" fill-opacity="0.0" d="m317.59766 107.71457l45.95276 0l0 42.015747l-45.95276 0z" fill-rule="evenodd"/><path fill="#efefef" d="m336.836 134.63457l0 -1.984375l3.03125 0l0 -7.640625l-2.640625 1.453125l-0.734375 -1.8125l3.78125 -2.0l1.875 0l0 10.0l2.609375 0l0 1.984375l-7.921875 0z" fill-rule="nonzero"/><path fill="#000000" fill-opacity="0.0" d="m493.01498 247.93185l45.95279 0l0 42.015747l-45.95279 0z" fill-rule="evenodd"/><path fill="#000000" d="m512.25336 274.85187l0 -1.984375l3.03125 0l0 -7.640625l-2.640625 1.453125l-0.734375 -1.8125l3.78125 -2.0l1.875 0l0 10.0l2.609375 0l0 1.984375l-7.921875 0z" fill-rule="nonzero"/><path fill="#000000" fill-opacity="0.0" d="m493.97244 124.10207l45.95273 0l0 42.015755l-45.95273 0z" fill-rule="evenodd"/><path fill="#000000" d="m513.2108 151.02208l0 -1.984375l3.03125 0l0 -7.640625l-2.640625 1.453125l-0.734375 -1.8125l3.78125 -2.0l1.875 0l0 10.0l2.609375 0l0 1.984375l-7.921875 0z" fill-rule="nonzero"/><path fill="#000000" fill-opacity="0.0" d="m493.97244 98.18718l45.95273 0l0 42.015747l-45.95273 0z" fill-rule="evenodd"/><path fill="#000000" d="m512.99207 125.10718l0 -1.640625l2.8125 -2.8125q0.796875 -0.796875 1.265625 -1.359375q0.484375 -0.578125 0.75 -1.03125q0.265625 -0.453125 0.34375 -0.828125q0.078125 -0.390625 0.078125 -0.796875q0 -0.34375 -0.109375 -0.640625q-0.109375 -0.3125 -0.328125 -0.53125q-0.203125 -0.21875 -0.53125 -0.34375q-0.3125 -0.140625 -0.71875 -0.140625q-0.703125 0 -1.3125 0.3125q-0.59375 0.296875 -1.125 0.796875l-1.171875 -1.5q0.765625 -0.71875 1.734375 -1.15625q0.96875 -0.4375 2.109375 -0.4375q0.875 0 1.578125 0.234375q0.71875 0.21875 1.21875 0.65625q0.5 0.4375 0.78125 1.09375q0.28125 0.65625 0.28125 1.5q0 0.71875 -0.203125 1.34375q-0.1875 0.609375 -0.546875 1.1875q-0.359375 0.578125 -0.890625 1.171875q-0.53125 0.578125 -1.21875 1.21875l-1.734375 1.65625l5.015625 0l0 2.046875l-8.078125 0z" fill-rule="nonzero"/><path fill="#000000" fill-opacity="0.0" d="m492.05756 274.1872l45.95276 0l0 42.015747l-45.95276 0z" fill-rule="evenodd"/><path fill="#000000" d="m511.07715 301.10718l0 -1.640625l2.8125 -2.8125q0.796875 -0.796875 1.265625 -1.359375q0.484375 -0.578125 0.75 -1.03125q0.265625 -0.453125 0.34375 -0.828125q0.078125 -0.390625 0.078125 -0.796875q0 -0.34375 -0.109375 -0.640625q-0.109375 -0.3125 -0.328125 -0.53125q-0.203125 -0.21875 -0.53125 -0.34375q-0.3125 -0.140625 -0.71875 -0.140625q-0.703125 0 -1.3125 0.3125q-0.59375 0.296875 -1.125 0.796875l-1.171875 -1.5q0.765625 -0.71875 1.734375 -1.15625q0.96875 -0.4375 2.109375 -0.4375q0.875 0 1.578125 0.234375q0.71875 0.21875 1.21875 0.65625q0.5 0.4375 0.78125 1.09375q0.28125 0.65625 0.28125 1.5q0 0.71875 -0.203125 1.34375q-0.1875 0.609375 -0.546875 1.1875q-0.359375 0.578125 -0.890625 1.171875q-0.53125 0.578125 -1.21875 1.21875l-1.734375 1.65625l5.015625 0l0 2.046875l-8.078125 0z" fill-rule="nonzero"/><path fill="#000000" fill-opacity="0.0" d="m438.57553 229.39305l45.95276 0l0 42.01573l-45.95276 0z" fill-rule="evenodd"/><path fill="#efefef" d="m457.81387 256.31305l0 -1.984375l3.03125 0l0 -7.640625l-2.640625 1.453125l-0.734375 -1.8125l3.78125 -2.0l1.875 0l0 10.0l2.609375 0l0 1.984375l-7.921875 0z" fill-rule="nonzero"/><path fill="#000000" fill-opacity="0.0" d="m445.59766 107.71457l45.95276 0l0 42.015747l-45.95276 0z" fill-rule="evenodd"/><path fill="#efefef" d="m464.61725 134.63457l0 -1.640625l2.8125 -2.8125q0.796875 -0.796875 1.265625 -1.359375q0.484375 -0.578125 0.75 -1.03125q0.265625 -0.453125 0.34375 -0.828125q0.078125 -0.390625 0.078125 -0.796875q0 -0.34375 -0.109375 -0.640625q-0.109375 -0.3125 -0.328125 -0.53125q-0.203125 -0.21875 -0.53125 -0.34375q-0.3125 -0.140625 -0.71875 -0.140625q-0.703125 0 -1.3125 0.3125q-0.59375 0.296875 -1.125 0.796875l-1.171875 -1.5q0.765625 -0.71875 1.734375 -1.15625q0.96875 -0.4375 2.109375 -0.4375q0.875 0 1.578125 0.234375q0.71875 0.21875 1.21875 0.65625q0.5 0.4375 0.78125 1.09375q0.28125 0.65625 0.28125 1.5q0 0.71875 -0.203125 1.34375q-0.1875 0.609375 -0.546875 1.1875q-0.359375 0.578125 -0.890625 1.171875q-0.53125 0.578125 -1.21875 1.21875l-1.734375 1.65625l5.015625 0l0 2.046875l-8.078125 0z" fill-rule="nonzero"/><path fill="#000000" fill-opacity="0.0" d="m584.47 227.71457l45.95276 0l0 42.015747l-45.95276 0z" fill-rule="evenodd"/><path fill="#efefef" d="m603.48956 254.63457l0 -1.640625l2.8125 -2.8125q0.796875 -0.796875 1.265625 -1.359375q0.484375 -0.578125 0.75 -1.03125q0.265625 -0.453125 0.34375 -0.828125q0.078125 -0.390625 0.078125 -0.796875q0 -0.34375 -0.109375 -0.640625q-0.109375 -0.3125 -0.328125 -0.53125q-0.203125 -0.21875 -0.53125 -0.34375q-0.3125 -0.140625 -0.71875 -0.140625q-0.703125 0 -1.3125 0.3125q-0.59375 0.296875 -1.125 0.796875l-1.171875 -1.5q0.765625 -0.71875 1.734375 -1.15625q0.96875 -0.4375 2.109375 -0.4375q0.875 0 1.578125 0.234375q0.71875 0.21875 1.21875 0.65625q0.5 0.4375 0.78125 1.09375q0.28125 0.65625 0.28125 1.5q0 0.71875 -0.203125 1.34375q-0.1875 0.609375 -0.546875 1.1875q-0.359375 0.578125 -0.890625 1.171875q-0.53125 0.578125 -1.21875 1.21875l-1.734375 1.65625l5.015625 0l0 2.046875l-8.078125 0z" fill-rule="nonzero"/><path fill="#000000" fill-opacity="0.0" d="m510.57553 19.13773l45.95273 0l0 42.015747l-45.95273 0z" fill-rule="evenodd"/><path fill="#efefef" d="m529.8139 46.057728l0 -1.984375l3.03125 0l0 -7.640625l-2.640625 1.453125l-0.734375 -1.8125l3.78125 -2.0l1.875 0l0 10.0l2.609375 0l0 1.984375l-7.921875 0z" fill-rule="nonzero"/><path fill="#000000" fill-opacity="0.0" d="m590.5755 107.13773l45.95276 0l0 42.01574l-45.95276 0z" fill-rule="evenodd"/><path fill="#efefef" d="m617.72015 130.4171q0 0.890625 -0.328125 1.59375q-0.328125 0.703125 -1.015625 1.203125q-0.671875 0.5 -1.703125 0.765625q-1.03125 0.265625 -2.421875 0.265625q-0.3125 0 -0.65625 -0.015625q-0.34375 -0.015625 -0.6875 -0.046875q-0.328125 -0.015625 -0.65625 -0.046875q-0.3125 -0.03125 -0.5625 -0.078125l0 -1.9375q0.578125 0.109375 1.28125 0.1875q0.71875 0.0625 1.5 0.0625q0.75 0 1.296875 -0.125q0.546875 -0.125 0.90625 -0.359375q0.359375 -0.25 0.515625 -0.609375q0.171875 -0.359375 0.171875 -0.796875q0 -0.390625 -0.171875 -0.703125q-0.171875 -0.328125 -0.53125 -0.546875q-0.34375 -0.234375 -0.90625 -0.34375q-0.546875 -0.125 -1.296875 -0.125l-1.328125 0l0 -1.7031174l1.21875 0q0.703125 0 1.171875 -0.140625q0.46875 -0.140625 0.75 -0.375q0.28125 -0.234375 0.390625 -0.5625q0.125 -0.328125 0.125 -0.671875q0 -0.734375 -0.484375 -1.109375q-0.46875 -0.375 -1.453125 -0.375q-0.71875 0 -1.40625 0.140625q-0.6875 0.125 -1.4375 0.359375l0 -1.875q0.421875 -0.125 0.78125 -0.21875q0.375 -0.09375 0.75 -0.15625q0.375 -0.0625 0.75 -0.09375q0.390625 -0.03125 0.8125 -0.03125q0.96875 0 1.703125 0.21875q0.75 0.203125 1.25 0.59375q0.515625 0.390625 0.765625 0.953125q0.265625 0.546875 0.265625 1.21875q0 1.09375 -0.5 1.765625q-0.5 0.65625 -1.390625 1.015625q0.578125 0.09375 1.03125 0.32811737q0.46875 0.21875 0.796875 0.578125q0.34375 0.34375 0.515625 0.796875q0.1875 0.453125 0.1875 1.0z" fill-rule="nonzero"/><path fill="#000000" fill-opacity="0.0" d="m515.7032 315.13773l45.95276 0l0 42.015747l-45.95276 0z" fill-rule="evenodd"/><path fill="#efefef" d="m542.8478 338.4171q0 0.890625 -0.328125 1.59375q-0.328125 0.703125 -1.015625 1.203125q-0.671875 0.5 -1.703125 0.765625q-1.03125 0.265625 -2.421875 0.265625q-0.3125 0 -0.65625 -0.015625q-0.34375 -0.015625 -0.6875 -0.046875q-0.328125 -0.015625 -0.65625 -0.046875q-0.3125 -0.03125 -0.5625 -0.078125l0 -1.9375q0.578125 0.109375 1.28125 0.1875q0.71875 0.0625 1.5 0.0625q0.75 0 1.296875 -0.125q0.546875 -0.125 0.90625 -0.359375q0.359375 -0.25 0.515625 -0.609375q0.171875 -0.359375 0.171875 -0.796875q0 -0.390625 -0.171875 -0.703125q-0.171875 -0.328125 -0.53125 -0.546875q-0.34375 -0.234375 -0.90625 -0.34375q-0.546875 -0.125 -1.296875 -0.125l-1.328125 0l0 -1.703125l1.21875 0q0.703125 0 1.171875 -0.140625q0.46875 -0.140625 0.75 -0.375q0.28125 -0.234375 0.390625 -0.5625q0.125 -0.328125 0.125 -0.671875q0 -0.734375 -0.484375 -1.109375q-0.46875 -0.375 -1.453125 -0.375q-0.71875 0 -1.40625 0.140625q-0.6875 0.125 -1.4375 0.359375l0 -1.875q0.421875 -0.125 0.78125 -0.21875q0.375 -0.09375 0.75 -0.15625q0.375 -0.0625 0.75 -0.09375q0.390625 -0.03125 0.8125 -0.03125q0.96875 0 1.703125 0.21875q0.75 0.203125 1.25 0.59375q0.515625 0.390625 0.765625 0.953125q0.265625 0.546875 0.265625 1.21875q0 1.09375 -0.5 1.765625q-0.5 0.65625 -1.390625 1.015625q0.578125 0.09375 1.03125 0.328125q0.46875 0.21875 0.796875 0.578125q0.34375 0.34375 0.515625 0.796875q0.1875 0.453125 0.1875 1.0z" fill-rule="nonzero"/><path fill="#000000" fill-opacity="0.0" d="m743.8873 37.05952l45.95276 0l0 42.01575l-45.95276 0z" fill-rule="evenodd"/><path fill="#000000" d="m763.1257 63.97952l0 -1.984375l3.03125 0l0 -7.640625l-2.640625 1.453125l-0.734375 -1.8125l3.78125 -2.0l1.875 0l0 10.0l2.609375 0l0 1.984375l-7.921875 0z" fill-rule="nonzero"/><path fill="#000000" fill-opacity="0.0" d="m744.2278 124.4425l45.95276 0l0 42.015755l-45.95276 0z" fill-rule="evenodd"/><path fill="#000000" d="m763.2474 151.3625l0 -1.640625l2.8125 -2.8125q0.796875 -0.796875 1.265625 -1.359375q0.484375 -0.578125 0.75 -1.03125q0.265625 -0.453125 0.34375 -0.828125q0.078125 -0.390625 0.078125 -0.796875q0 -0.34375 -0.109375 -0.640625q-0.109375 -0.3125 -0.328125 -0.53125q-0.203125 -0.21875 -0.53125 -0.34375q-0.3125 -0.140625 -0.71875 -0.140625q-0.703125 0 -1.3125 0.3125q-0.59375 0.296875 -1.125 0.796875l-1.171875 -1.5q0.765625 -0.71875 1.734375 -1.15625q0.96875 -0.4375 2.109375 -0.4375q0.875 0 1.578125 0.234375q0.71875 0.21875 1.21875 0.65625q0.5 0.4375 0.78125 1.09375q0.28125 0.65625 0.28125 1.5q0 0.71875 -0.203125 1.34375q-0.1875 0.609375 -0.546875 1.1875q-0.359375 0.578125 -0.890625 1.171875q-0.53125 0.578125 -1.21875 1.21875l-1.734375 1.65625l5.015625 0l0 2.046875l-8.078125 0z" fill-rule="nonzero"/><path fill="#000000" fill-opacity="0.0" d="m776.2278 177.22974l45.95276 0l0 42.015747l-45.95276 0z" fill-rule="evenodd"/><path fill="#000000" d="m803.3724 200.50911q0 0.890625 -0.328125 1.59375q-0.328125 0.703125 -1.015625 1.203125q-0.671875 0.5 -1.703125 0.765625q-1.03125 0.265625 -2.421875 0.265625q-0.3125 0 -0.65625 -0.015625q-0.34375 -0.015625 -0.6875 -0.046875q-0.328125 -0.015625 -0.65625 -0.046875q-0.3125 -0.03125 -0.5625 -0.078125l0 -1.9375q0.578125 0.109375 1.28125 0.1875q0.71875 0.0625 1.5 0.0625q0.75 0 1.296875 -0.125q0.546875 -0.125 0.90625 -0.359375q0.359375 -0.25 0.515625 -0.609375q0.171875 -0.359375 0.171875 -0.796875q0 -0.390625 -0.171875 -0.703125q-0.171875 -0.328125 -0.53125 -0.546875q-0.34375 -0.234375 -0.90625 -0.34375q-0.546875 -0.125 -1.296875 -0.125l-1.328125 0l0 -1.703125l1.21875 0q0.703125 0 1.171875 -0.140625q0.46875 -0.140625 0.75 -0.375q0.28125 -0.234375 0.390625 -0.5625q0.125 -0.328125 0.125 -0.671875q0 -0.734375 -0.484375 -1.109375q-0.46875 -0.375 -1.453125 -0.375q-0.71875 0 -1.40625 0.140625q-0.6875 0.125 -1.4375 0.359375l0 -1.875q0.421875 -0.125 0.78125 -0.21875q0.375 -0.09375 0.75 -0.15625q0.375 -0.0625 0.75 -0.09375q0.390625 -0.03125 0.8125 -0.03125q0.96875 0 1.703125 0.21875q0.75 0.203125 1.25 0.59375q0.515625 0.390625 0.765625 0.953125q0.265625 0.546875 0.265625 1.21875q0 1.09375 -0.5 1.765625q-0.5 0.65625 -1.390625 1.015625q0.578125 0.09375 1.03125 0.328125q0.46875 0.21875 0.796875 0.578125q0.34375 0.34375 0.515625 0.796875q0.1875 0.453125 0.1875 1.0z" fill-rule="nonzero"/><path fill="#000000" fill-opacity="0.0" d="m688.4904 17.563263l45.95276 0l0 42.015747l-45.95276 0z" fill-rule="evenodd"/><path fill="#efefef" d="m707.72876 44.48326l0 -1.984375l3.03125 0l0 -7.640625l-2.640625 1.453125l-0.734375 -1.8125l3.78125 -2.0l1.875 0l0 10.0l2.609375 0l0 1.984375l-7.921875 0z" fill-rule="nonzero"/><path fill="#000000" fill-opacity="0.0" d="m834.7253 17.799679l45.95276 0l0 42.015747l-45.95276 0z" fill-rule="evenodd"/><path fill="#efefef" d="m853.74493 44.719677l0 -1.640625l2.8125 -2.8125q0.796875 -0.796875 1.265625 -1.359375q0.484375 -0.578125 0.75 -1.03125q0.265625 -0.453125 0.34375 -0.828125q0.078125 -0.390625 0.078125 -0.796875q0 -0.34375 -0.109375 -0.640625q-0.109375 -0.3125 -0.328125 -0.53125q-0.203125 -0.21875 -0.53125 -0.34375q-0.3125 -0.140625 -0.71875 -0.140625q-0.703125 0 -1.3125 0.3125q-0.59375 0.296875 -1.125 0.796875l-1.171875 -1.5q0.765625 -0.71875 1.734375 -1.15625q0.96875 -0.4375 2.109375 -0.4375q0.875 0 1.578125 0.234375q0.71875 0.21875 1.21875 0.65625q0.5 0.4375 0.78125 1.09375q0.28125 0.65625 0.28125 1.5q0 0.71875 -0.203125 1.34375q-0.1875 0.609375 -0.546875 1.1875q-0.359375 0.578125 -0.890625 1.171875q-0.53125 0.578125 -1.21875 1.21875l-1.734375 1.65625l5.015625 0l0 2.046875l-8.078125 0z" fill-rule="nonzero"/><path fill="#000000" fill-opacity="0.0" d="m764.6402 226.75713l45.95276 0l0 42.015762l-45.95276 0z" fill-rule="evenodd"/><path fill="#efefef" d="m791.7848 250.0365q0 0.890625 -0.328125 1.59375q-0.328125 0.703125 -1.015625 1.203125q-0.671875 0.5 -1.703125 0.765625q-1.03125 0.265625 -2.421875 0.265625q-0.3125 0 -0.65625 -0.015625q-0.34375 -0.015625 -0.6875 -0.046875q-0.328125 -0.015625 -0.65625 -0.046875q-0.3125 -0.03125 -0.5625 -0.078125l0 -1.9375q0.578125 0.109375 1.28125 0.1875q0.71875 0.0625 1.5 0.0625q0.75 0 1.296875 -0.125q0.546875 -0.125 0.90625 -0.359375q0.359375 -0.25 0.515625 -0.609375q0.171875 -0.359375 0.171875 -0.796875q0 -0.390625 -0.171875 -0.703125q-0.171875 -0.328125 -0.53125 -0.546875q-0.34375 -0.234375 -0.90625 -0.34375q-0.546875 -0.125 -1.296875 -0.125l-1.328125 0l0 -1.703125l1.21875 0q0.703125 0 1.171875 -0.140625q0.46875 -0.140625 0.75 -0.375q0.28125 -0.234375 0.390625 -0.5625q0.125 -0.328125 0.125 -0.671875q0 -0.734375 -0.484375 -1.109375q-0.46875 -0.375 -1.453125 -0.375q-0.71875 0 -1.40625 0.140625q-0.6875 0.125 -1.4375 0.359375l0 -1.875q0.421875 -0.125 0.78125 -0.21875q0.375 -0.09375 0.75 -0.15625q0.375 -0.0625 0.75 -0.09375q0.390625 -0.03125 0.8125 -0.03125q0.96875 0 1.703125 0.21875q0.75 0.203125 1.25 0.59375q0.515625 0.390625 0.765625 0.953125q0.265625 0.546875 0.265625 1.21875q0 1.09375 -0.5 1.765625q-0.5 0.65625 -1.390625 1.015625q0.578125 0.09375 1.03125 0.328125q0.46875 0.21875 0.796875 0.578125q0.34375 0.34375 0.515625 0.796875q0.1875 0.453125 0.1875 1.0z" fill-rule="nonzero"/><path fill="#000000" fill-opacity="0.0" d="m866.7253 159.54436l45.95276 0l0 42.015747l-45.95276 0z" fill-rule="evenodd"/><path fill="#efefef" d="m892.63556 184.04248l0 2.421875l-2.171875 0l0 -2.421875l-5.53125 0l0 -1.90625l4.640625 -7.578125l3.0625 0l0 7.53125l1.796875 0l0 1.953125l-1.796875 0zm-2.140625 -7.328125l-3.390625 5.375l3.390625 0l0 -5.375z" fill-rule="nonzero"/><path fill="#000000" fill-opacity="0.0" d="m992.4904 105.56326l45.95282 0l0 42.015747l-45.95282 0z" fill-rule="evenodd"/><path fill="#efefef" d="m1011.72876 132.48326l0 -1.984375l3.03125 0l0 -7.640625l-2.640625 1.453125l-0.734375 -1.8125l3.78125 -2.0l1.875 0l0 10.0l2.609375 0l0 1.984375l-7.921875 0z" fill-rule="nonzero"/><path fill="#000000" fill-opacity="0.0" d="m1138.7253 105.799675l45.95276 0l0 42.015755l-45.95276 0z" fill-rule="evenodd"/><path fill="#efefef" d="m1157.7449 132.71968l0 -1.640625l2.8125 -2.8125q0.796875 -0.7968826 1.265625 -1.3593826q0.484375 -0.578125 0.75 -1.03125q0.265625 -0.453125 0.34375 -0.828125q0.078125 -0.390625 0.078125 -0.796875q0 -0.34375 -0.109375 -0.640625q-0.109375 -0.3125 -0.328125 -0.53125q-0.203125 -0.21875 -0.53125 -0.34375q-0.3125 -0.140625 -0.71875 -0.140625q-0.703125 0 -1.3125 0.3125q-0.59375 0.296875 -1.125 0.796875l-1.171875 -1.5q0.765625 -0.71875 1.734375 -1.15625q0.96875 -0.4375 2.109375 -0.4375q0.875 0 1.578125 0.234375q0.71875 0.21875 1.21875 0.65625q0.5 0.4375 0.78125 1.09375q0.28125 0.65625 0.28125 1.5q0 0.71875 -0.203125 1.34375q-0.1875 0.609375 -0.546875 1.1875q-0.359375 0.578125 -0.890625 1.171875q-0.53125 0.5781326 -1.21875 1.2187576l-1.734375 1.65625l5.015625 0l0 2.046875l-8.078125 0z" fill-rule="nonzero"/><path fill="#000000" fill-opacity="0.0" d="m997.59766 226.75713l45.95276 0l0 42.015762l-45.95276 0z" fill-rule="evenodd"/><path fill="#efefef" d="m1024.7423 250.0365q0 0.890625 -0.328125 1.59375q-0.328125 0.703125 -1.015686 1.203125q-0.671875 0.5 -1.703125 0.765625q-1.03125 0.265625 -2.421875 0.265625q-0.3125 0 -0.65625 -0.015625q-0.34375 -0.015625 -0.6875 -0.046875q-0.328125 -0.015625 -0.65625 -0.046875q-0.3125 -0.03125 -0.5625 -0.078125l0 -1.9375q0.578125 0.109375 1.28125 0.1875q0.71875 0.0625 1.5 0.0625q0.75 0 1.296875 -0.125q0.546875 -0.125 0.90625 -0.359375q0.359375 -0.25 0.515625 -0.609375q0.171875 -0.359375 0.171875 -0.796875q0 -0.390625 -0.171875 -0.703125q-0.171875 -0.328125 -0.53125 -0.546875q-0.34375 -0.234375 -0.90625 -0.34375q-0.546875 -0.125 -1.296875 -0.125l-1.328125 0l0 -1.703125l1.21875 0q0.703125 0 1.171875 -0.140625q0.46875 -0.140625 0.75 -0.375q0.28125 -0.234375 0.390625 -0.5625q0.125 -0.328125 0.125 -0.671875q0 -0.734375 -0.484375 -1.109375q-0.46875 -0.375 -1.453125 -0.375q-0.71875 0 -1.40625 0.140625q-0.6875 0.125 -1.4375 0.359375l0 -1.875q0.421875 -0.125 0.78125 -0.21875q0.375 -0.09375 0.75 -0.15625q0.375 -0.0625 0.75 -0.09375q0.390625 -0.03125 0.8125 -0.03125q0.96875 0 1.703125 0.21875q0.75 0.203125 1.25 0.59375q0.515625 0.390625 0.765625 0.953125q0.26568604 0.546875 0.26568604 1.21875q0 1.09375 -0.50006104 1.765625q-0.5 0.65625 -1.390625 1.015625q0.578125 0.09375 1.03125 0.328125q0.46875 0.21875 0.79693604 0.578125q0.34375 0.34375 0.515625 0.796875q0.1875 0.453125 0.1875 1.0z" fill-rule="nonzero"/><path fill="#000000" fill-opacity="0.0" d="m1138.7253 231.54436l45.95276 0l0 42.015762l-45.95276 0z" fill-rule="evenodd"/><path fill="#efefef" d="m1164.6355 256.04248l0 2.421875l-2.171875 0l0 -2.421875l-5.53125 0l0 -1.90625l4.640625 -7.578125l3.0625 0l0 7.53125l1.796875 0l0 1.953125l-1.796875 0zm-2.140625 -7.328125l-3.390625 5.375l3.390625 0l0 -5.375z" fill-rule="nonzero"/><path fill="#000000" fill-opacity="0.0" d="m1045.015 125.059525l45.95276 0l0 42.015747l-45.95276 0z" fill-rule="evenodd"/><path fill="#000000" d="m1064.2533 151.97952l0 -1.984375l3.03125 0l0 -7.640625l-2.640625 1.453125l-0.734375 -1.8125l3.78125 -2.0l1.875 0l0 10.0l2.609375 0l0 1.984375l-7.921875 0z" fill-rule="nonzero"/><path fill="#000000" fill-opacity="0.0" d="m1045.015 244.4425l45.95276 0l0 42.015747l-45.95276 0z" fill-rule="evenodd"/><path fill="#000000" d="m1064.0345 271.3625l0 -1.640625l2.8125 -2.8125q0.796875 -0.796875 1.265625 -1.359375q0.484375 -0.578125 0.75 -1.03125q0.265625 -0.453125 0.34375 -0.828125q0.078125 -0.390625 0.078125 -0.796875q0 -0.34375 -0.109375 -0.640625q-0.109375 -0.3125 -0.328125 -0.53125q-0.203125 -0.21875 -0.53125 -0.34375q-0.3125 -0.140625 -0.71875 -0.140625q-0.703125 0 -1.3125 0.3125q-0.59375 0.296875 -1.125 0.796875l-1.171875 -1.5q0.765625 -0.71875 1.734375 -1.15625q0.96875 -0.4375 2.109375 -0.4375q0.875 0 1.578125 0.234375q0.71875 0.21875 1.21875 0.65625q0.5 0.4375 0.78125 1.09375q0.28125 0.65625 0.28125 1.5q0 0.71875 -0.203125 1.34375q-0.1875 0.609375 -0.546875 1.1875q-0.359375 0.578125 -0.890625 1.171875q-0.53125 0.578125 -1.21875 1.21875l-1.734375 1.65625l5.015625 0l0 2.046875l-8.078125 0z" fill-rule="nonzero"/><path fill="#000000" fill-opacity="0.0" d="m1045.015 184.2723l45.95276 0l0 42.015747l-45.95276 0z" fill-rule="evenodd"/><path fill="#000000" d="m1072.1595 207.55167q0 0.890625 -0.328125 1.59375q-0.328125 0.703125 -1.015625 1.203125q-0.671875 0.5 -1.703125 0.765625q-1.03125 0.265625 -2.421875 0.265625q-0.3125 0 -0.65625 -0.015625q-0.34375 -0.015625 -0.6875 -0.046875q-0.328125 -0.015625 -0.65625 -0.046875q-0.3125 -0.03125 -0.5625 -0.078125l0 -1.9375q0.578125 0.109375 1.28125 0.1875q0.71875 0.0625 1.5 0.0625q0.75 0 1.296875 -0.125q0.546875 -0.125 0.90625 -0.359375q0.359375 -0.25 0.515625 -0.609375q0.171875 -0.359375 0.171875 -0.796875q0 -0.390625 -0.171875 -0.703125q-0.171875 -0.328125 -0.53125 -0.546875q-0.34375 -0.234375 -0.90625 -0.34375q-0.546875 -0.125 -1.296875 -0.125l-1.328125 0l0 -1.703125l1.21875 0q0.703125 0 1.171875 -0.140625q0.46875 -0.140625 0.75 -0.375q0.28125 -0.234375 0.390625 -0.5625q0.125 -0.328125 0.125 -0.671875q0 -0.734375 -0.484375 -1.109375q-0.46875 -0.375 -1.453125 -0.375q-0.71875 0 -1.40625 0.140625q-0.6875 0.125 -1.4375 0.359375l0 -1.875q0.421875 -0.125 0.78125 -0.21875q0.375 -0.09375 0.75 -0.15625q0.375 -0.0625 0.75 -0.09375q0.390625 -0.03125 0.8125 -0.03125q0.96875 0 1.703125 0.21875q0.75 0.203125 1.25 0.59375q0.515625 0.390625 0.765625 0.953125q0.265625 0.546875 0.265625 1.21875q0 1.09375 -0.5 1.765625q-0.5 0.65625 -1.390625 1.015625q0.578125 0.09375 1.03125 0.328125q0.46875 0.21875 0.796875 0.578125q0.34375 0.34375 0.515625 0.796875q0.1875 0.453125 0.1875 1.0z" fill-rule="nonzero"/></g></svg>