<svg version="1.1" viewBox="0.0 0.0 1535.7716535433071 617.501312335958" fill="none" stroke="none" stroke-linecap="square" stroke-miterlimit="10" xmlns:xlink="http://www.w3.org/1999/xlink" xmlns="http://www.w3.org/2000/svg"><clipPath id="p.0"><path d="m0 0l1535.7716 0l0 617.50134l-1535.7716 0l0 -617.50134z" clip-rule="nonzero"/></clipPath><g clip-path="url(#p.0)"><path fill="#ffffff" d="m0 0l1535.7716 0l0 617.50134l-1535.7716 0z" fill-rule="evenodd"/><path fill="#c19a6b" d="m648.61285 366.97046l0 22.992126l-53.606262 0l0 -22.992126z" fill-rule="evenodd"/><path stroke="#c19a6b" stroke-width="1.0" stroke-linejoin="round" stroke-linecap="butt" d="m648.61285 366.97046l0 22.992126l-53.606262 0l0 -22.992126z" fill-rule="evenodd"/><path fill="#a0522d" d="m523.82544 366.97046l0 22.992126l-53.606293 0l0 -22.992126z" fill-rule="evenodd"/><path stroke="#a0522d" stroke-width="1.0" stroke-linejoin="round" stroke-linecap="butt" d="m523.82544 366.97046l0 22.992126l-53.606293 0l0 -22.992126z" fill-rule="evenodd"/><path fill="#c19a6b" d="m523.82544 470.70013l0 22.992126l-53.606293 0l0 -22.992126z" fill-rule="evenodd"/><path stroke="#c19a6b" stroke-width="1.0" stroke-linejoin="round" stroke-linecap="butt" d="m523.82544 470.70013l0 22.992126l-53.606293 0l0 -22.992126z" fill-rule="evenodd"/><path fill="#c19a6b" d="m648.61285 159.51115l0 22.992126l-53.606262 0l0 -22.992126z" fill-rule="evenodd"/><path stroke="#c19a6b" stroke-width="1.0" stroke-linejoin="round" stroke-linecap="butt" d="m648.61285 159.51115l0 22.992126l-53.606262 0l0 -22.992126z" fill-rule="evenodd"/><path fill="#2b3856" d="m230.84908 332.51376l244.15749 0l0 91.90552l-244.15749 0zm18.189026 18.189026l0 55.527466l207.77943 0l0 -55.527466z" fill-rule="evenodd"/><path stroke="#2b3856" stroke-width="1.0" stroke-linejoin="round" stroke-linecap="butt" d="m230.84908 332.51376l244.15749 0l0 91.90552l-244.15749 0zm18.189026 18.189026l0 55.527466l207.77943 0l0 -55.527466z" fill-rule="evenodd"/><path fill="#123456" d="m230.84908 436.24344l244.15749 0l0 91.90549l-244.15749 0zm18.189026 18.189026l0 55.527466l207.77943 0l0 -55.527466z" fill-rule="evenodd"/><path stroke="#123456" stroke-width="1.0" stroke-linejoin="round" stroke-linecap="butt" d="m230.84908 436.24344l244.15749 0l0 91.90549l-244.15749 0zm18.189026 18.189026l0 55.527466l207.77943 0l0 -55.527466z" fill-rule="evenodd"/><path fill="#a0522d" d="m510.0596 378.46652l0 0c0 -25.378998 20.573761 -45.95276 45.95279 -45.95276l0 0c12.187378 0 23.875671 4.841461 32.49347 13.459259c8.617859 8.617828 13.45929 20.306091 13.45929 32.4935l0 0c0 25.379028 -20.573792 45.95276 -45.95276 45.95276l0 0c-25.379028 0 -45.95279 -20.57373 -45.95279 -45.95276zm17.565887 0l0 0c0 15.677643 12.7092285 28.386871 28.386902 28.386871c15.677612 0 28.38684 -12.7092285 28.38684 -28.386871l0 0c0 -15.677612 -12.7092285 -28.38684 -28.38684 -28.38684l0 0c-15.677673 0 -28.386902 12.7092285 -28.386902 28.38684z" fill-rule="evenodd"/><path stroke="#a0522d" stroke-width="1.0" stroke-linejoin="round" stroke-linecap="butt" d="m510.0596 378.46652l0 0c0 -25.378998 20.573761 -45.95276 45.95279 -45.95276l0 0c12.187378 0 23.875671 4.841461 32.49347 13.459259c8.617859 8.617828 13.45929 20.306091 13.45929 32.4935l0 0c0 25.379028 -20.573792 45.95276 -45.95276 45.95276l0 0c-25.379028 0 -45.95279 -20.57373 -45.95279 -45.95276zm17.565887 0l0 0c0 15.677643 12.7092285 28.386871 28.386902 28.386871c15.677612 0 28.38684 -12.7092285 28.38684 -28.386871l0 0c0 -15.677612 -12.7092285 -28.38684 -28.38684 -28.38684l0 0c-15.677673 0 -28.386902 12.7092285 -28.386902 28.38684z" fill-rule="evenodd"/><path fill="#c19a6b" d="m510.0596 482.1962l0 0c0 -25.378998 20.573761 -45.95276 45.95279 -45.95276l0 0c12.187378 0 23.875671 4.8414307 32.49347 13.459259c8.617859 8.617798 13.45929 20.30606 13.45929 32.4935l0 0c0 25.378998 -20.573792 45.95273 -45.95276 45.95273l0 0c-25.379028 0 -45.95279 -20.57373 -45.95279 -45.95273zm17.565887 0l0 0c0 15.677612 12.7092285 28.38684 28.386902 28.38684c15.677612 0 28.38684 -12.7092285 28.38684 -28.38684l0 0c0 -15.677643 -12.7092285 -28.386871 -28.38684 -28.386871l0 0c-15.677673 0 -28.386902 12.7092285 -28.386902 28.386871z" fill-rule="evenodd"/><path stroke="#c19a6b" stroke-width="1.0" stroke-linejoin="round" stroke-linecap="butt" d="m510.0596 482.1962l0 0c0 -25.378998 20.573761 -45.95276 45.95279 -45.95276l0 0c12.187378 0 23.875671 4.8414307 32.49347 13.459259c8.617859 8.617798 13.45929 20.30606 13.45929 32.4935l0 0c0 25.378998 -20.573792 45.95273 -45.95276 45.95273l0 0c-25.379028 0 -45.95279 -20.57373 -45.95279 -45.95273zm17.565887 0l0 0c0 15.677612 12.7092285 28.38684 28.386902 28.38684c15.677612 0 28.38684 -12.7092285 28.38684 -28.38684l0 0c0 -15.677643 -12.7092285 -28.386871 -28.38684 -28.386871l0 0c-15.677673 0 -28.386902 12.7092285 -28.386902 28.386871z" fill-rule="evenodd"/><path fill="#c19a6b" d="m636.5069 171.00722l0 0c0 -25.379013 20.573792 -45.95276 45.95276 -45.95276l0 0c12.187439 0 23.875732 4.8414307 32.49353 13.459244c8.617798 8.617813 13.4592285 20.306091 13.4592285 32.493515l0 0c0 25.378998 -20.57373 45.95276 -45.95276 45.95276l0 0c-25.378967 0 -45.95276 -20.573761 -45.95276 -45.95276zm17.565918 0l0 0c0 15.677628 12.7092285 28.386856 28.38684 28.386856c15.677673 0 28.386902 -12.7092285 28.386902 -28.386856l0 0c0 -15.677628 -12.7092285 -28.386856 -28.386902 -28.386856l0 0c-15.677612 0 -28.38684 12.7092285 -28.38684 28.386856z" fill-rule="evenodd"/><path stroke="#c19a6b" stroke-width="1.0" stroke-linejoin="round" stroke-linecap="butt" d="m636.5069 171.00722l0 0c0 -25.379013 20.573792 -45.95276 45.95276 -45.95276l0 0c12.187439 0 23.875732 4.8414307 32.49353 13.459244c8.617798 8.617813 13.4592285 20.306091 13.4592285 32.493515l0 0c0 25.378998 -20.57373 45.95276 -45.95276 45.95276l0 0c-25.378967 0 -45.95276 -20.573761 -45.95276 -45.95276zm17.565918 0l0 0c0 15.677628 12.7092285 28.386856 28.38684 28.386856c15.677673 0 28.386902 -12.7092285 28.386902 -28.386856l0 0c0 -15.677628 -12.7092285 -28.386856 -28.386902 -28.386856l0 0c-15.677612 0 -28.38684 12.7092285 -28.38684 28.386856z" fill-rule="evenodd"/><path fill="#c19a6b" d="m637.0161 378.46652l0 0c0 -25.378998 20.57373 -45.95276 45.95276 -45.95276l0 0c12.187439 0 23.875671 4.841461 32.49353 13.459259c8.617798 8.617828 13.4592285 20.306091 13.4592285 32.4935l0 0c0 25.379028 -20.57373 45.95276 -45.95276 45.95276l0 0c-25.379028 0 -45.95276 -20.57373 -45.95276 -45.95276zm17.565918 0l0 0c0 15.677643 12.7092285 28.386871 28.38684 28.386871c15.677612 0 28.38684 -12.7092285 28.38684 -28.386871l0 0c0 -15.677612 -12.7092285 -28.38684 -28.38684 -28.38684l0 0c-15.677612 0 -28.38684 12.7092285 -28.38684 28.38684z" fill-rule="evenodd"/><path stroke="#c19a6b" stroke-width="1.0" stroke-linejoin="round" stroke-linecap="butt" d="m637.0161 378.46652l0 0c0 -25.378998 20.57373 -45.95276 45.95276 -45.95276l0 0c12.187439 0 23.875671 4.841461 32.49353 13.459259c8.617798 8.617828 13.4592285 20.306091 13.4592285 32.4935l0 0c0 25.379028 -20.57373 45.95276 -45.95276 45.95276l0 0c-25.379028 0 -45.95276 -20.57373 -45.95276 -45.95276zm17.565918 0l0 0c0 15.677643 12.7092285 28.386871 28.38684 28.386871c15.677612 0 28.38684 -12.7092285 28.38684 -28.386871l0 0c0 -15.677612 -12.7092285 -28.38684 -28.38684 -28.38684l0 0c-15.677612 0 -28.38684 12.7092285 -28.38684 28.38684z" fill-rule="evenodd"/><path fill="#c19a6b" d="m523.82544 55.781494l0 22.992126l-53.606293 0l0 -22.992126z" fill-rule="evenodd"/><path stroke="#c19a6b" stroke-width="1.0" stroke-linejoin="round" stroke-linecap="butt" d="m523.82544 55.781494l0 22.992126l-53.606293 0l0 -22.992126z" fill-rule="evenodd"/><path fill="#ee9a4d" d="m523.82544 159.51115l0 22.992126l-53.606293 0l0 -22.992126z" fill-rule="evenodd"/><path stroke="#ee9a4d" stroke-width="1.0" stroke-linejoin="round" stroke-linecap="butt" d="m523.82544 159.51115l0 22.992126l-53.606293 0l0 -22.992126z" fill-rule="evenodd"/><path fill="#c19a6b" d="m523.82544 263.2408l0 22.992126l-53.606293 0l0 -22.992126z" fill-rule="evenodd"/><path stroke="#c19a6b" stroke-width="1.0" stroke-linejoin="round" stroke-linecap="butt" d="m523.82544 263.2408l0 22.992126l-53.606293 0l0 -22.992126z" fill-rule="evenodd"/><path fill="#ee9a4d" d="m510.0596 171.00722l0 0c0 -25.379013 20.573761 -45.95276 45.95279 -45.95276l0 0c12.187378 0 23.875671 4.8414307 32.49347 13.459244c8.617859 8.617813 13.45929 20.306091 13.45929 32.493515l0 0c0 25.378998 -20.573792 45.95276 -45.95276 45.95276l0 0c-25.379028 0 -45.95279 -20.573761 -45.95279 -45.95276zm17.565887 0l0 0c0 15.677628 12.7092285 28.386856 28.386902 28.386856c15.677612 0 28.38684 -12.7092285 28.38684 -28.386856l0 0c0 -15.677628 -12.7092285 -28.386856 -28.38684 -28.386856l0 0c-15.677673 0 -28.386902 12.7092285 -28.386902 28.386856z" fill-rule="evenodd"/><path stroke="#ee9a4d" stroke-width="1.0" stroke-linejoin="round" stroke-linecap="butt" d="m510.0596 171.00722l0 0c0 -25.379013 20.573761 -45.95276 45.95279 -45.95276l0 0c12.187378 0 23.875671 4.8414307 32.49347 13.459244c8.617859 8.617813 13.45929 20.306091 13.45929 32.493515l0 0c0 25.378998 -20.573792 45.95276 -45.95276 45.95276l0 0c-25.379028 0 -45.95279 -20.573761 -45.95279 -45.95276zm17.565887 0l0 0c0 15.677628 12.7092285 28.386856 28.386902 28.386856c15.677612 0 28.38684 -12.7092285 28.38684 -28.386856l0 0c0 -15.677628 -12.7092285 -28.386856 -28.38684 -28.386856l0 0c-15.677673 0 -28.386902 12.7092285 -28.386902 28.386856z" fill-rule="evenodd"/><path fill="#c19a6b" d="m510.0596 274.73688l0 0c0 -25.379013 20.573761 -45.95276 45.95279 -45.95276l0 0c12.187378 0 23.875671 4.8414307 32.49347 13.459244c8.617859 8.617813 13.45929 20.306076 13.45929 32.493515l0 0c0 25.378998 -20.573792 45.95276 -45.95276 45.95276l0 0c-25.379028 0 -45.95279 -20.573761 -45.95279 -45.95276zm17.565887 0l0 0c0 15.677612 12.7092285 28.38684 28.386902 28.38684c15.677612 0 28.38684 -12.7092285 28.38684 -28.38684l0 0c0 -15.677643 -12.7092285 -28.386856 -28.38684 -28.386856l0 0c-15.677673 0 -28.386902 12.709213 -28.386902 28.386856z" fill-rule="evenodd"/><path stroke="#c19a6b" stroke-width="1.0" stroke-linejoin="round" stroke-linecap="butt" d="m510.0596 274.73688l0 0c0 -25.379013 20.573761 -45.95276 45.95279 -45.95276l0 0c12.187378 0 23.875671 4.8414307 32.49347 13.459244c8.617859 8.617813 13.45929 20.306076 13.45929 32.493515l0 0c0 25.378998 -20.573792 45.95276 -45.95276 45.95276l0 0c-25.379028 0 -45.95279 -20.573761 -45.95279 -45.95276zm17.565887 0l0 0c0 15.677612 12.7092285 28.38684 28.386902 28.38684c15.677612 0 28.38684 -12.7092285 28.38684 -28.38684l0 0c0 -15.677643 -12.7092285 -28.386856 -28.38684 -28.386856l0 0c-15.677673 0 -28.386902 12.709213 -28.386902 28.386856z" fill-rule="evenodd"/><path fill="#c19a6b" d="m510.0596 67.27756l0 0c0 -25.37901 20.573761 -45.95276 45.95279 -45.95276l0 0c12.187378 0 23.875671 4.8414364 32.49347 13.4592495c8.617859 8.617813 13.45929 20.306076 13.45929 32.493507l0 0c0 25.379005 -20.573792 45.95275 -45.95276 45.95275l0 0c-25.379028 0 -45.95279 -20.573746 -45.95279 -45.95275zm17.565887 0l0 0c0 15.677628 12.7092285 28.386856 28.386902 28.386856c15.677612 0 28.38684 -12.7092285 28.38684 -28.386856l0 0c0 -15.677628 -12.7092285 -28.386856 -28.38684 -28.386856l0 0c-15.677673 0 -28.386902 12.7092285 -28.386902 28.386856z" fill-rule="evenodd"/><path stroke="#c19a6b" stroke-width="1.0" stroke-linejoin="round" stroke-linecap="butt" d="m510.0596 67.27756l0 0c0 -25.37901 20.573761 -45.95276 45.95279 -45.95276l0 0c12.187378 0 23.875671 4.8414364 32.49347 13.4592495c8.617859 8.617813 13.45929 20.306076 13.45929 32.493507l0 0c0 25.379005 -20.573792 45.95275 -45.95276 45.95275l0 0c-25.379028 0 -45.95279 -20.573746 -45.95279 -45.95275zm17.565887 0l0 0c0 15.677628 12.7092285 28.386856 28.386902 28.386856c15.677612 0 28.38684 -12.7092285 28.38684 -28.386856l0 0c0 -15.677628 -12.7092285 -28.386856 -28.38684 -28.386856l0 0c-15.677673 0 -28.386902 12.7092285 -28.386902 28.386856z" fill-rule="evenodd"/><path fill="#29465b" d="m230.84908 21.3248l244.15749 0l0 91.90551l-244.15749 0zm18.189026 18.18902l0 55.52747l207.77943 0l0 -55.52747z" fill-rule="evenodd"/><path stroke="#29465b" stroke-width="1.0" stroke-linejoin="round" stroke-linecap="butt" d="m230.84908 21.3248l244.15749 0l0 91.90551l-244.15749 0zm18.189026 18.18902l0 55.52747l207.77943 0l0 -55.52747z" fill-rule="evenodd"/><path fill="#36454f" d="m230.84908 125.05446l244.15749 0l0 91.90552l-244.15749 0zm18.189026 18.189026l0 55.527466l207.77943 0l0 -55.527466z" fill-rule="evenodd"/><path stroke="#36454f" stroke-width="1.0" stroke-linejoin="round" stroke-linecap="butt" d="m230.84908 125.05446l244.15749 0l0 91.90552l-244.15749 0zm18.189026 18.189026l0 55.527466l207.77943 0l0 -55.527466z" fill-rule="evenodd"/><path fill="#2b547e" d="m230.84908 228.78412l244.15749 0l0 91.90552l-244.15749 0zm18.189026 18.189026l0 55.527466l207.77943 0l0 -55.527466z" fill-rule="evenodd"/><path stroke="#2b547e" stroke-width="1.0" stroke-linejoin="round" stroke-linecap="butt" d="m230.84908 228.78412l244.15749 0l0 91.90552l-244.15749 0zm18.189026 18.189026l0 55.527466l207.77943 0l0 -55.527466z" fill-rule="evenodd"/><path fill="#ffffff" d="m280.63647 2.172569l146.48819 0l0 542.86615l-146.48819 0z" fill-rule="evenodd"/><path stroke="#ffffff" stroke-width="1.0" stroke-linejoin="round" stroke-linecap="butt" d="m280.63647 2.172569l146.48819 0l0 542.86615l-146.48819 0z" fill-rule="evenodd"/><path fill="#c19a6b" d="m1224.6129 366.97046l0 22.992126l-53.606323 0l0 -22.992126z" fill-rule="evenodd"/><path stroke="#c19a6b" stroke-width="1.0" stroke-linejoin="round" stroke-linecap="butt" d="m1224.6129 366.97046l0 22.992126l-53.606323 0l0 -22.992126z" fill-rule="evenodd"/><path fill="#a0522d" d="m1099.8254 366.97046l0 22.992126l-53.606323 0l0 -22.992126z" fill-rule="evenodd"/><path stroke="#a0522d" stroke-width="1.0" stroke-linejoin="round" stroke-linecap="butt" d="m1099.8254 366.97046l0 22.992126l-53.606323 0l0 -22.992126z" fill-rule="evenodd"/><path fill="#c19a6b" d="m1099.8254 470.70013l0 22.992126l-53.606323 0l0 -22.992126z" fill-rule="evenodd"/><path stroke="#c19a6b" stroke-width="1.0" stroke-linejoin="round" stroke-linecap="butt" d="m1099.8254 470.70013l0 22.992126l-53.606323 0l0 -22.992126z" fill-rule="evenodd"/><path fill="#c19a6b" d="m1224.6129 159.51115l0 22.992126l-53.606323 0l0 -22.992126z" fill-rule="evenodd"/><path stroke="#c19a6b" stroke-width="1.0" stroke-linejoin="round" stroke-linecap="butt" d="m1224.6129 159.51115l0 22.992126l-53.606323 0l0 -22.992126z" fill-rule="evenodd"/><path fill="#2b3856" d="m806.84906 332.51376l244.15753 0l0 91.90552l-244.15753 0zm18.189026 18.189026l0 55.527466l207.77942 0l0 -55.527466z" fill-rule="evenodd"/><path stroke="#2b3856" stroke-width="1.0" stroke-linejoin="round" stroke-linecap="butt" d="m806.84906 332.51376l244.15753 0l0 91.90552l-244.15753 0zm18.189026 18.189026l0 55.527466l207.77942 0l0 -55.527466z" fill-rule="evenodd"/><path fill="#123456" d="m806.84906 436.24344l244.15753 0l0 91.90549l-244.15753 0zm18.189026 18.189026l0 55.527466l207.77942 0l0 -55.527466z" fill-rule="evenodd"/><path stroke="#123456" stroke-width="1.0" stroke-linejoin="round" stroke-linecap="butt" d="m806.84906 436.24344l244.15753 0l0 91.90549l-244.15753 0zm18.189026 18.189026l0 55.527466l207.77942 0l0 -55.527466z" fill-rule="evenodd"/><path fill="#a0522d" d="m1086.0596 378.46652l0 0c0 -25.378998 20.573853 -45.95276 45.95276 -45.95276l0 0c12.1875 0 23.875732 4.841461 32.49353 13.459259c8.617798 8.617828 13.4592285 20.306091 13.4592285 32.4935l0 0c0 25.379028 -20.57373 45.95276 -45.95276 45.95276l0 0c-25.378906 0 -45.95276 -20.57373 -45.95276 -45.95276zm17.565918 0l0 0c0 15.677643 12.7092285 28.386871 28.38684 28.386871c15.677612 0 28.38684 -12.7092285 28.38684 -28.386871l0 0c0 -15.677612 -12.7092285 -28.38684 -28.38684 -28.38684l0 0c-15.677612 0 -28.38684 12.7092285 -28.38684 28.38684z" fill-rule="evenodd"/><path stroke="#a0522d" stroke-width="1.0" stroke-linejoin="round" stroke-linecap="butt" d="m1086.0596 378.46652l0 0c0 -25.378998 20.573853 -45.95276 45.95276 -45.95276l0 0c12.1875 0 23.875732 4.841461 32.49353 13.459259c8.617798 8.617828 13.4592285 20.306091 13.4592285 32.4935l0 0c0 25.379028 -20.57373 45.95276 -45.95276 45.95276l0 0c-25.378906 0 -45.95276 -20.57373 -45.95276 -45.95276zm17.565918 0l0 0c0 15.677643 12.7092285 28.386871 28.38684 28.386871c15.677612 0 28.38684 -12.7092285 28.38684 -28.386871l0 0c0 -15.677612 -12.7092285 -28.38684 -28.38684 -28.38684l0 0c-15.677612 0 -28.38684 12.7092285 -28.38684 28.38684z" fill-rule="evenodd"/><path fill="#c19a6b" d="m1086.0596 482.1962l0 0c0 -25.378998 20.573853 -45.95276 45.95276 -45.95276l0 0c12.1875 0 23.875732 4.8414307 32.49353 13.459259c8.617798 8.617798 13.4592285 20.30606 13.4592285 32.4935l0 0c0 25.378998 -20.57373 45.95273 -45.95276 45.95273l0 0c-25.378906 0 -45.95276 -20.57373 -45.95276 -45.95273zm17.565918 0l0 0c0 15.677612 12.7092285 28.38684 28.38684 28.38684c15.677612 0 28.38684 -12.7092285 28.38684 -28.38684l0 0c0 -15.677643 -12.7092285 -28.386871 -28.38684 -28.386871l0 0c-15.677612 0 -28.38684 12.7092285 -28.38684 28.386871z" fill-rule="evenodd"/><path stroke="#c19a6b" stroke-width="1.0" stroke-linejoin="round" stroke-linecap="butt" d="m1086.0596 482.1962l0 0c0 -25.378998 20.573853 -45.95276 45.95276 -45.95276l0 0c12.1875 0 23.875732 4.8414307 32.49353 13.459259c8.617798 8.617798 13.4592285 20.30606 13.4592285 32.4935l0 0c0 25.378998 -20.57373 45.95273 -45.95276 45.95273l0 0c-25.378906 0 -45.95276 -20.57373 -45.95276 -45.95273zm17.565918 0l0 0c0 15.677612 12.7092285 28.38684 28.38684 28.38684c15.677612 0 28.38684 -12.7092285 28.38684 -28.38684l0 0c0 -15.677643 -12.7092285 -28.386871 -28.38684 -28.386871l0 0c-15.677612 0 -28.38684 12.7092285 -28.38684 28.386871z" fill-rule="evenodd"/><path fill="#c19a6b" d="m1212.507 171.00722l0 0c0 -25.379013 20.57373 -45.95276 45.95276 -45.95276l0 0c12.187378 0 23.87561 4.8414307 32.49353 13.459244c8.617798 8.617813 13.4592285 20.306091 13.4592285 32.493515l0 0c0 25.378998 -20.57373 45.95276 -45.95276 45.95276l0 0c-25.379028 0 -45.95276 -20.573761 -45.95276 -45.95276zm17.565918 0l0 0c0 15.677628 12.7092285 28.386856 28.38684 28.386856c15.677612 0 28.38684 -12.7092285 28.38684 -28.386856l0 0c0 -15.677628 -12.7092285 -28.386856 -28.38684 -28.386856l0 0c-15.677612 0 -28.38684 12.7092285 -28.38684 28.386856z" fill-rule="evenodd"/><path stroke="#c19a6b" stroke-width="1.0" stroke-linejoin="round" stroke-linecap="butt" d="m1212.507 171.00722l0 0c0 -25.379013 20.57373 -45.95276 45.95276 -45.95276l0 0c12.187378 0 23.87561 4.8414307 32.49353 13.459244c8.617798 8.617813 13.4592285 20.306091 13.4592285 32.493515l0 0c0 25.378998 -20.57373 45.95276 -45.95276 45.95276l0 0c-25.379028 0 -45.95276 -20.573761 -45.95276 -45.95276zm17.565918 0l0 0c0 15.677628 12.7092285 28.386856 28.38684 28.386856c15.677612 0 28.38684 -12.7092285 28.38684 -28.386856l0 0c0 -15.677628 -12.7092285 -28.386856 -28.38684 -28.386856l0 0c-15.677612 0 -28.38684 12.7092285 -28.38684 28.386856z" fill-rule="evenodd"/><path fill="#c19a6b" d="m1213.0161 378.46652l0 0c0 -25.378998 20.57373 -45.95276 45.95276 -45.95276l0 0c12.187378 0 23.875732 4.841461 32.49353 13.459259c8.617798 8.617828 13.4592285 20.306091 13.4592285 32.4935l0 0c0 25.379028 -20.57373 45.95276 -45.95276 45.95276l0 0c-25.379028 0 -45.95276 -20.57373 -45.95276 -45.95276zm17.565918 0l0 0c0 15.677643 12.7092285 28.386871 28.38684 28.386871c15.677612 0 28.38684 -12.7092285 28.38684 -28.386871l0 0c0 -15.677612 -12.7092285 -28.38684 -28.38684 -28.38684l0 0c-15.677612 0 -28.38684 12.7092285 -28.38684 28.38684z" fill-rule="evenodd"/><path stroke="#c19a6b" stroke-width="1.0" stroke-linejoin="round" stroke-linecap="butt" d="m1213.0161 378.46652l0 0c0 -25.378998 20.57373 -45.95276 45.95276 -45.95276l0 0c12.187378 0 23.875732 4.841461 32.49353 13.459259c8.617798 8.617828 13.4592285 20.306091 13.4592285 32.4935l0 0c0 25.379028 -20.57373 45.95276 -45.95276 45.95276l0 0c-25.379028 0 -45.95276 -20.57373 -45.95276 -45.95276zm17.565918 0l0 0c0 15.677643 12.7092285 28.386871 28.38684 28.386871c15.677612 0 28.38684 -12.7092285 28.38684 -28.386871l0 0c0 -15.677612 -12.7092285 -28.38684 -28.38684 -28.38684l0 0c-15.677612 0 -28.38684 12.7092285 -28.38684 28.38684z" fill-rule="evenodd"/><path fill="#c19a6b" d="m1099.8254 55.781494l0 22.992126l-53.606323 0l0 -22.992126z" fill-rule="evenodd"/><path stroke="#c19a6b" stroke-width="1.0" stroke-linejoin="round" stroke-linecap="butt" d="m1099.8254 55.781494l0 22.992126l-53.606323 0l0 -22.992126z" fill-rule="evenodd"/><path fill="#ee9a4d" d="m1099.8254 159.51115l0 22.992126l-53.606323 0l0 -22.992126z" fill-rule="evenodd"/><path stroke="#ee9a4d" stroke-width="1.0" stroke-linejoin="round" stroke-linecap="butt" d="m1099.8254 159.51115l0 22.992126l-53.606323 0l0 -22.992126z" fill-rule="evenodd"/><path fill="#c19a6b" d="m1099.8254 263.2408l0 22.992126l-53.606323 0l0 -22.992126z" fill-rule="evenodd"/><path stroke="#c19a6b" stroke-width="1.0" stroke-linejoin="round" stroke-linecap="butt" d="m1099.8254 263.2408l0 22.992126l-53.606323 0l0 -22.992126z" fill-rule="evenodd"/><path fill="#ee9a4d" d="m1086.0596 171.00722l0 0c0 -25.379013 20.573853 -45.95276 45.95276 -45.95276l0 0c12.1875 0 23.875732 4.8414307 32.49353 13.459244c8.617798 8.617813 13.4592285 20.306091 13.4592285 32.493515l0 0c0 25.378998 -20.57373 45.95276 -45.95276 45.95276l0 0c-25.378906 0 -45.95276 -20.573761 -45.95276 -45.95276zm17.565918 0l0 0c0 15.677628 12.7092285 28.386856 28.38684 28.386856c15.677612 0 28.38684 -12.7092285 28.38684 -28.386856l0 0c0 -15.677628 -12.7092285 -28.386856 -28.38684 -28.386856l0 0c-15.677612 0 -28.38684 12.7092285 -28.38684 28.386856z" fill-rule="evenodd"/><path stroke="#ee9a4d" stroke-width="1.0" stroke-linejoin="round" stroke-linecap="butt" d="m1086.0596 171.00722l0 0c0 -25.379013 20.573853 -45.95276 45.95276 -45.95276l0 0c12.1875 0 23.875732 4.8414307 32.49353 13.459244c8.617798 8.617813 13.4592285 20.306091 13.4592285 32.493515l0 0c0 25.378998 -20.57373 45.95276 -45.95276 45.95276l0 0c-25.378906 0 -45.95276 -20.573761 -45.95276 -45.95276zm17.565918 0l0 0c0 15.677628 12.7092285 28.386856 28.38684 28.386856c15.677612 0 28.38684 -12.7092285 28.38684 -28.386856l0 0c0 -15.677628 -12.7092285 -28.386856 -28.38684 -28.386856l0 0c-15.677612 0 -28.38684 12.7092285 -28.38684 28.386856z" fill-rule="evenodd"/><path fill="#c19a6b" d="m1086.0596 274.73688l0 0c0 -25.379013 20.573853 -45.95276 45.95276 -45.95276l0 0c12.1875 0 23.875732 4.8414307 32.49353 13.459244c8.617798 8.617813 13.4592285 20.306076 13.4592285 32.493515l0 0c0 25.378998 -20.57373 45.95276 -45.95276 45.95276l0 0c-25.378906 0 -45.95276 -20.573761 -45.95276 -45.95276zm17.565918 0l0 0c0 15.677612 12.7092285 28.38684 28.38684 28.38684c15.677612 0 28.38684 -12.7092285 28.38684 -28.38684l0 0c0 -15.677643 -12.7092285 -28.386856 -28.38684 -28.386856l0 0c-15.677612 0 -28.38684 12.709213 -28.38684 28.386856z" fill-rule="evenodd"/><path stroke="#c19a6b" stroke-width="1.0" stroke-linejoin="round" stroke-linecap="butt" d="m1086.0596 274.73688l0 0c0 -25.379013 20.573853 -45.95276 45.95276 -45.95276l0 0c12.1875 0 23.875732 4.8414307 32.49353 13.459244c8.617798 8.617813 13.4592285 20.306076 13.4592285 32.493515l0 0c0 25.378998 -20.57373 45.95276 -45.95276 45.95276l0 0c-25.378906 0 -45.95276 -20.573761 -45.95276 -45.95276zm17.565918 0l0 0c0 15.677612 12.7092285 28.38684 28.38684 28.38684c15.677612 0 28.38684 -12.7092285 28.38684 -28.38684l0 0c0 -15.677643 -12.7092285 -28.386856 -28.38684 -28.386856l0 0c-15.677612 0 -28.38684 12.709213 -28.38684 28.386856z" fill-rule="evenodd"/><path fill="#c19a6b" d="m1086.0596 67.27756l0 0c0 -25.37901 20.573853 -45.95276 45.95276 -45.95276l0 0c12.1875 0 23.875732 4.8414364 32.49353 13.4592495c8.617798 8.617813 13.4592285 20.306076 13.4592285 32.493507l0 0c0 25.379005 -20.57373 45.95275 -45.95276 45.95275l0 0c-25.378906 0 -45.95276 -20.573746 -45.95276 -45.95275zm17.565918 0l0 0c0 15.677628 12.7092285 28.386856 28.38684 28.386856c15.677612 0 28.38684 -12.7092285 28.38684 -28.386856l0 0c0 -15.677628 -12.7092285 -28.386856 -28.38684 -28.386856l0 0c-15.677612 0 -28.38684 12.7092285 -28.38684 28.386856z" fill-rule="evenodd"/><path stroke="#c19a6b" stroke-width="1.0" stroke-linejoin="round" stroke-linecap="butt" d="m1086.0596 67.27756l0 0c0 -25.37901 20.573853 -45.95276 45.95276 -45.95276l0 0c12.1875 0 23.875732 4.8414364 32.49353 13.4592495c8.617798 8.617813 13.4592285 20.306076 13.4592285 32.493507l0 0c0 25.379005 -20.57373 45.95275 -45.95276 45.95275l0 0c-25.378906 0 -45.95276 -20.573746 -45.95276 -45.95275zm17.565918 0l0 0c0 15.677628 12.7092285 28.386856 28.38684 28.386856c15.677612 0 28.38684 -12.7092285 28.38684 -28.386856l0 0c0 -15.677628 -12.7092285 -28.386856 -28.38684 -28.386856l0 0c-15.677612 0 -28.38684 12.7092285 -28.38684 28.386856z" fill-rule="evenodd"/><path fill="#29465b" d="m806.84906 21.3248l244.15753 0l0 91.90551l-244.15753 0zm18.189026 18.18902l0 55.52747l207.77942 0l0 -55.52747z" fill-rule="evenodd"/><path stroke="#29465b" stroke-width="1.0" stroke-linejoin="round" stroke-linecap="butt" d="m806.84906 21.3248l244.15753 0l0 91.90551l-244.15753 0zm18.189026 18.18902l0 55.52747l207.77942 0l0 -55.52747z" fill-rule="evenodd"/><path fill="#36454f" d="m806.84906 125.05446l244.15753 0l0 91.90552l-244.15753 0zm18.189026 18.189026l0 55.527466l207.77942 0l0 -55.527466z" fill-rule="evenodd"/><path stroke="#36454f" stroke-width="1.0" stroke-linejoin="round" stroke-linecap="butt" d="m806.84906 125.05446l244.15753 0l0 91.90552l-244.15753 0zm18.189026 18.189026l0 55.527466l207.77942 0l0 -55.527466z" fill-rule="evenodd"/><path fill="#2b547e" d="m806.84906 228.78412l244.15753 0l0 91.90552l-244.15753 0zm18.189026 18.189026l0 55.527466l207.77942 0l0 -55.527466z" fill-rule="evenodd"/><path stroke="#2b547e" stroke-width="1.0" stroke-linejoin="round" stroke-linecap="butt" d="m806.84906 228.78412l244.15753 0l0 91.90552l-244.15753 0zm18.189026 18.189026l0 55.527466l207.77942 0l0 -55.527466z" fill-rule="evenodd"/><path fill="#ffffff" d="m856.6365 2.172569l146.48822 0l0 542.86615l-146.48822 0z" fill-rule="evenodd"/><path stroke="#ffffff" stroke-width="1.0" stroke-linejoin="round" stroke-linecap="butt" d="m856.6365 2.172569l146.48822 0l0 542.86615l-146.48822 0z" fill-rule="evenodd"/><path fill="#e8a317" d="m888.937 274.73688l0 0c0 -22.613235 18.331665 -40.944885 40.944885 -40.944885l0 0c10.859253 0 21.273743 4.3138275 28.952393 11.992477c7.67865 7.67865 11.992493 18.093155 11.992493 28.952408l0 0c0 22.61322 -18.331665 40.944885 -40.944885 40.944885l0 0c-22.61322 0 -40.944885 -18.331665 -40.944885 -40.944885z" fill-rule="evenodd"/><path stroke="#e8a317" stroke-width="1.0" stroke-linejoin="round" stroke-linecap="butt" d="m888.937 274.73688l0 0c0 -22.613235 18.331665 -40.944885 40.944885 -40.944885l0 0c10.859253 0 21.273743 4.3138275 28.952393 11.992477c7.67865 7.67865 11.992493 18.093155 11.992493 28.952408l0 0c0 22.61322 -18.331665 40.944885 -40.944885 40.944885l0 0c-22.61322 0 -40.944885 -18.331665 -40.944885 -40.944885z" fill-rule="evenodd"/><path fill="#000000" fill-opacity="0.0" d="m330.56955 43.041336l37.543304 0l0 48.472443l-37.543304 0z" fill-rule="evenodd"/><path fill="#0b5394" d="m348.86624 76.01131q-1.75 0 -3.140625 -0.875q-1.390625 -0.875 -2.203125 -2.375q-0.796875 -1.5 -0.796875 -3.390625q0 -1.90625 0.875 -3.40625q0.875 -1.515625 2.375 -2.390625q1.5 -0.875 3.375 -0.875q1.875 0 3.359375 0.875q1.484375 0.875 2.359375 2.390625q0.890625 1.5 0.890625 3.40625l-0.9375 0q0 1.890625 -0.8125 3.390625q-0.796875 1.5 -2.1875 2.375q-1.390625 0.875 -3.15625 0.875zm0.484375 -2.15625q1.234375 0 2.1875 -0.578125q0.953125 -0.59375 1.5 -1.609375q0.5625 -1.03125 0.5625 -2.296875q0 -1.296875 -0.5625 -2.3125q-0.546875 -1.03125 -1.5 -1.609375q-0.953125 -0.59375 -2.1875 -0.59375q-1.203125 0 -2.171875 0.59375q-0.96875 0.578125 -1.53125 1.609375q-0.5625 1.015625 -0.5625 2.3125q0 1.265625 0.5625 2.296875q0.5625 1.015625 1.53125 1.609375q0.96875 0.578125 2.171875 0.578125zm5.375 2.09375q-0.53125 0 -0.875 -0.34375q-0.34375 -0.359375 -0.34375 -0.890625l0 -3.671875l0.453125 -2.546875l2.0 0.875l0 5.34375q0 0.53125 -0.359375 0.890625q-0.34375 0.34375 -0.875 0.34375z" fill-rule="nonzero"/><path fill="#000000" fill-opacity="0.0" d="m330.56955 146.77098l37.543304 0l0 48.472443l-37.543304 0z" fill-rule="evenodd"/><path fill="#0b5394" d="m349.67087 179.74095q-1.875 0 -3.375 -0.875q-1.484375 -0.875 -2.34375 -2.390625q-0.859375 -1.515625 -0.890625 -3.40625l0 -10.9375q0 -0.5625 0.34375 -0.890625q0.359375 -0.34375 0.890625 -0.34375q0.546875 0 0.875 0.34375q0.34375 0.328125 0.34375 0.890625l0 6.46875q0.84375 -1.0 2.03125 -1.578125q1.1875 -0.59375 2.59375 -0.59375q1.75 0 3.140625 0.875q1.40625 0.875 2.203125 2.375q0.8125 1.5 0.8125 3.390625q0 1.890625 -0.890625 3.40625q-0.875 1.515625 -2.359375 2.390625q-1.484375 0.875 -3.375 0.875zm0 -2.15625q1.21875 0 2.171875 -0.578125q0.96875 -0.59375 1.53125 -1.625q0.5625 -1.03125 0.5625 -2.3125q0 -1.296875 -0.5625 -2.296875q-0.5625 -1.015625 -1.53125 -1.59375q-0.953125 -0.59375 -2.171875 -0.59375q-1.203125 0 -2.1875 0.59375q-0.96875 0.578125 -1.515625 1.59375q-0.546875 1.0 -0.546875 2.296875q0 1.28125 0.546875 2.3125q0.546875 1.03125 1.515625 1.625q0.984375 0.578125 2.1875 0.578125z" fill-rule="nonzero"/><path fill="#000000" fill-opacity="0.0" d="m330.56955 249.3694l37.543304 0l0 48.472458l-37.543304 0z" fill-rule="evenodd"/><path fill="#0b5394" d="m350.23862 282.3394q-1.921875 0 -3.421875 -0.875q-1.5 -0.875 -2.359375 -2.375q-0.84375 -1.5 -0.84375 -3.390625q0 -1.953125 0.84375 -3.453125q0.84375 -1.515625 2.296875 -2.359375q1.46875 -0.859375 3.359375 -0.859375q1.421875 0 2.59375 0.546875q1.1875 0.53125 2.125 1.609375q0.328125 0.375 0.234375 0.796875q-0.09375 0.40625 -0.53125 0.71875q-0.328125 0.234375 -0.75 0.15625q-0.40625 -0.09375 -0.734375 -0.421875q-1.171875 -1.25 -2.9375 -1.25q-1.21875 0 -2.15625 0.5625q-0.9375 0.5625 -1.46875 1.578125q-0.515625 1.0 -0.515625 2.375q0 1.296875 0.53125 2.3125q0.546875 1.0 1.5 1.59375q0.96875 0.578125 2.234375 0.578125q0.84375 0 1.46875 -0.203125q0.640625 -0.203125 1.171875 -0.640625q0.390625 -0.3125 0.796875 -0.34375q0.40625 -0.03125 0.71875 0.21875q0.40625 0.34375 0.453125 0.765625q0.046875 0.421875 -0.28125 0.75q-1.734375 1.609375 -4.328125 1.609375z" fill-rule="nonzero"/><path fill="#000000" fill-opacity="0.0" d="m330.56955 354.2303l37.543304 0l0 48.472443l-37.543304 0z" fill-rule="evenodd"/><path fill="#0b5394" d="m349.01462 387.20026q-1.875 0 -3.375 -0.875q-1.5 -0.875 -2.375 -2.390625q-0.875 -1.515625 -0.875 -3.40625q0 -1.890625 0.796875 -3.390625q0.8125 -1.5 2.203125 -2.375q1.390625 -0.875 3.140625 -0.875q1.421875 0 2.625 0.59375q1.203125 0.578125 2.015625 1.578125l0 -6.46875q0 -0.5625 0.34375 -0.890625q0.34375 -0.34375 0.875 -0.34375q0.5625 0 0.890625 0.34375q0.34375 0.328125 0.34375 0.890625l0 10.9375q0 1.890625 -0.890625 3.40625q-0.875 1.515625 -2.359375 2.390625q-1.484375 0.875 -3.359375 0.875zm0 -2.15625q1.234375 0 2.1875 -0.578125q0.953125 -0.59375 1.5 -1.625q0.5625 -1.03125 0.5625 -2.3125q0 -1.296875 -0.5625 -2.296875q-0.546875 -1.015625 -1.5 -1.59375q-0.953125 -0.59375 -2.1875 -0.59375q-1.203125 0 -2.171875 0.59375q-0.96875 0.578125 -1.53125 1.59375q-0.5625 1.0 -0.5625 2.296875q0 1.28125 0.5625 2.3125q0.5625 1.03125 1.53125 1.625q0.96875 0.578125 2.171875 0.578125z" fill-rule="nonzero"/><path fill="#000000" fill-opacity="0.0" d="m330.56955 457.95996l37.543304 0l0 48.472443l-37.543304 0z" fill-rule="evenodd"/><path fill="#0b5394" d="m350.21735 490.92993q-1.984375 0 -3.546875 -0.84375q-1.546875 -0.859375 -2.421875 -2.359375q-0.875 -1.5 -0.875 -3.4375q0 -1.96875 0.828125 -3.46875q0.828125 -1.5 2.296875 -2.34375q1.46875 -0.859375 3.359375 -0.859375q1.875 0 3.21875 0.828125q1.34375 0.828125 2.046875 2.28125q0.703125 1.453125 0.703125 3.34375q0 0.453125 -0.3125 0.75q-0.3125 0.296875 -0.78125 0.296875l-9.671875 0l0 -1.90625l9.59375 0l-0.984375 0.671875q-0.015625 -1.203125 -0.484375 -2.15625q-0.453125 -0.953125 -1.296875 -1.5q-0.828125 -0.546875 -2.03125 -0.546875q-1.375 0 -2.34375 0.609375q-0.96875 0.59375 -1.484375 1.640625q-0.5 1.03125 -0.5 2.359375q0 1.3125 0.59375 2.34375q0.609375 1.03125 1.65625 1.640625q1.0625 0.59375 2.4375 0.59375q0.75 0 1.515625 -0.265625q0.78125 -0.28125 1.265625 -0.640625q0.359375 -0.265625 0.78125 -0.28125q0.421875 -0.015625 0.734375 0.25q0.40625 0.359375 0.421875 0.796875q0.03125 0.421875 -0.375 0.734375q-0.8125 0.65625 -2.03125 1.0625q-1.203125 0.40625 -2.3125 0.40625z" fill-rule="nonzero"/><path fill="#000000" fill-opacity="0.0" d="m536.98425 147.94681l37.543335 0l0 48.472443l-37.543335 0z" fill-rule="evenodd"/><path fill="#0b5394" d="m554.93005 180.82303q-0.453125 0 -0.8125 -0.328125q-0.359375 -0.34375 -0.359375 -0.890625l0 -11.84375q0 -1.71875 0.671875 -2.984375q0.6875 -1.28125 1.90625 -1.984375q1.234375 -0.71875 2.84375 -0.71875q0.53125 0 0.875 0.3125q0.34375 0.3125 0.34375 0.796875q0 0.453125 -0.34375 0.78125q-0.34375 0.328125 -0.875 0.328125q-0.890625 0 -1.5625 0.40625q-0.671875 0.40625 -1.046875 1.125q-0.375 0.71875 -0.375 1.703125l0 12.078125q0 0.546875 -0.34375 0.890625q-0.328125 0.328125 -0.921875 0.328125zm-2.203125 -10.578125q-0.515625 0 -0.828125 -0.28125q-0.3125 -0.296875 -0.3125 -0.734375q0 -0.484375 0.3125 -0.765625q0.3125 -0.28125 0.828125 -0.28125l5.921875 0q0.5 0 0.8125 0.28125q0.3125 0.28125 0.3125 0.765625q0 0.4375 -0.3125 0.734375q-0.3125 0.28125 -0.8125 0.28125l-5.921875 0z" fill-rule="nonzero"/><path fill="#000000" fill-opacity="0.0" d="m537.2402 350.49548l37.543274 0l0 48.472443l-37.543274 0z" fill-rule="evenodd"/><path fill="#0b5394" d="m555.5368 383.46545q-1.796875 0 -3.171814 -0.84375q-1.375 -0.859375 -2.171875 -2.359375q-0.796875 -1.5 -0.796875 -3.4375q0 -1.96875 0.84375 -3.46875q0.859375 -1.5 2.34375 -2.34375q1.499939 -0.859375 3.437439 -0.859375q1.921875 0 3.40625 0.859375q1.5 0.84375 2.34375 2.34375q0.859375 1.5 0.859375 3.46875l-1.421875 0q0 1.9375 -0.734375 3.4375q-0.734375 1.5 -2.015625 2.359375q-1.265625 0.84375 -2.921875 0.84375zm0.4375 5.359375q-1.703125 0 -3.187439 -0.671875q-1.484375 -0.671875 -2.515625 -1.96875q-0.3125 -0.40625 -0.234375 -0.84375q0.078125 -0.4375 0.46875 -0.703125q0.4375 -0.28125 0.890625 -0.1875q0.46875 0.09375 0.765625 0.484375q0.640625 0.8125 1.624939 1.265625q0.984375 0.453125 2.234375 0.453125q1.15625 0 2.125 -0.546875q0.96875 -0.546875 1.546875 -1.625q0.578125 -1.078125 0.578125 -2.640625l0 -3.40625l0.796875 -2.125l1.5625 0.515625l0 5.171875q0 1.90625 -0.84375 3.453125q-0.84375 1.546875 -2.34375 2.453125q-1.5 0.921875 -3.46875 0.921875zm0.046875 -7.515625q1.25 0 2.203125 -0.578125q0.96875 -0.578125 1.5 -1.578125q0.546875 -1.015625 0.546875 -2.328125q0 -1.328125 -0.546875 -2.34375q-0.53125 -1.015625 -1.5 -1.59375q-0.953125 -0.578125 -2.203125 -0.578125q-1.25 0 -2.21875 0.578125q-0.95306396 0.578125 -1.499939 1.59375q-0.546875 1.015625 -0.546875 2.34375q0 1.3125 0.546875 2.328125q0.546875 1.0 1.499939 1.578125q0.96875 0.578125 2.21875 0.578125z" fill-rule="nonzero"/><path fill="#000000" fill-opacity="0.0" d="m537.2402 42.230312l37.543274 0l0 48.47244l-37.543274 0z" fill-rule="evenodd"/><path fill="#0b5394" d="m551.2065 70.32528q-0.53125 0 -0.890625 -0.34375q-0.34375 -0.34375 -0.34375 -0.875l0 -11.515621q0 -0.5625 0.34375 -0.890625q0.359375 -0.34375 0.890625 -0.34375q0.546875 0 0.875 0.34375q0.34375 0.328125 0.34375 0.890625l0 11.515621q0 0.53125 -0.34375 0.875q-0.328125 0.34375 -0.875 0.34375zm9.859375 4.8125q-0.53125 0 -0.875 -0.34375q-0.34375 -0.359375 -0.34375 -0.890625l0 -5.90625q0 -1.359375 -0.515625 -2.21875q-0.5 -0.875 -1.359375 -1.296875q-0.84375 -0.421875 -1.953125 -0.421875q-1.0 0 -1.828125 0.421875q-0.8125 0.40625 -1.296875 1.09375q-0.46875 0.671875 -0.46875 1.5625l-1.515625 0q0 -1.515625 0.734375 -2.703125q0.734375 -1.1874962 2.0 -1.8749962q1.28125 -0.703125 2.859375 -0.703125q1.65625 0 2.953125 0.71875q1.3125 0.703125 2.0625 2.0781212q0.765625 1.359375 0.765625 3.34375l0 5.90625q0 0.53125 -0.34375 0.890625q-0.34375 0.34375 -0.875 0.34375zm-9.859375 0q-0.53125 0 -0.890625 -0.34375q-0.34375 -0.359375 -0.34375 -0.890625l0 -10.703121q0 -0.546875 0.34375 -0.875q0.359375 -0.34375 0.890625 -0.34375q0.546875 0 0.875 0.34375q0.34375 0.328125 0.34375 0.875l0 10.703121q0 0.53125 -0.34375 0.890625q-0.328125 0.34375 -0.875 0.34375z" fill-rule="nonzero"/><path fill="#000000" fill-opacity="0.0" d="m663.53406 147.08334l37.543335 0l0 48.472443l-37.543335 0z" fill-rule="evenodd"/><path fill="#0b5394" d="m677.50037 175.17831q-0.53125 0 -0.890625 -0.34375q-0.34375 -0.34375 -0.34375 -0.875l0 -11.515625q0 -0.5625 0.34375 -0.890625q0.359375 -0.34375 0.890625 -0.34375q0.546875 0 0.875 0.34375q0.34375 0.328125 0.34375 0.890625l0 11.515625q0 0.53125 -0.34375 0.875q-0.328125 0.34375 -0.875 0.34375zm9.859375 4.8125q-0.53125 0 -0.875 -0.34375q-0.34375 -0.359375 -0.34375 -0.890625l0 -5.90625q0 -1.359375 -0.515625 -2.21875q-0.5 -0.875 -1.359375 -1.296875q-0.84375 -0.421875 -1.953125 -0.421875q-1.0 0 -1.828125 0.421875q-0.8125 0.40625 -1.296875 1.09375q-0.46875 0.671875 -0.46875 1.5625l-1.515625 0q0 -1.515625 0.734375 -2.703125q0.734375 -1.1875 2.0 -1.875q1.28125 -0.703125 2.859375 -0.703125q1.65625 0 2.953125 0.71875q1.3125 0.703125 2.0625 2.078125q0.765625 1.359375 0.765625 3.34375l0 5.90625q0 0.53125 -0.34375 0.890625q-0.34375 0.34375 -0.875 0.34375zm-9.859375 0q-0.53125 0 -0.890625 -0.34375q-0.34375 -0.359375 -0.34375 -0.890625l0 -10.703125q0 -0.546875 0.34375 -0.875q0.359375 -0.34375 0.890625 -0.34375q0.546875 0 0.875 0.34375q0.34375 0.328125 0.34375 0.875l0 10.703125q0 0.53125 -0.34375 0.890625q-0.328125 0.34375 -0.875 0.34375z" fill-rule="nonzero"/><path fill="#000000" fill-opacity="0.0" d="m537.2402 250.23032l37.543274 0l0 48.472443l-37.543274 0z" fill-rule="evenodd"/><path fill="#0b5394" d="m551.2065 278.3253q-0.53125 0 -0.890625 -0.34375q-0.34375 -0.34375 -0.34375 -0.875l0 -11.515625q0 -0.5625 0.34375 -0.890625q0.359375 -0.34375 0.890625 -0.34375q0.546875 0 0.875 0.34375q0.34375 0.328125 0.34375 0.890625l0 11.515625q0 0.53125 -0.34375 0.875q-0.328125 0.34375 -0.875 0.34375zm9.859375 4.8125q-0.53125 0 -0.875 -0.34375q-0.34375 -0.359375 -0.34375 -0.890625l0 -5.90625q0 -1.359375 -0.515625 -2.21875q-0.5 -0.875 -1.359375 -1.296875q-0.84375 -0.421875 -1.953125 -0.421875q-1.0 0 -1.828125 0.421875q-0.8125 0.40625 -1.296875 1.09375q-0.46875 0.671875 -0.46875 1.5625l-1.515625 0q0 -1.515625 0.734375 -2.703125q0.734375 -1.1875 2.0 -1.875q1.28125 -0.703125 2.859375 -0.703125q1.65625 0 2.953125 0.71875q1.3125 0.703125 2.0625 2.078125q0.765625 1.359375 0.765625 3.34375l0 5.90625q0 0.53125 -0.34375 0.890625q-0.34375 0.34375 -0.875 0.34375zm-9.859375 0q-0.53125 0 -0.890625 -0.34375q-0.34375 -0.359375 -0.34375 -0.890625l0 -10.703125q0 -0.546875 0.34375 -0.875q0.359375 -0.34375 0.890625 -0.34375q0.546875 0 0.875 0.34375q0.34375 0.328125 0.34375 0.875l0 10.703125q0 0.53125 -0.34375 0.890625q-0.328125 0.34375 -0.875 0.34375z" fill-rule="nonzero"/><path fill="#000000" fill-opacity="0.0" d="m537.2402 458.23032l37.543274 0l0 48.472443l-37.543274 0z" fill-rule="evenodd"/><path fill="#0b5394" d="m551.2065 486.3253q-0.53125 0 -0.890625 -0.34375q-0.34375 -0.34375 -0.34375 -0.875l0 -11.515625q0 -0.5625 0.34375 -0.890625q0.359375 -0.34375 0.890625 -0.34375q0.546875 0 0.875 0.34375q0.34375 0.328125 0.34375 0.890625l0 11.515625q0 0.53125 -0.34375 0.875q-0.328125 0.34375 -0.875 0.34375zm9.859375 4.8125q-0.53125 0 -0.875 -0.34375q-0.34375 -0.359375 -0.34375 -0.890625l0 -5.90625q0 -1.359375 -0.515625 -2.21875q-0.5 -0.875 -1.359375 -1.296875q-0.84375 -0.421875 -1.953125 -0.421875q-1.0 0 -1.828125 0.421875q-0.8125 0.40625 -1.296875 1.09375q-0.46875 0.671875 -0.46875 1.5625l-1.515625 0q0 -1.515625 0.734375 -2.703125q0.734375 -1.1875 2.0 -1.875q1.28125 -0.703125 2.859375 -0.703125q1.65625 0 2.953125 0.71875q1.3125 0.703125 2.0625 2.078125q0.765625 1.359375 0.765625 3.34375l0 5.90625q0 0.53125 -0.34375 0.890625q-0.34375 0.34375 -0.875 0.34375zm-9.859375 0q-0.53125 0 -0.890625 -0.34375q-0.34375 -0.359375 -0.34375 -0.890625l0 -10.703125q0 -0.546875 0.34375 -0.875q0.359375 -0.34375 0.890625 -0.34375q0.546875 0 0.875 0.34375q0.34375 0.328125 0.34375 0.875l0 10.703125q0 0.53125 -0.34375 0.890625q-0.328125 0.34375 -0.875 0.34375z" fill-rule="nonzero"/><path fill="#000000" fill-opacity="0.0" d="m665.2402 354.23032l37.543274 0l0 48.472443l-37.543274 0z" fill-rule="evenodd"/><path fill="#0b5394" d="m679.2065 382.3253q-0.53125 0 -0.890625 -0.34375q-0.34375 -0.34375 -0.34375 -0.875l0 -11.515625q0 -0.5625 0.34375 -0.890625q0.359375 -0.34375 0.890625 -0.34375q0.546875 0 0.875 0.34375q0.34375 0.328125 0.34375 0.890625l0 11.515625q0 0.53125 -0.34375 0.875q-0.328125 0.34375 -0.875 0.34375zm9.859375 4.8125q-0.53125 0 -0.875 -0.34375q-0.34375 -0.359375 -0.34375 -0.890625l0 -5.90625q0 -1.359375 -0.515625 -2.21875q-0.5 -0.875 -1.359375 -1.296875q-0.84375 -0.421875 -1.953125 -0.421875q-1.0 0 -1.828125 0.421875q-0.8125 0.40625 -1.296875 1.09375q-0.46875 0.671875 -0.46875 1.5625l-1.515625 0q0 -1.515625 0.734375 -2.703125q0.734375 -1.1875 2.0 -1.875q1.28125 -0.703125 2.859375 -0.703125q1.65625 0 2.953125 0.71875q1.3125 0.703125 2.0625 2.078125q0.765625 1.359375 0.765625 3.34375l0 5.90625q0 0.53125 -0.34375 0.890625q-0.34375 0.34375 -0.875 0.34375zm-9.859375 0q-0.53125 0 -0.890625 -0.34375q-0.34375 -0.359375 -0.34375 -0.890625l0 -10.703125q0 -0.546875 0.34375 -0.875q0.359375 -0.34375 0.890625 -0.34375q0.546875 0 0.875 0.34375q0.34375 0.328125 0.34375 0.875l0 10.703125q0 0.53125 -0.34375 0.890625q-0.328125 0.34375 -0.875 0.34375z" fill-rule="nonzero"/><path fill="#000000" fill-opacity="0.0" d="m911.10895 250.50066l37.543274 0l0 48.472427l-37.543274 0z" fill-rule="evenodd"/><path fill="#0b5394" d="m930.30206 283.4706q-1.6875 0 -3.109375 -0.515625q-1.421875 -0.515625 -2.21875 -1.3125q-0.359375 -0.375 -0.296875 -0.859375q0.0625 -0.5 0.46875 -0.8125q0.46875 -0.390625 0.9375 -0.328125q0.46875 0.0625 0.8125 0.421875q0.40625 0.453125 1.296875 0.859375q0.90625 0.390625 2.015625 0.390625q1.390625 0 2.125 -0.453125q0.734375 -0.453125 0.75 -1.1875q0.03125 -0.71875 -0.6875 -1.234375q-0.703125 -0.53125 -2.578125 -0.875q-2.421875 -0.46875 -3.515625 -1.421875q-1.09375 -0.96875 -1.09375 -2.359375q0 -1.234375 0.71875 -2.03125q0.71875 -0.8125 1.84375 -1.203125q1.140625 -0.390625 2.359375 -0.390625q1.59375 0 2.8125 0.5q1.21875 0.5 1.9375 1.390625q0.34375 0.390625 0.3125 0.8125q-0.015625 0.40625 -0.40625 0.703125q-0.375 0.265625 -0.90625 0.171875q-0.53125 -0.109375 -0.890625 -0.4375q-0.59375 -0.578125 -1.296875 -0.796875q-0.703125 -0.21875 -1.609375 -0.21875q-1.0625 0 -1.796875 0.359375q-0.71875 0.359375 -0.71875 1.0625q0 0.4375 0.21875 0.78125q0.234375 0.34375 0.90625 0.625q0.671875 0.28125 1.96875 0.53125q1.796875 0.359375 2.84375 0.921875q1.046875 0.546875 1.5 1.28125q0.453125 0.734375 0.453125 1.6875q0 1.109375 -0.59375 2.0q-0.578125 0.890625 -1.71875 1.421875q-1.140625 0.515625 -2.84375 0.515625z" fill-rule="nonzero"/><path fill="#000000" fill-opacity="0.0" d="m230.85039 561.68964l244.15749 0l0 46.86615l-244.15749 0z" fill-rule="evenodd"/><path fill="#000000" d="m320.03445 592.44965l-1.9375 0l0 -7.09375q0 -1.28125 -0.484375 -1.90625q-0.46875 -0.640625 -1.359375 -0.640625q-0.390625 0 -0.734375 0.109375q-0.328125 0.09375 -0.703125 0.359375q-0.359375 0.25 -0.796875 0.703125q-0.421875 0.4375 -1.0 1.09375l0 7.375l-1.921875 0l0 -15.625l1.921875 0l0 4.515625l-0.0625 1.75q0.453125 -0.546875 0.890625 -0.90625q0.4375 -0.375 0.875 -0.609375q0.4375 -0.234375 0.890625 -0.328125q0.453125 -0.109375 0.9375 -0.109375q1.671875 0 2.578125 1.015625q0.90625 1.015625 0.90625 3.046875l0 7.25zm10.659637 0l-0.046875 -1.5q-0.90625 0.90625 -1.84375 1.3125q-0.9375 0.390625 -1.953125 0.390625q-0.953125 0 -1.640625 -0.234375q-0.671875 -0.25 -1.109375 -0.671875q-0.4375 -0.4375 -0.640625 -1.015625q-0.203125 -0.578125 -0.203125 -1.25q0 -1.671875 1.234375 -2.609375q1.25 -0.953125 3.6875 -0.953125l2.296875 0l0 -0.96875q0 -0.984375 -0.625 -1.578125q-0.625 -0.59375 -1.921875 -0.59375q-0.9375 0 -1.859375 0.21875q-0.90625 0.203125 -1.875 0.59375l0 -1.734375q0.359375 -0.140625 0.796875 -0.265625q0.453125 -0.125 0.953125 -0.21875q0.5 -0.109375 1.03125 -0.171875q0.546875 -0.0625 1.109375 -0.0625q1.0 0 1.8125 0.234375q0.8125 0.21875 1.359375 0.671875q0.5625 0.453125 0.859375 1.140625q0.296875 0.6875 0.296875 1.609375l0 7.65625l-1.71875 0zm-0.21875 -5.0625l-2.4375 0q-0.71875 0 -1.25 0.15625q-0.515625 0.140625 -0.84375 0.40625q-0.328125 0.265625 -0.5 0.640625q-0.15625 0.359375 -0.15625 0.828125q0 0.328125 0.09375 0.625q0.109375 0.28125 0.328125 0.515625q0.234375 0.21875 0.578125 0.359375q0.359375 0.125 0.859375 0.125q0.671875 0 1.53125 -0.40625q0.859375 -0.40625 1.796875 -1.28125l0 -1.96875zm5.5346375 -6.046875l1.71875 0l0.078125 1.796875q0.484375 -0.578125 0.9375 -0.953125q0.453125 -0.390625 0.890625 -0.625q0.4375 -0.234375 0.890625 -0.328125q0.453125 -0.09375 0.9375 -0.09375q1.71875 0 2.59375 1.015625q0.890625 1.015625 0.890625 3.046875l0 7.25l-1.9375 0l0 -7.09375q0 -1.296875 -0.484375 -1.921875q-0.484375 -0.625 -1.4375 -0.625q-0.359375 0 -0.703125 0.109375q-0.328125 0.09375 -0.703125 0.359375q-0.359375 0.25 -0.796875 0.703125q-0.421875 0.4375 -0.953125 1.09375l0 7.375l-1.921875 0l0 -11.109375zm11.894012 5.78125q0 -1.40625 0.390625 -2.5q0.390625 -1.109375 1.09375 -1.859375q0.71875 -0.765625 1.71875 -1.15625q1.0 -0.390625 2.234375 -0.390625q0.53125 0 1.046875 0.0625q0.515625 0.0625 1.0 0.203125l0 -4.65625l1.9375 0l0 15.625l-1.71875 0l-0.0625 -2.109375q-0.8125 1.1875 -1.75 1.75q-0.9375 0.5625 -2.03125 0.5625q-0.953125 0 -1.6875 -0.390625q-0.71875 -0.40625 -1.203125 -1.125q-0.484375 -0.734375 -0.734375 -1.75q-0.234375 -1.015625 -0.234375 -2.265625zm1.96875 -0.109375q0 2.015625 0.59375 3.0q0.59375 0.984375 1.671875 0.984375q0.734375 0 1.546875 -0.640625q0.8125 -0.65625 1.703125 -1.9375l0 -5.15625q-0.46875 -0.234375 -1.046875 -0.34375q-0.578125 -0.109375 -1.140625 -0.109375q-1.5625 0 -2.453125 1.015625q-0.875 1.015625 -0.875 3.1875zm14.831543 -8.609375l-3.28125 0l0 -1.578125l5.234375 0l0 14.015625l3.3125 0l0 1.609375l-8.90625 0l0 -1.609375l3.640625 0l0 -12.4375zm18.065887 7.90625q0 0.40625 -0.015625 0.6875q-0.015625 0.28125 -0.03125 0.515625l-7.796875 0q0 1.703125 0.9375 2.625q0.953125 0.90625 2.75 0.90625q0.484375 0 0.96875 -0.03125q0.5 -0.046875 0.953125 -0.109375q0.453125 -0.0625 0.859375 -0.140625q0.421875 -0.09375 0.765625 -0.1875l0 1.578125q-0.78125 0.21875 -1.78125 0.359375q-0.984375 0.140625 -2.046875 0.140625q-1.421875 0 -2.453125 -0.390625q-1.03125 -0.390625 -1.6875 -1.125q-0.65625 -0.734375 -0.96875 -1.796875q-0.3125 -1.078125 -0.3125 -2.421875q0 -1.171875 0.328125 -2.21875q0.34375 -1.046875 0.984375 -1.828125q0.65625 -0.796875 1.59375 -1.265625q0.9375 -0.46875 2.140625 -0.46875q1.15625 0 2.046875 0.375q0.90625 0.359375 1.515625 1.03125q0.609375 0.671875 0.921875 1.625q0.328125 0.953125 0.328125 2.140625zm-2.0 -0.28125q0.03125 -0.734375 -0.15625 -1.34375q-0.171875 -0.625 -0.546875 -1.0625q-0.359375 -0.4375 -0.921875 -0.6875q-0.546875 -0.25 -1.28125 -0.25q-0.625 0 -1.15625 0.25q-0.515625 0.234375 -0.890625 0.6875q-0.375 0.4375 -0.609375 1.0625q-0.234375 0.609375 -0.28125 1.34375l5.84375 0zm5.5190125 -4.6875l1.765625 0l0.046875 2.046875q0.984375 -1.1875 1.9375 -1.71875q0.96875 -0.53125 1.9375 -0.53125q1.734375 0 2.625 1.125q0.890625 1.109375 0.8125 3.3125l-1.9375 0q0.03125 -1.453125 -0.4375 -2.109375q-0.453125 -0.65625 -1.328125 -0.65625q-0.390625 0 -0.796875 0.140625q-0.390625 0.125 -0.8125 0.4375q-0.40625 0.296875 -0.875 0.78125q-0.453125 0.46875 -0.984375 1.140625l0 7.140625l-1.953125 0l0 -11.109375z" fill-rule="nonzero"/><path fill="#000000" fill-opacity="0.0" d="m806.8504 561.68964l244.15753 0l0 46.86615l-244.15753 0z" fill-rule="evenodd"/><path fill="#000000" d="m827.5236 592.44965l-1.9375 0l0 -7.09375q0 -1.28125 -0.484375 -1.90625q-0.46875 -0.640625 -1.359375 -0.640625q-0.390625 0 -0.734375 0.109375q-0.328125 0.09375 -0.703125 0.359375q-0.359375 0.25 -0.796875 0.703125q-0.421875 0.4375 -1.0 1.09375l0 7.375l-1.921875 0l0 -15.625l1.921875 0l0 4.515625l-0.0625 1.75q0.453125 -0.546875 0.890625 -0.90625q0.4375 -0.375 0.875 -0.609375q0.4375 -0.234375 0.890625 -0.328125q0.453125 -0.109375 0.9375 -0.109375q1.671875 0 2.578125 1.015625q0.90625 1.015625 0.90625 3.046875l0 7.25zm10.659668 0l-0.046875 -1.5q-0.90625 0.90625 -1.84375 1.3125q-0.9375 0.390625 -1.953125 0.390625q-0.953125 0 -1.640625 -0.234375q-0.671875 -0.25 -1.109375 -0.671875q-0.4375 -0.4375 -0.640625 -1.015625q-0.203125 -0.578125 -0.203125 -1.25q0 -1.671875 1.234375 -2.609375q1.25 -0.953125 3.6875 -0.953125l2.296875 0l0 -0.96875q0 -0.984375 -0.625 -1.578125q-0.625 -0.59375 -1.921875 -0.59375q-0.9375 0 -1.859375 0.21875q-0.90625 0.203125 -1.875 0.59375l0 -1.734375q0.359375 -0.140625 0.796875 -0.265625q0.453125 -0.125 0.953125 -0.21875q0.5 -0.109375 1.03125 -0.171875q0.546875 -0.0625 1.109375 -0.0625q1.0 0 1.8125 0.234375q0.8125 0.21875 1.359375 0.671875q0.5625 0.453125 0.859375 1.140625q0.296875 0.6875 0.296875 1.609375l0 7.65625l-1.71875 0zm-0.21875 -5.0625l-2.4375 0q-0.71875 0 -1.25 0.15625q-0.515625 0.140625 -0.84375 0.40625q-0.328125 0.265625 -0.5 0.640625q-0.15625 0.359375 -0.15625 0.828125q0 0.328125 0.09375 0.625q0.109375 0.28125 0.328125 0.515625q0.234375 0.21875 0.578125 0.359375q0.359375 0.125 0.859375 0.125q0.671875 0 1.53125 -0.40625q0.859375 -0.40625 1.796875 -1.28125l0 -1.96875zm5.534607 -6.046875l1.71875 0l0.078125 1.796875q0.484375 -0.578125 0.9375 -0.953125q0.453125 -0.390625 0.890625 -0.625q0.4375 -0.234375 0.890625 -0.328125q0.453125 -0.09375 0.9375 -0.09375q1.71875 0 2.59375 1.015625q0.890625 1.015625 0.890625 3.046875l0 7.25l-1.9375 0l0 -7.09375q0 -1.296875 -0.484375 -1.921875q-0.484375 -0.625 -1.4375 -0.625q-0.359375 0 -0.703125 0.109375q-0.328125 0.09375 -0.703125 0.359375q-0.359375 0.25 -0.796875 0.703125q-0.421875 0.4375 -0.953125 1.09375l0 7.375l-1.921875 0l0 -11.109375zm11.894043 5.78125q0 -1.40625 0.390625 -2.5q0.390625 -1.109375 1.09375 -1.859375q0.71875 -0.765625 1.71875 -1.15625q1.0 -0.390625 2.234375 -0.390625q0.53125 0 1.046875 0.0625q0.515625 0.0625 1.0 0.203125l0 -4.65625l1.9375 0l0 15.625l-1.71875 0l-0.0625 -2.109375q-0.8125 1.1875 -1.75 1.75q-0.9375 0.5625 -2.03125 0.5625q-0.953125 0 -1.6875 -0.390625q-0.71875 -0.40625 -1.203125 -1.125q-0.484375 -0.734375 -0.734375 -1.75q-0.234375 -1.015625 -0.234375 -2.265625zm1.96875 -0.109375q0 2.015625 0.59375 3.0q0.59375 0.984375 1.671875 0.984375q0.734375 0 1.546875 -0.640625q0.8125 -0.65625 1.703125 -1.9375l0 -5.15625q-0.46875 -0.234375 -1.046875 -0.34375q-0.578125 -0.109375 -1.140625 -0.109375q-1.5625 0 -2.453125 1.015625q-0.875 1.015625 -0.875 3.1875zm14.831482 -8.609375l-3.28125 0l0 -1.578125l5.234375 0l0 14.015625l3.3125 0l0 1.609375l-8.90625 0l0 -1.609375l3.640625 0l0 -12.4375zm18.065918 7.90625q0 0.40625 -0.015625 0.6875q-0.015625 0.28125 -0.03125 0.515625l-7.796875 0q0 1.703125 0.9375 2.625q0.953125 0.90625 2.75 0.90625q0.484375 0 0.96875 -0.03125q0.5 -0.046875 0.953125 -0.109375q0.453125 -0.0625 0.859375 -0.140625q0.421875 -0.09375 0.765625 -0.1875l0 1.578125q-0.78125 0.21875 -1.78125 0.359375q-0.984375 0.140625 -2.046875 0.140625q-1.421875 0 -2.453125 -0.390625q-1.03125 -0.390625 -1.6875 -1.125q-0.65625 -0.734375 -0.96875 -1.796875q-0.3125 -1.078125 -0.3125 -2.421875q0 -1.171875 0.328125 -2.21875q0.34375 -1.046875 0.984375 -1.828125q0.65625 -0.796875 1.59375 -1.265625q0.9375 -0.46875 2.140625 -0.46875q1.15625 0 2.046875 0.375q0.90625 0.359375 1.515625 1.03125q0.609375 0.671875 0.921875 1.625q0.328125 0.953125 0.328125 2.140625zm-2.0 -0.28125q0.03125 -0.734375 -0.15625 -1.34375q-0.171875 -0.625 -0.546875 -1.0625q-0.359375 -0.4375 -0.921875 -0.6875q-0.546875 -0.25 -1.28125 -0.25q-0.625 0 -1.15625 0.25q-0.515625 0.234375 -0.890625 0.6875q-0.375 0.4375 -0.609375 1.0625q-0.234375 0.609375 -0.28125 1.34375l5.84375 0zm5.518982 -4.6875l1.765625 0l0.046875 2.046875q0.984375 -1.1875 1.9375 -1.71875q0.96875 -0.53125 1.9375 -0.53125q1.734375 0 2.625 1.125q0.890625 1.109375 0.8125 3.3125l-1.9375 0q0.03125 -1.453125 -0.4375 -2.109375q-0.453125 -0.65625 -1.328125 -0.65625q-0.390625 0 -0.796875 0.140625q-0.390625 0.125 -0.8125 0.4375q-0.40625 0.296875 -0.875 0.78125q-0.453125 0.46875 -0.984375 1.140625l0 7.140625l-1.953125 0l0 -11.109375zm16.378418 7.625q0.375 0 0.703125 0.140625q0.34375 0.140625 0.59375 0.40625q0.25 0.25 0.390625 0.59375q0.140625 0.328125 0.140625 0.71875q0 0.375 -0.140625 0.703125q-0.140625 0.328125 -0.390625 0.578125q-0.25 0.25 -0.59375 0.390625q-0.328125 0.15625 -0.703125 0.15625q-0.390625 0 -0.71875 -0.15625q-0.328125 -0.140625 -0.578125 -0.390625q-0.25 -0.25 -0.40625 -0.578125q-0.140625 -0.328125 -0.140625 -0.703125q0 -0.390625 0.140625 -0.71875q0.15625 -0.34375 0.40625 -0.59375q0.25 -0.265625 0.578125 -0.40625q0.328125 -0.140625 0.71875 -0.140625zm16.753357 3.484375l-8.21875 0l0 -14.453125l8.21875 0l0 1.65625l-6.25 0l0 4.484375l6.015625 0l0 1.65625l-6.015625 0l0 4.96875l6.25 0l0 1.6875zm13.800293 0l-2.5625 0l-2.984375 -4.234375l-2.96875 4.234375l-2.484375 0l4.296875 -5.578125l-4.109375 -5.53125l2.46875 0l2.921875 4.265625l2.859375 -4.265625l2.390625 0l-4.171875 5.578125l4.34375 5.53125zm11.831482 -6.140625q0 0.40625 -0.015625 0.6875q-0.015625 0.28125 -0.03125 0.515625l-7.796875 0q0 1.703125 0.9375 2.625q0.953125 0.90625 2.75 0.90625q0.484375 0 0.96875 -0.03125q0.5 -0.046875 0.953125 -0.109375q0.453125 -0.0625 0.859375 -0.140625q0.421875 -0.09375 0.765625 -0.1875l0 1.578125q-0.78125 0.21875 -1.78125 0.359375q-0.984375 0.140625 -2.046875 0.140625q-1.421875 0 -2.453125 -0.390625q-1.03125 -0.390625 -1.6875 -1.125q-0.65625 -0.734375 -0.96875 -1.796875q-0.3125 -1.078125 -0.3125 -2.421875q0 -1.171875 0.328125 -2.21875q0.34375 -1.046875 0.984375 -1.828125q0.65625 -0.796875 1.59375 -1.265625q0.9375 -0.46875 2.140625 -0.46875q1.15625 0 2.046875 0.375q0.90625 0.359375 1.515625 1.03125q0.609375 0.671875 0.921875 1.625q0.328125 0.953125 0.328125 2.140625zm-2.0 -0.28125q0.03125 -0.734375 -0.15625 -1.34375q-0.171875 -0.625 -0.546875 -1.0625q-0.359375 -0.4375 -0.921875 -0.6875q-0.546875 -0.25 -1.28125 -0.25q-0.625 0 -1.15625 0.25q-0.515625 0.234375 -0.890625 0.6875q-0.375 0.4375 -0.609375 1.0625q-0.234375 0.609375 -0.28125 1.34375l5.84375 0zm13.706543 6.015625q-0.765625 0.28125 -1.5625 0.421875q-0.78125 0.140625 -1.625 0.140625q-2.625 0 -4.046875 -1.421875q-1.421875 -1.4375 -1.421875 -4.171875q0 -1.328125 0.40625 -2.390625q0.40625 -1.078125 1.140625 -1.84375q0.75 -0.765625 1.78125 -1.171875q1.03125 -0.421875 2.265625 -0.421875q0.859375 0 1.609375 0.125q0.765625 0.125 1.453125 0.40625l0 1.828125q-0.71875 -0.375 -1.46875 -0.546875q-0.75 -0.171875 -1.546875 -0.171875q-0.734375 0 -1.40625 0.28125q-0.65625 0.28125 -1.15625 0.8125q-0.484375 0.53125 -0.78125 1.296875q-0.28125 0.765625 -0.28125 1.71875q0 2.015625 0.96875 3.015625q0.984375 1.0 2.71875 1.0q0.78125 0 1.515625 -0.171875q0.75 -0.171875 1.4375 -0.53125l0 1.796875zm12.753357 0.40625l-1.734375 0l-0.0625 -1.796875q-0.5 0.578125 -0.953125 0.96875q-0.4375 0.375 -0.890625 0.609375q-0.4375 0.234375 -0.890625 0.328125q-0.4375 0.09375 -0.9375 0.09375q-1.71875 0 -2.59375 -1.0q-0.875 -1.015625 -0.875 -3.046875l0 -7.265625l1.921875 0l0 7.109375q0 2.546875 1.9375 2.546875q0.34375 0 0.6875 -0.09375q0.34375 -0.109375 0.703125 -0.359375q0.375 -0.265625 0.796875 -0.703125q0.421875 -0.453125 0.953125 -1.125l0 -7.375l1.9375 0l0 11.109375zm12.472168 -0.15625q-0.65625 0.171875 -1.359375 0.234375q-0.6875 0.078125 -1.40625 0.078125q-2.09375 0 -3.125 -0.9375q-1.015625 -0.953125 -1.015625 -2.90625l0 -5.796875l-3.109375 0l0 -1.625l3.109375 0l0 -3.046875l1.921875 -0.5l0 3.546875l4.984375 0l0 1.625l-4.984375 0l0 5.640625q0 1.1875 0.625 1.78125q0.640625 0.59375 1.875 0.59375q0.53125 0 1.15625 -0.078125q0.640625 -0.09375 1.328125 -0.265625l0 1.65625zm12.893982 -5.984375q0 0.40625 -0.015625 0.6875q-0.015625 0.28125 -0.03125 0.515625l-7.796875 0q0 1.703125 0.9375 2.625q0.953125 0.90625 2.75 0.90625q0.484375 0 0.96875 -0.03125q0.5 -0.046875 0.953125 -0.109375q0.453125 -0.0625 0.859375 -0.140625q0.421875 -0.09375 0.765625 -0.1875l0 1.578125q-0.78125 0.21875 -1.78125 0.359375q-0.984375 0.140625 -2.046875 0.140625q-1.421875 0 -2.453125 -0.390625q-1.03125 -0.390625 -1.6875 -1.125q-0.65625 -0.734375 -0.96875 -1.796875q-0.3125 -1.078125 -0.3125 -2.421875q0 -1.171875 0.328125 -2.21875q0.34375 -1.046875 0.984375 -1.828125q0.65625 -0.796875 1.59375 -1.265625q0.9375 -0.46875 2.140625 -0.46875q1.15625 0 2.046875 0.375q0.90625 0.359375 1.515625 1.03125q0.609375 0.671875 0.921875 1.625q0.328125 0.953125 0.328125 2.140625zm-2.0 -0.28125q0.03125 -0.734375 -0.15625 -1.34375q-0.171875 -0.625 -0.546875 -1.0625q-0.359375 -0.4375 -0.921875 -0.6875q-0.546875 -0.25 -1.28125 -0.25q-0.625 0 -1.15625 0.25q-0.515625 0.234375 -0.890625 0.6875q-0.375 0.4375 -0.609375 1.0625q-0.234375 0.609375 -0.28125 1.34375l5.84375 0zm11.722168 11.0625q-5.109375 -4.71875 -5.109375 -10.4375q0 -1.34375 0.265625 -2.671875q0.28125 -1.328125 0.875 -2.671875q0.609375 -1.34375 1.59375 -2.671875q1.0 -1.34375 2.421875 -2.65625l1.109375 1.140625q-4.296875 4.234375 -4.296875 9.390625q0 2.5625 1.078125 4.9375q1.09375 2.359375 3.21875 4.46875l-1.15625 1.171875zm14.597168 -7.671875q0 0.59375 -0.203125 1.0625q-0.1875 0.453125 -0.53125 0.8125q-0.34375 0.359375 -0.796875 0.625q-0.453125 0.25 -0.96875 0.421875q-0.51568604 0.15625 -1.062561 0.234375q-0.546875 0.078125 -1.0625 0.078125q-1.125 0 -2.078125 -0.109375q-0.9375 -0.09375 -1.84375 -0.3125l0 -1.765625q0.96875 0.265625 1.921875 0.421875q0.96875 0.140625 1.921875 0.140625q1.390625 0 2.046936 -0.375q0.671875 -0.375 0.671875 -1.078125q0 -0.296875 -0.109375 -0.53125q-0.109375 -0.25 -0.390625 -0.453125q-0.26568604 -0.21875 -0.84381104 -0.453125q-0.578125 -0.234375 -1.59375 -0.53125q-0.75 -0.21875 -1.390625 -0.5q-0.625 -0.28125 -1.09375 -0.671875q-0.46875 -0.390625 -0.734375 -0.90625q-0.265625 -0.515625 -0.265625 -1.234375q0 -0.46875 0.21875 -1.015625q0.21875 -0.546875 0.734375 -1.015625q0.515625 -0.484375 1.40625 -0.796875q0.890625 -0.328125 2.203125 -0.328125q0.65625 0 1.453186 0.078125q0.796875 0.078125 1.65625 0.25l0 1.71875q-0.90625 -0.21875 -1.71875 -0.328125q-0.81256104 -0.109375 -1.406311 -0.109375q-0.71875 0 -1.21875 0.109375q-0.484375 0.109375 -0.796875 0.3125q-0.296875 0.1875 -0.4375 0.453125q-0.125 0.25 -0.125 0.546875q0 0.3125 0.109375 0.5625q0.125 0.234375 0.4375 0.46875q0.3125 0.21875 0.875 0.453125q0.578125 0.21875 1.484375 0.484375q0.98443604 0.28125 1.656311 0.59375q0.671875 0.3125 1.09375 0.703125q0.421875 0.390625 0.59375 0.875q0.1875 0.484375 0.1875 1.109375zm5.925171 -13.4375q5.109375 4.71875 5.109375 10.5q0 1.203125 -0.25 2.484375q-0.234375 1.28125 -0.828125 2.625q-0.578125 1.34375 -1.578125 2.71875q-0.984375 1.390625 -2.484375 2.78125l-1.125 -1.140625q2.15625 -2.125 3.21875 -4.453125q1.0625 -2.328125 1.0625 -4.859375q0 -5.265625 -4.28125 -9.46875l1.15625 -1.1875z" fill-rule="nonzero"/></g></svg>