<svg version="1.1" viewBox="0.0 0.0 2024.7742782152231 417.45669291338584" fill="none" stroke="none" stroke-linecap="square" stroke-miterlimit="10" xmlns:xlink="http://www.w3.org/1999/xlink" xmlns="http://www.w3.org/2000/svg"><clipPath id="p.0"><path d="m0 0l2024.7743 0l0 417.4567l-2024.7743 0l0 -417.4567z" clip-rule="nonzero"/></clipPath><g clip-path="url(#p.0)"><path fill="#ffffff" d="m0 0l2024.7743 0l0 417.4567l-2024.7743 0z" fill-rule="evenodd"/><path fill="#ea9999" d="m1559.9667 95.13274l-45.95276 0l0 21.952759l45.95276 0z" fill-rule="evenodd"/><path stroke="#ea9999" stroke-width="1.0" stroke-linejoin="round" stroke-linecap="butt" d="m1559.9667 95.13274l-45.95276 0l0 21.952759l45.95276 0z" fill-rule="evenodd"/><path fill="#566d7e" d="m1591.6334 113.46345l-39.118042 0l0 21.952751l39.118042 0z" fill-rule="evenodd"/><path stroke="#566d7e" stroke-width="1.0" stroke-linejoin="round" stroke-linecap="butt" d="m1591.6334 113.46345l-39.118042 0l0 21.952751l39.118042 0z" fill-rule="evenodd"/><path fill="#9fc5e8" d="m1637.4633 114.851395l0 0c0 -19.038597 -15.433838 -34.472435 -34.472534 -34.472435l0 0c-9.142578 0 -17.910767 3.6319046 -24.37561 10.096741c-6.4648438 6.464836 -10.096802 15.23304 -10.096802 24.375694l0 0c0 19.038605 15.433838 34.472443 34.472412 34.472443l0 0c19.038696 0 34.472534 -15.433838 34.472534 -34.472443z" fill-rule="evenodd"/><path stroke="#9fc5e8" stroke-width="1.0" stroke-linejoin="round" stroke-linecap="butt" d="m1637.4633 114.851395l0 0c0 -19.038597 -15.433838 -34.472435 -34.472534 -34.472435l0 0c-9.142578 0 -17.910767 3.6319046 -24.37561 10.096741c-6.4648438 6.464836 -10.096802 15.23304 -10.096802 24.375694l0 0c0 19.038605 15.433838 34.472443 34.472412 34.472443l0 0c19.038696 0 34.472534 -15.433838 34.472534 -34.472443z" fill-rule="evenodd"/><path fill="#566d7e" d="m30.404404 113.964096l0 0c0 -31.284538 25.36113 -56.64567 56.645668 -56.64567l0 0c15.023369 0 29.431412 5.96801 40.054535 16.591137c10.623131 10.623123 16.591133 25.031166 16.591133 40.054535l0 0c0 31.284546 -25.36113 56.645676 -56.645668 56.645676l0 0c-31.284538 0 -56.645668 -25.36113 -56.645668 -56.645676z" fill-rule="evenodd"/><path stroke="#566d7e" stroke-width="1.0" stroke-linejoin="round" stroke-linecap="butt" d="m30.404404 113.964096l0 0c0 -31.284538 25.36113 -56.64567 56.645668 -56.64567l0 0c15.023369 0 29.431412 5.96801 40.054535 16.591137c10.623131 10.623123 16.591133 25.031166 16.591133 40.054535l0 0c0 31.284546 -25.36113 56.645676 -56.645668 56.645676l0 0c-31.284538 0 -56.645668 -25.36113 -56.645668 -56.645676z" fill-rule="evenodd"/><path fill="#7aaeae" d="m41.191803 113.964096l0 0c0 -25.32682 20.531448 -45.85827 45.85827 -45.85827l0 0c12.162369 0 23.8266 4.831482 32.42669 13.43158c8.600098 8.60009 13.43158 20.26432 13.43158 32.42669l0 0c0 25.326828 -20.531448 45.85826 -45.85827 45.85826l0 0c-25.32682 0 -45.85827 -20.531433 -45.85827 -45.85826z" fill-rule="evenodd"/><path stroke="#7aaeae" stroke-width="1.0" stroke-linejoin="round" stroke-linecap="butt" d="m41.191803 113.964096l0 0c0 -25.32682 20.531448 -45.85827 45.85827 -45.85827l0 0c12.162369 0 23.8266 4.831482 32.42669 13.43158c8.600098 8.60009 13.43158 20.26432 13.43158 32.42669l0 0c0 25.326828 -20.531448 45.85826 -45.85827 45.85826l0 0c-25.32682 0 -45.85827 -20.531433 -45.85827 -45.85826z" fill-rule="evenodd"/><path fill="#9fc5e8" d="m52.577633 113.964096l0 0c0 -19.038605 15.433834 -34.472443 34.47244 -34.472443l0 0c9.142662 0 17.910858 3.6319046 24.375694 10.096748c6.4648438 6.464836 10.096748 15.233032 10.096748 24.375694l0 0c0 19.038605 -15.433838 34.472443 -34.472443 34.472443l0 0c-19.038605 0 -34.47244 -15.433838 -34.47244 -34.472443z" fill-rule="evenodd"/><path stroke="#9fc5e8" stroke-width="1.0" stroke-linejoin="round" stroke-linecap="butt" d="m52.577633 113.964096l0 0c0 -19.038605 15.433834 -34.472443 34.47244 -34.472443l0 0c9.142662 0 17.910858 3.6319046 24.375694 10.096748c6.4648438 6.464836 10.096748 15.233032 10.096748 24.375694l0 0c0 19.038605 -15.433838 34.472443 -34.472443 34.472443l0 0c-19.038605 0 -34.47244 -15.433838 -34.47244 -34.472443z" fill-rule="evenodd"/><path fill="#3b72ab" d="m64.07369 113.964096l0 0c0 -12.689507 10.2868805 -22.97638 22.97638 -22.97638l0 0c6.093712 0 11.937843 2.420723 16.24675 6.7296295c4.3089066 4.3089066 6.7296295 10.153038 6.7296295 16.24675l0 0c0 12.689499 -10.286873 22.97638 -22.97638 22.97638l0 0c-12.689499 0 -22.97638 -10.2868805 -22.97638 -22.97638z" fill-rule="evenodd"/><path stroke="#3b72ab" stroke-width="1.0" stroke-linejoin="round" stroke-linecap="butt" d="m64.07369 113.964096l0 0c0 -12.689507 10.2868805 -22.97638 22.97638 -22.97638l0 0c6.093712 0 11.937843 2.420723 16.24675 6.7296295c4.3089066 4.3089066 6.7296295 10.153038 6.7296295 16.24675l0 0c0 12.689499 -10.286873 22.97638 -22.97638 22.97638l0 0c-12.689499 0 -22.97638 -10.2868805 -22.97638 -22.97638z" fill-rule="evenodd"/><path fill="#7f5c56" d="m168.0222 113.964096l0 0c0 -31.284538 25.36113 -56.64567 56.64566 -56.64567l0 0c15.023376 0 29.431412 5.96801 40.05455 16.591137c10.623108 10.623123 16.591125 25.031166 16.591125 40.054535l0 0c0 31.284546 -25.36113 56.645676 -56.645676 56.645676l0 0c-31.28453 0 -56.64566 -25.36113 -56.64566 -56.645676z" fill-rule="evenodd"/><path stroke="#7f5c56" stroke-width="1.0" stroke-linejoin="round" stroke-linecap="butt" d="m168.0222 113.964096l0 0c0 -31.284538 25.36113 -56.64567 56.64566 -56.64567l0 0c15.023376 0 29.431412 5.96801 40.05455 16.591137c10.623108 10.623123 16.591125 25.031166 16.591125 40.054535l0 0c0 31.284546 -25.36113 56.645676 -56.645676 56.645676l0 0c-31.28453 0 -56.64566 -25.36113 -56.64566 -56.645676z" fill-rule="evenodd"/><path fill="#b38481" d="m178.8096 113.964096l0 0c0 -25.32682 20.531448 -45.85827 45.85826 -45.85827l0 0c12.162369 0 23.8266 4.831482 32.426712 13.43158c8.600067 8.60009 13.431549 20.26432 13.431549 32.42669l0 0c0 25.326828 -20.531433 45.85826 -45.85826 45.85826l0 0c-25.326813 0 -45.85826 -20.531433 -45.85826 -45.85826z" fill-rule="evenodd"/><path stroke="#b38481" stroke-width="1.0" stroke-linejoin="round" stroke-linecap="butt" d="m178.8096 113.964096l0 0c0 -25.32682 20.531448 -45.85827 45.85826 -45.85827l0 0c12.162369 0 23.8266 4.831482 32.426712 13.43158c8.600067 8.60009 13.431549 20.26432 13.431549 32.42669l0 0c0 25.326828 -20.531433 45.85826 -45.85826 45.85826l0 0c-25.326813 0 -45.85826 -20.531433 -45.85826 -45.85826z" fill-rule="evenodd"/><path fill="#ea9999" d="m190.19542 113.964096l0 0c0 -19.038605 15.433838 -34.472443 34.472443 -34.472443l0 0c9.14267 0 17.910858 3.6319046 24.375702 10.096748c6.4648438 6.464836 10.096756 15.233032 10.096756 24.375694l0 0c0 19.038605 -15.433853 34.472443 -34.472458 34.472443l0 0c-19.038605 0 -34.472443 -15.433838 -34.472443 -34.472443z" fill-rule="evenodd"/><path stroke="#ea9999" stroke-width="1.0" stroke-linejoin="round" stroke-linecap="butt" d="m190.19542 113.964096l0 0c0 -19.038605 15.433838 -34.472443 34.472443 -34.472443l0 0c9.14267 0 17.910858 3.6319046 24.375702 10.096748c6.4648438 6.464836 10.096756 15.233032 10.096756 24.375694l0 0c0 19.038605 -15.433853 34.472443 -34.472458 34.472443l0 0c-19.038605 0 -34.472443 -15.433838 -34.472443 -34.472443z" fill-rule="evenodd"/><path fill="#d2583a" d="m201.69148 113.964096l0 0c0 -12.689507 10.2868805 -22.97638 22.97638 -22.97638l0 0c6.0937195 0 11.937851 2.420723 16.24675 6.7296295c4.308914 4.3089066 6.7296295 10.153038 6.7296295 16.24675l0 0c0 12.689499 -10.286865 22.97638 -22.97638 22.97638l0 0c-12.689499 0 -22.97638 -10.2868805 -22.97638 -22.97638z" fill-rule="evenodd"/><path stroke="#d2583a" stroke-width="1.0" stroke-linejoin="round" stroke-linecap="butt" d="m201.69148 113.964096l0 0c0 -12.689507 10.2868805 -22.97638 22.97638 -22.97638l0 0c6.0937195 0 11.937851 2.420723 16.24675 6.7296295c4.308914 4.3089066 6.7296295 10.153038 6.7296295 16.24675l0 0c0 12.689499 -10.286865 22.97638 -22.97638 22.97638l0 0c-12.689499 0 -22.97638 -10.2868805 -22.97638 -22.97638z" fill-rule="evenodd"/><path fill="#7f5c56" d="m1448.5378 112.73876c0.553833 20.641197 -10.158936 39.951134 -27.9646 50.406944c-17.805664 10.455795 -39.88806 10.403717 -57.644165 -0.13595581c-17.756226 -10.539673 -28.377686 -29.899918 -27.726562 -50.538277z" fill-rule="evenodd"/><path stroke="#7f5c56" stroke-width="1.0" stroke-linejoin="round" stroke-linecap="butt" d="m1448.5378 112.73876c0.553833 20.641197 -10.158936 39.951134 -27.9646 50.406944c-17.805664 10.455795 -39.88806 10.403717 -57.644165 -0.13595581c-17.756226 -10.539673 -28.377686 -29.899918 -27.726562 -50.538277z" fill-rule="evenodd"/><path fill="#566d7e" d="m1448.5098 115.42168c0.85913086 -20.765587 -9.713257 -40.336617 -27.551392 -51.00181c-17.838257 -10.665192 -40.082275 -10.714607 -57.96765 -0.12876892c-17.885376 10.585831 -28.544678 30.109695 -27.77771 50.87889z" fill-rule="evenodd"/><path stroke="#566d7e" stroke-width="1.0" stroke-linejoin="round" stroke-linecap="butt" d="m1448.5098 115.42168c0.85913086 -20.765587 -9.713257 -40.336617 -27.551392 -51.00181c-17.838257 -10.665192 -40.082275 -10.714607 -57.96765 -0.12876892c-17.885376 10.585831 -28.544678 30.109695 -27.77771 50.87889z" fill-rule="evenodd"/><path fill="#7f5c56" d="m1313.7925 113.329315c0.55371094 20.641205 -10.158936 39.951126 -27.9646 50.406937c-17.805664 10.455795 -39.88806 10.403717 -57.644287 -0.13595581c-17.756104 -10.539673 -28.377563 -29.899918 -27.72644 -50.538277z" fill-rule="evenodd"/><path stroke="#7f5c56" stroke-width="1.0" stroke-linejoin="round" stroke-linecap="butt" d="m1313.7925 113.329315c0.55371094 20.641205 -10.158936 39.951126 -27.9646 50.406937c-17.805664 10.455795 -39.88806 10.403717 -57.644287 -0.13595581c-17.756104 -10.539673 -28.377563 -29.899918 -27.72644 -50.538277z" fill-rule="evenodd"/><path fill="#566d7e" d="m1313.7644 116.01222c0.85913086 -20.76558 -9.713257 -40.33661 -27.551392 -51.0018c-17.838257 -10.665192 -40.082275 -10.714607 -57.96765 -0.12877655c-17.885498 10.585838 -28.544678 30.109695 -27.777832 50.87889z" fill-rule="evenodd"/><path stroke="#566d7e" stroke-width="1.0" stroke-linejoin="round" stroke-linecap="butt" d="m1313.7644 116.01222c0.85913086 -20.76558 -9.713257 -40.33661 -27.551392 -51.0018c-17.838257 -10.665192 -40.082275 -10.714607 -57.96765 -0.12877655c-17.885498 10.585838 -28.544678 30.109695 -27.777832 50.87889z" fill-rule="evenodd"/><path fill="#7f5c56" d="m1294.7764 112.84979l59.08667 0l0 21.952759l-59.08667 0z" fill-rule="evenodd"/><path stroke="#7f5c56" stroke-width="1.0" stroke-linejoin="round" stroke-linecap="butt" d="m1294.7764 112.84979l59.08667 0l0 21.952759l-59.08667 0z" fill-rule="evenodd"/><path fill="#566d7e" d="m1298.3116 94.6174l59.086548 0l0 21.952759l-59.086548 0z" fill-rule="evenodd"/><path stroke="#566d7e" stroke-width="1.0" stroke-linejoin="round" stroke-linecap="butt" d="m1298.3116 94.6174l59.086548 0l0 21.952759l-59.086548 0z" fill-rule="evenodd"/><path fill="#3d3c3a" d="m1291.4958 103.79851l101.48035 0l0 21.952751l-101.48035 0z" fill-rule="evenodd"/><path stroke="#3d3c3a" stroke-width="1.0" stroke-linejoin="round" stroke-linecap="butt" d="m1291.4958 103.79851l101.48035 0l0 21.952751l-101.48035 0z" fill-rule="evenodd"/><path fill="#b38481" d="m1346.0066 114.33656l0 0c0 -25.32682 20.531372 -45.85827 45.858154 -45.85827l0 0c12.162476 0 23.82666 4.831482 32.426758 13.43158c8.600098 8.60009 13.431519 20.26432 13.431519 32.42669l0 0c0 25.326828 -20.531372 45.85826 -45.858276 45.85826l0 0c-25.326782 0 -45.858154 -20.531433 -45.858154 -45.85826z" fill-rule="evenodd"/><path stroke="#b38481" stroke-width="1.0" stroke-linejoin="round" stroke-linecap="butt" d="m1346.0066 114.33656l0 0c0 -25.32682 20.531372 -45.85827 45.858154 -45.85827l0 0c12.162476 0 23.82666 4.831482 32.426758 13.43158c8.600098 8.60009 13.431519 20.26432 13.431519 32.42669l0 0c0 25.326828 -20.531372 45.85826 -45.858276 45.85826l0 0c-25.326782 0 -45.858154 -20.531433 -45.858154 -45.85826z" fill-rule="evenodd"/><path fill="#ea9999" d="m1357.3938 114.33656l0 0c0 -19.038605 15.433838 -34.472443 34.472412 -34.472443l0 0c9.1427 0 17.910889 3.6319122 24.375732 10.096748c6.4648438 6.464836 10.09668 15.233032 10.09668 24.375694l0 0c0 19.038605 -15.433838 34.472443 -34.472412 34.472443l0 0c-19.038574 0 -34.472412 -15.433838 -34.472412 -34.472443z" fill-rule="evenodd"/><path stroke="#ea9999" stroke-width="1.0" stroke-linejoin="round" stroke-linecap="butt" d="m1357.3938 114.33656l0 0c0 -19.038605 15.433838 -34.472443 34.472412 -34.472443l0 0c9.1427 0 17.910889 3.6319122 24.375732 10.096748c6.4648438 6.464836 10.09668 15.233032 10.09668 24.375694l0 0c0 19.038605 -15.433838 34.472443 -34.472412 34.472443l0 0c-19.038574 0 -34.472412 -15.433838 -34.472412 -34.472443z" fill-rule="evenodd"/><path fill="#7aaeae" d="m1211.3398 114.33656l0 0c0 -25.32682 20.531494 -45.85827 45.858276 -45.85827l0 0c12.1623535 0 23.82666 4.831482 32.426758 13.43158c8.600098 8.60009 13.431519 20.26432 13.431519 32.42669l0 0c0 25.326828 -20.531494 45.85826 -45.858276 45.85826l0 0c-25.326782 0 -45.858276 -20.531433 -45.858276 -45.85826z" fill-rule="evenodd"/><path stroke="#7aaeae" stroke-width="1.0" stroke-linejoin="round" stroke-linecap="butt" d="m1211.3398 114.33656l0 0c0 -25.32682 20.531494 -45.85827 45.858276 -45.85827l0 0c12.1623535 0 23.82666 4.831482 32.426758 13.43158c8.600098 8.60009 13.431519 20.26432 13.431519 32.42669l0 0c0 25.326828 -20.531494 45.85826 -45.858276 45.85826l0 0c-25.326782 0 -45.858276 -20.531433 -45.858276 -45.85826z" fill-rule="evenodd"/><path fill="#9fc5e8" d="m1222.7257 114.33656l0 0c0 -19.038605 15.433838 -34.472443 34.472412 -34.472443l0 0c9.1427 0 17.910889 3.6319122 24.375732 10.096748c6.4648438 6.464836 10.09668 15.233032 10.09668 24.375694l0 0c0 19.038605 -15.433838 34.472443 -34.472412 34.472443l0 0c-19.038574 0 -34.472412 -15.433838 -34.472412 -34.472443z" fill-rule="evenodd"/><path stroke="#9fc5e8" stroke-width="1.0" stroke-linejoin="round" stroke-linecap="butt" d="m1222.7257 114.33656l0 0c0 -19.038605 15.433838 -34.472443 34.472412 -34.472443l0 0c9.1427 0 17.910889 3.6319122 24.375732 10.096748c6.4648438 6.464836 10.09668 15.233032 10.09668 24.375694l0 0c0 19.038605 -15.433838 34.472443 -34.472412 34.472443l0 0c-19.038574 0 -34.472412 -15.433838 -34.472412 -34.472443z" fill-rule="evenodd"/><path fill="#3b72ab" d="m1234.2218 114.33656l0 0c0 -12.689507 10.286865 -22.97638 22.976318 -22.97638l0 0c6.09375 0 11.937866 2.420723 16.246826 6.7296295c4.308838 4.3089066 6.7296143 10.153038 6.7296143 16.24675l0 0c0 12.689507 -10.286865 22.97638 -22.97644 22.97638l0 0c-12.689453 0 -22.976318 -10.286873 -22.976318 -22.97638z" fill-rule="evenodd"/><path stroke="#3b72ab" stroke-width="1.0" stroke-linejoin="round" stroke-linecap="butt" d="m1234.2218 114.33656l0 0c0 -12.689507 10.286865 -22.97638 22.976318 -22.97638l0 0c6.09375 0 11.937866 2.420723 16.246826 6.7296295c4.308838 4.3089066 6.7296143 10.153038 6.7296143 16.24675l0 0c0 12.689507 -10.286865 22.97638 -22.97644 22.97638l0 0c-12.689453 0 -22.976318 -10.286873 -22.976318 -22.97638z" fill-rule="evenodd"/><path fill="#d2583a" d="m1368.8899 114.33656l0 0c0 -12.689507 10.286865 -22.97638 22.976318 -22.97638l0 0c6.09375 0 11.937866 2.420723 16.246826 6.7296295c4.308838 4.3089066 6.7296143 10.153038 6.7296143 16.24675l0 0c0 12.689507 -10.286865 22.97638 -22.97644 22.97638l0 0c-12.689453 0 -22.976318 -10.286873 -22.976318 -22.97638z" fill-rule="evenodd"/><path stroke="#d2583a" stroke-width="1.0" stroke-linejoin="round" stroke-linecap="butt" d="m1368.8899 114.33656l0 0c0 -12.689507 10.286865 -22.97638 22.976318 -22.97638l0 0c6.09375 0 11.937866 2.420723 16.246826 6.7296295c4.308838 4.3089066 6.7296143 10.153038 6.7296143 16.24675l0 0c0 12.689507 -10.286865 22.97638 -22.97644 22.97638l0 0c-12.689453 0 -22.976318 -10.286873 -22.976318 -22.97638z" fill-rule="evenodd"/><path fill="#ea9999" d="m1540.3761 114.851395l0 0c0 -19.038597 -15.433838 -34.472435 -34.472412 -34.472435l0 0c-9.1427 0 -17.910889 3.6319046 -24.375732 10.096741c-6.4648438 6.464836 -10.096802 15.23304 -10.096802 24.375694l0 0c0 19.038605 15.433838 34.472443 34.472534 34.472443l0 0c19.038574 0 34.472412 -15.433838 34.472412 -34.472443z" fill-rule="evenodd"/><path stroke="#ea9999" stroke-width="1.0" stroke-linejoin="round" stroke-linecap="butt" d="m1540.3761 114.851395l0 0c0 -19.038597 -15.433838 -34.472435 -34.472412 -34.472435l0 0c-9.1427 0 -17.910889 3.6319046 -24.375732 10.096741c-6.4648438 6.464836 -10.096802 15.23304 -10.096802 24.375694l0 0c0 19.038605 15.433838 34.472443 34.472534 34.472443l0 0c19.038574 0 34.472412 -15.433838 34.472412 -34.472443z" fill-rule="evenodd"/><path fill="#9fc5e8" d="m1590.1334 95.13274l-36.031494 0l0 21.952759l36.031494 0z" fill-rule="evenodd"/><path stroke="#9fc5e8" stroke-width="1.0" stroke-linejoin="round" stroke-linecap="butt" d="m1590.1334 95.13274l-36.031494 0l0 21.952759l36.031494 0z" fill-rule="evenodd"/><path fill="#566d7e" d="m1568.0979 114.673416l0 0c-0.0357666 12.299561 6.4991455 23.682068 17.138916 29.852554c10.6397705 6.1704865 23.764893 6.1895905 34.422607 0.05014038c10.657715 -6.1394653 17.225708 -17.502892 17.225708 -29.802505l-34.393677 0z" fill-rule="evenodd"/><path stroke="#566d7e" stroke-width="1.0" stroke-linejoin="round" stroke-linecap="butt" d="m1568.0979 114.673416l0 0c-0.0357666 12.299561 6.4991455 23.682068 17.138916 29.852554c10.6397705 6.1704865 23.764893 6.1895905 34.422607 0.05014038c10.657715 -6.1394653 17.225708 -17.502892 17.225708 -29.802505l-34.393677 0z" fill-rule="evenodd"/><path fill="#7aaeae" d="m1602.8914 149.24458l0 0c12.299561 0.035827637 23.682007 -6.499069 29.85254 -17.138885c6.17041 -10.639824 6.189575 -23.76484 0.050048828 -34.422592c-6.1394043 -10.657745 -17.502808 -17.225777 -29.80249 -17.225777l0 34.3937z" fill-rule="evenodd"/><path stroke="#7aaeae" stroke-width="1.0" stroke-linejoin="round" stroke-linecap="butt" d="m1602.8914 149.24458l0 0c12.299561 0.035827637 23.682007 -6.499069 29.85254 -17.138885c6.17041 -10.639824 6.189575 -23.76484 0.050048828 -34.422592c-6.1394043 -10.657745 -17.502808 -17.225777 -29.80249 -17.225777l0 34.3937z" fill-rule="evenodd"/><path fill="#7f5c56" d="m1471.5979 114.673416l0 0c-0.0357666 12.299561 6.4991455 23.682068 17.138916 29.852554c10.6397705 6.1704865 23.764893 6.1895905 34.422607 0.05014038c10.657715 -6.1394653 17.225708 -17.502892 17.225708 -29.802505l-34.393677 0z" fill-rule="evenodd"/><path stroke="#7f5c56" stroke-width="1.0" stroke-linejoin="round" stroke-linecap="butt" d="m1471.5979 114.673416l0 0c-0.0357666 12.299561 6.4991455 23.682068 17.138916 29.852554c10.6397705 6.1704865 23.764893 6.1895905 34.422607 0.05014038c10.657715 -6.1394653 17.225708 -17.502892 17.225708 -29.802505l-34.393677 0z" fill-rule="evenodd"/><path fill="#7f5c56" d="m1553.1322 108.97788l-39.118164 0l0 26.425194l39.118164 0z" fill-rule="evenodd"/><path stroke="#7f5c56" stroke-width="1.0" stroke-linejoin="round" stroke-linecap="butt" d="m1553.1322 108.97788l-39.118164 0l0 26.425194l39.118164 0z" fill-rule="evenodd"/><path fill="#3d3c3a" d="m1610.2294 104.29759l-101.48035 0l0 21.952759l101.48035 0z" fill-rule="evenodd"/><path stroke="#3d3c3a" stroke-width="1.0" stroke-linejoin="round" stroke-linecap="butt" d="m1610.2294 104.29759l-101.48035 0l0 21.952759l101.48035 0z" fill-rule="evenodd"/><path fill="#d2583a" d="m1625.9672 114.851395l0 0c0 -12.689499 -10.286865 -22.976372 -22.97644 -22.976372l0 0c-6.093628 0 -11.937866 2.4207153 -16.246704 6.729622c-4.30896 4.3089066 -6.7296143 10.153038 -6.7296143 16.24675l0 0c0 12.689507 10.286865 22.97638 22.976318 22.97638l0 0c12.689575 0 22.97644 -10.286873 22.97644 -22.97638z" fill-rule="evenodd"/><path stroke="#d2583a" stroke-width="1.0" stroke-linejoin="round" stroke-linecap="butt" d="m1625.9672 114.851395l0 0c0 -12.689499 -10.286865 -22.976372 -22.97644 -22.976372l0 0c-6.093628 0 -11.937866 2.4207153 -16.246704 6.729622c-4.30896 4.3089066 -6.7296143 10.153038 -6.7296143 16.24675l0 0c0 12.689507 10.286865 22.97638 22.976318 22.97638l0 0c12.689575 0 22.97644 -10.286873 22.97644 -22.97638z" fill-rule="evenodd"/><path fill="#b38481" d="m1506.005 149.24458l0 0c-12.299561 0.035827637 -23.682007 -6.499069 -29.85254 -17.138885c-6.17041 -10.639824 -6.189575 -23.76484 -0.050048828 -34.422592c6.1394043 -10.657745 17.502808 -17.225777 29.80249 -17.225777l0 34.3937z" fill-rule="evenodd"/><path stroke="#b38481" stroke-width="1.0" stroke-linejoin="round" stroke-linecap="butt" d="m1506.005 149.24458l0 0c-12.299561 0.035827637 -23.682007 -6.499069 -29.85254 -17.138885c-6.17041 -10.639824 -6.189575 -23.76484 -0.050048828 -34.422592c6.1394043 -10.657745 17.502808 -17.225777 29.80249 -17.225777l0 34.3937z" fill-rule="evenodd"/><path fill="#3b72ab" d="m1528.88 114.851395l0 0c0 -12.689499 -10.286865 -22.976372 -22.976318 -22.976372l0 0c-6.09375 0 -11.937866 2.4207153 -16.246826 6.729622c-4.308838 4.3089066 -6.7296143 10.153038 -6.7296143 16.24675l0 0c0 12.689507 10.286865 22.97638 22.97644 22.97638l0 0c12.689453 0 22.976318 -10.286873 22.976318 -22.97638z" fill-rule="evenodd"/><path stroke="#3b72ab" stroke-width="1.0" stroke-linejoin="round" stroke-linecap="butt" d="m1528.88 114.851395l0 0c0 -12.689499 -10.286865 -22.976372 -22.976318 -22.976372l0 0c-6.09375 0 -11.937866 2.4207153 -16.246826 6.729622c-4.308838 4.3089066 -6.7296143 10.153038 -6.7296143 16.24675l0 0c0 12.689507 10.286865 22.97638 22.97644 22.97638l0 0c12.689453 0 22.976318 -10.286873 22.976318 -22.97638z" fill-rule="evenodd"/><path fill="#3d3c3a" d="m477.87595 98.18415l-101.480316 0l0 31.55906l101.480316 0z" fill-rule="evenodd"/><path stroke="#3d3c3a" stroke-width="1.0" stroke-linejoin="round" stroke-linecap="butt" d="m477.87595 98.18415l-101.480316 0l0 31.55906l101.480316 0z" fill-rule="evenodd"/><path fill="#566d7e" d="m418.32483 113.96368l0 0c0 -31.284538 -25.361115 -56.645664 -56.64566 -56.645664l0 0c-15.023376 0 -29.431396 5.968006 -40.054535 16.59113c-10.623108 10.623123 -16.591125 25.031174 -16.591125 40.054535l0 0c0 31.284538 25.361115 56.645668 56.64566 56.645668l0 0c31.284546 0 56.64566 -25.36113 56.64566 -56.645668z" fill-rule="evenodd"/><path stroke="#566d7e" stroke-width="1.0" stroke-linejoin="round" stroke-linecap="butt" d="m418.32483 113.96368l0 0c0 -31.284538 -25.361115 -56.645664 -56.64566 -56.645664l0 0c-15.023376 0 -29.431396 5.968006 -40.054535 16.59113c-10.623108 10.623123 -16.591125 25.031174 -16.591125 40.054535l0 0c0 31.284538 25.361115 56.645668 56.64566 56.645668l0 0c31.284546 0 56.64566 -25.36113 56.64566 -56.645668z" fill-rule="evenodd"/><path fill="#7f5c56" d="m568.9929 113.96368l0 0c0 -31.284538 -25.361084 -56.645664 -56.64563 -56.645664l0 0c-15.023376 0 -29.431427 5.968006 -40.054565 16.59113c-10.623108 10.623123 -16.591125 25.031174 -16.591125 40.054535l0 0c0 31.284538 25.361115 56.645668 56.64569 56.645668l0 0c31.284546 0 56.64563 -25.36113 56.64563 -56.645668z" fill-rule="evenodd"/><path stroke="#7f5c56" stroke-width="1.0" stroke-linejoin="round" stroke-linecap="butt" d="m568.9929 113.96368l0 0c0 -31.284538 -25.361084 -56.645664 -56.64563 -56.645664l0 0c-15.023376 0 -29.431427 5.968006 -40.054565 16.59113c-10.623108 10.623123 -16.591125 25.031174 -16.591125 40.054535l0 0c0 31.284538 25.361115 56.645668 56.64569 56.645668l0 0c31.284546 0 56.64563 -25.36113 56.64563 -56.645668z" fill-rule="evenodd"/><path fill="#b38481" d="m558.2055 113.96368l0 0c0 -25.32682 -20.531433 -45.85826 -45.858215 -45.85826l0 0c-12.162384 0 -23.82663 4.831482 -32.426727 13.431572c-8.600067 8.600098 -13.431549 20.26432 -13.431549 32.42669l0 0c0 25.32682 20.531433 45.85827 45.858276 45.85827l0 0c25.326782 0 45.858215 -20.531448 45.858215 -45.85827z" fill-rule="evenodd"/><path stroke="#b38481" stroke-width="1.0" stroke-linejoin="round" stroke-linecap="butt" d="m558.2055 113.96368l0 0c0 -25.32682 -20.531433 -45.85826 -45.858215 -45.85826l0 0c-12.162384 0 -23.82663 4.831482 -32.426727 13.431572c-8.600067 8.600098 -13.431549 20.26432 -13.431549 32.42669l0 0c0 25.32682 20.531433 45.85827 45.858276 45.85827l0 0c25.326782 0 45.858215 -20.531448 45.858215 -45.85827z" fill-rule="evenodd"/><path fill="#ea9999" d="m546.8197 113.96368l0 0c0 -19.038597 -15.433838 -34.472435 -34.472412 -34.472435l0 0c-9.14267 0 -17.910889 3.6319046 -24.375732 10.096741c-6.464813 6.464836 -10.096741 15.23304 -10.096741 24.375694l0 0c0 19.038612 15.433838 34.47245 34.472473 34.47245l0 0c19.038574 0 34.472412 -15.433838 34.472412 -34.47245z" fill-rule="evenodd"/><path stroke="#ea9999" stroke-width="1.0" stroke-linejoin="round" stroke-linecap="butt" d="m546.8197 113.96368l0 0c0 -19.038597 -15.433838 -34.472435 -34.472412 -34.472435l0 0c-9.14267 0 -17.910889 3.6319046 -24.375732 10.096741c-6.464813 6.464836 -10.096741 15.23304 -10.096741 24.375694l0 0c0 19.038612 15.433838 34.47245 34.472473 34.47245l0 0c19.038574 0 34.472412 -15.433838 34.472412 -34.47245z" fill-rule="evenodd"/><path fill="#d2583a" d="m535.32367 113.96368l0 0c0 -12.689499 -10.286926 -22.976372 -22.97638 -22.976372l0 0c-6.09375 0 -11.937866 2.4207153 -16.246765 6.729622c-4.3089294 4.3089066 -6.729645 10.153038 -6.729645 16.24675l0 0c0 12.689507 10.286896 22.976387 22.97641 22.976387l0 0c12.689453 0 22.97638 -10.2868805 22.97638 -22.976387z" fill-rule="evenodd"/><path stroke="#d2583a" stroke-width="1.0" stroke-linejoin="round" stroke-linecap="butt" d="m535.32367 113.96368l0 0c0 -12.689499 -10.286926 -22.976372 -22.97638 -22.976372l0 0c-6.09375 0 -11.937866 2.4207153 -16.246765 6.729622c-4.3089294 4.3089066 -6.729645 10.153038 -6.729645 16.24675l0 0c0 12.689507 10.286896 22.976387 22.97641 22.976387l0 0c12.689453 0 22.97638 -10.2868805 22.97638 -22.976387z" fill-rule="evenodd"/><path fill="#7aaeae" d="m407.53745 113.96368l0 0c0 -25.32682 -20.531464 -45.85826 -45.858276 -45.85826l0 0c-12.1623535 0 -23.8266 4.831482 -32.426697 13.431572c-8.600098 8.600098 -13.43158 20.26432 -13.43158 32.42669l0 0c0 25.32682 20.531464 45.85827 45.858276 45.85827l0 0c25.326813 0 45.858276 -20.531448 45.858276 -45.85827z" fill-rule="evenodd"/><path stroke="#7aaeae" stroke-width="1.0" stroke-linejoin="round" stroke-linecap="butt" d="m407.53745 113.96368l0 0c0 -25.32682 -20.531464 -45.85826 -45.858276 -45.85826l0 0c-12.1623535 0 -23.8266 4.831482 -32.426697 13.431572c-8.600098 8.600098 -13.43158 20.26432 -13.43158 32.42669l0 0c0 25.32682 20.531464 45.85827 45.858276 45.85827l0 0c25.326813 0 45.858276 -20.531448 45.858276 -45.85827z" fill-rule="evenodd"/><path fill="#9fc5e8" d="m396.1516 113.96368l0 0c0 -19.038597 -15.433838 -34.472435 -34.472443 -34.472435l0 0c-9.14267 0 -17.910858 3.6319046 -24.375702 10.096741c-6.464813 6.464836 -10.096741 15.23304 -10.096741 24.375694l0 0c0 19.038612 15.433838 34.47245 34.472443 34.47245l0 0c19.038605 0 34.472443 -15.433838 34.472443 -34.47245z" fill-rule="evenodd"/><path stroke="#9fc5e8" stroke-width="1.0" stroke-linejoin="round" stroke-linecap="butt" d="m396.1516 113.96368l0 0c0 -19.038597 -15.433838 -34.472435 -34.472443 -34.472435l0 0c-9.14267 0 -17.910858 3.6319046 -24.375702 10.096741c-6.464813 6.464836 -10.096741 15.23304 -10.096741 24.375694l0 0c0 19.038612 15.433838 34.47245 34.472443 34.47245l0 0c19.038605 0 34.472443 -15.433838 34.472443 -34.47245z" fill-rule="evenodd"/><path fill="#3b72ab" d="m384.65555 113.96368l0 0c0 -12.689499 -10.286865 -22.976372 -22.97638 -22.976372l0 0c-6.0937195 0 -11.937836 2.4207153 -16.246735 6.729622c-4.3089294 4.3089066 -6.729645 10.153038 -6.729645 16.24675l0 0c0 12.689507 10.286865 22.976387 22.97638 22.976387l0 0c12.689514 0 22.97638 -10.2868805 22.97638 -22.976387z" fill-rule="evenodd"/><path stroke="#3b72ab" stroke-width="1.0" stroke-linejoin="round" stroke-linecap="butt" d="m384.65555 113.96368l0 0c0 -12.689499 -10.286865 -22.976372 -22.97638 -22.976372l0 0c-6.0937195 0 -11.937836 2.4207153 -16.246735 6.729622c-4.3089294 4.3089066 -6.729645 10.153038 -6.729645 16.24675l0 0c0 12.689507 10.286865 22.976387 22.97638 22.976387l0 0c12.689514 0 22.97638 -10.2868805 22.97638 -22.976387z" fill-rule="evenodd"/><path fill="#566d7e" d="m758.95197 89.67534l-79.93701 0l0 49.448822l79.93701 0z" fill-rule="evenodd"/><path stroke="#566d7e" stroke-width="1.0" stroke-linejoin="round" stroke-linecap="butt" d="m758.95197 89.67534l-79.93701 0l0 49.448822l79.93701 0z" fill-rule="evenodd"/><path fill="#566d7e" d="m868.0347 113.96257l0 0c0 -37.53797 -30.430542 -67.968506 -67.968506 -67.968506l0 0c-18.026367 0 -35.314453 7.1609497 -48.061035 19.907516c-12.746521 12.746567 -19.90747 30.034622 -19.90747 48.06099l0 0c0 37.537964 30.430542 67.968506 67.968506 67.968506l0 0c37.537964 0 67.968506 -30.430542 67.968506 -67.968506z" fill-rule="evenodd"/><path stroke="#566d7e" stroke-width="1.0" stroke-linejoin="round" stroke-linecap="butt" d="m868.0347 113.96257l0 0c0 -37.53797 -30.430542 -67.968506 -67.968506 -67.968506l0 0c-18.026367 0 -35.314453 7.1609497 -48.061035 19.907516c-12.746521 12.746567 -19.90747 30.034622 -19.90747 48.06099l0 0c0 37.537964 30.430542 67.968506 67.968506 67.968506l0 0c37.537964 0 67.968506 -30.430542 67.968506 -67.968506z" fill-rule="evenodd"/><path fill="#566d7e" d="m706.0426 113.96257l0 0c0 -31.284538 -25.361145 -56.645668 -56.64569 -56.645668l0 0c-15.023376 0 -29.431396 5.968006 -40.054565 16.591133c-10.623108 10.623123 -16.591125 25.031166 -16.591125 40.054535l0 0c0 31.284546 25.361145 56.645676 56.64569 56.645676l0 0c31.284546 0 56.64569 -25.36113 56.64569 -56.645676z" fill-rule="evenodd"/><path stroke="#566d7e" stroke-width="1.0" stroke-linejoin="round" stroke-linecap="butt" d="m706.0426 113.96257l0 0c0 -31.284538 -25.361145 -56.645668 -56.64569 -56.645668l0 0c-15.023376 0 -29.431396 5.968006 -40.054565 16.591133c-10.623108 10.623123 -16.591125 25.031166 -16.591125 40.054535l0 0c0 31.284546 25.361145 56.645676 56.64569 56.645676l0 0c31.284546 0 56.64569 -25.36113 56.64569 -56.645676z" fill-rule="evenodd"/><path fill="#3d3c3a" d="m765.5937 98.183044l-101.48035 0l0 31.559052l101.48035 0z" fill-rule="evenodd"/><path stroke="#3d3c3a" stroke-width="1.0" stroke-linejoin="round" stroke-linecap="butt" d="m765.5937 98.183044l-101.48035 0l0 31.559052l101.48035 0z" fill-rule="evenodd"/><path fill="#7f5c56" d="m856.7107 113.96257l0 0c0 -31.284538 -25.361145 -56.645668 -56.64569 -56.645668l0 0c-15.023376 0 -29.431396 5.968006 -40.054565 16.591133c-10.623108 10.623123 -16.591125 25.031166 -16.591125 40.054535l0 0c0 31.284546 25.361145 56.645676 56.64569 56.645676l0 0c31.284546 0 56.64569 -25.36113 56.64569 -56.645676z" fill-rule="evenodd"/><path stroke="#7f5c56" stroke-width="1.0" stroke-linejoin="round" stroke-linecap="butt" d="m856.7107 113.96257l0 0c0 -31.284538 -25.361145 -56.645668 -56.64569 -56.645668l0 0c-15.023376 0 -29.431396 5.968006 -40.054565 16.591133c-10.623108 10.623123 -16.591125 25.031166 -16.591125 40.054535l0 0c0 31.284546 25.361145 56.645676 56.64569 56.645676l0 0c31.284546 0 56.64569 -25.36113 56.64569 -56.645676z" fill-rule="evenodd"/><path fill="#b38481" d="m845.9233 113.96257l0 0c0 -25.32682 -20.531433 -45.85827 -45.858276 -45.85827l0 0c-12.1623535 0 -23.8266 4.831482 -32.426697 13.43158c-8.600098 8.60009 -13.43158 20.26432 -13.43158 32.42669l0 0c0 25.326828 20.531433 45.85826 45.858276 45.85826l0 0c25.326843 0 45.858276 -20.531433 45.858276 -45.85826z" fill-rule="evenodd"/><path stroke="#b38481" stroke-width="1.0" stroke-linejoin="round" stroke-linecap="butt" d="m845.9233 113.96257l0 0c0 -25.32682 -20.531433 -45.85827 -45.858276 -45.85827l0 0c-12.1623535 0 -23.8266 4.831482 -32.426697 13.43158c-8.600098 8.60009 -13.43158 20.26432 -13.43158 32.42669l0 0c0 25.326828 20.531433 45.85826 45.858276 45.85826l0 0c25.326843 0 45.858276 -20.531433 45.858276 -45.85826z" fill-rule="evenodd"/><path fill="#ea9999" d="m834.5374 113.96257l0 0c0 -19.038605 -15.433838 -34.472443 -34.472412 -34.472443l0 0c-9.142639 0 -17.910889 3.6319122 -24.375671 10.096748c-6.4648438 6.464836 -10.096741 15.233032 -10.096741 24.375694l0 0c0 19.038605 15.433838 34.472443 34.472412 34.472443l0 0c19.038574 0 34.472412 -15.433838 34.472412 -34.472443z" fill-rule="evenodd"/><path stroke="#ea9999" stroke-width="1.0" stroke-linejoin="round" stroke-linecap="butt" d="m834.5374 113.96257l0 0c0 -19.038605 -15.433838 -34.472443 -34.472412 -34.472443l0 0c-9.142639 0 -17.910889 3.6319122 -24.375671 10.096748c-6.4648438 6.464836 -10.096741 15.233032 -10.096741 24.375694l0 0c0 19.038605 15.433838 34.472443 34.472412 34.472443l0 0c19.038574 0 34.472412 -15.433838 34.472412 -34.472443z" fill-rule="evenodd"/><path fill="#d2583a" d="m823.0414 113.96257l0 0c0 -12.689507 -10.286865 -22.97638 -22.97638 -22.97638l0 0c-6.093689 0 -11.937866 2.420723 -16.246765 6.7296295c-4.308899 4.3089066 -6.7296143 10.153038 -6.7296143 16.24675l0 0c0 12.689507 10.286865 22.97638 22.97638 22.97638l0 0c12.689514 0 22.97638 -10.286873 22.97638 -22.97638z" fill-rule="evenodd"/><path stroke="#d2583a" stroke-width="1.0" stroke-linejoin="round" stroke-linecap="butt" d="m823.0414 113.96257l0 0c0 -12.689507 -10.286865 -22.97638 -22.97638 -22.97638l0 0c-6.093689 0 -11.937866 2.420723 -16.246765 6.7296295c-4.308899 4.3089066 -6.7296143 10.153038 -6.7296143 16.24675l0 0c0 12.689507 10.286865 22.97638 22.97638 22.97638l0 0c12.689514 0 22.97638 -10.286873 22.97638 -22.97638z" fill-rule="evenodd"/><path fill="#7aaeae" d="m695.2552 113.96257l0 0c0 -25.32682 -20.531433 -45.85827 -45.858276 -45.85827l0 0c-12.1623535 0 -23.8266 4.831482 -32.426697 13.43158c-8.600098 8.60009 -13.43158 20.26432 -13.43158 32.42669l0 0c0 25.326828 20.531433 45.85826 45.858276 45.85826l0 0c25.326843 0 45.858276 -20.531433 45.858276 -45.85826z" fill-rule="evenodd"/><path stroke="#7aaeae" stroke-width="1.0" stroke-linejoin="round" stroke-linecap="butt" d="m695.2552 113.96257l0 0c0 -25.32682 -20.531433 -45.85827 -45.858276 -45.85827l0 0c-12.1623535 0 -23.8266 4.831482 -32.426697 13.43158c-8.600098 8.60009 -13.43158 20.26432 -13.43158 32.42669l0 0c0 25.326828 20.531433 45.85826 45.858276 45.85826l0 0c25.326843 0 45.858276 -20.531433 45.858276 -45.85826z" fill-rule="evenodd"/><path fill="#9fc5e8" d="m683.8693 113.96257l0 0c0 -19.038605 -15.433838 -34.472443 -34.472412 -34.472443l0 0c-9.142639 0 -17.910889 3.6319122 -24.375671 10.096748c-6.4648438 6.464836 -10.096802 15.233032 -10.096802 24.375694l0 0c0 19.038605 15.433838 34.472443 34.472473 34.472443l0 0c19.038574 0 34.472412 -15.433838 34.472412 -34.472443z" fill-rule="evenodd"/><path stroke="#9fc5e8" stroke-width="1.0" stroke-linejoin="round" stroke-linecap="butt" d="m683.8693 113.96257l0 0c0 -19.038605 -15.433838 -34.472443 -34.472412 -34.472443l0 0c-9.142639 0 -17.910889 3.6319122 -24.375671 10.096748c-6.4648438 6.464836 -10.096802 15.233032 -10.096802 24.375694l0 0c0 19.038605 15.433838 34.472443 34.472473 34.472443l0 0c19.038574 0 34.472412 -15.433838 34.472412 -34.472443z" fill-rule="evenodd"/><path fill="#3b72ab" d="m672.3733 113.96257l0 0c0 -12.689507 -10.286865 -22.97638 -22.97638 -22.97638l0 0c-6.093689 0 -11.937866 2.420723 -16.246765 6.7296295c-4.308899 4.3089066 -6.7296143 10.153038 -6.7296143 16.24675l0 0c0 12.689507 10.286865 22.97638 22.97638 22.97638l0 0c12.689514 0 22.97638 -10.286873 22.97638 -22.97638z" fill-rule="evenodd"/><path stroke="#3b72ab" stroke-width="1.0" stroke-linejoin="round" stroke-linecap="butt" d="m672.3733 113.96257l0 0c0 -12.689507 -10.286865 -22.97638 -22.97638 -22.97638l0 0c-6.093689 0 -11.937866 2.420723 -16.246765 6.7296295c-4.308899 4.3089066 -6.7296143 10.153038 -6.7296143 16.24675l0 0c0 12.689507 10.286865 22.97638 22.97638 22.97638l0 0c12.689514 0 22.97638 -10.286873 22.97638 -22.97638z" fill-rule="evenodd"/><path fill="#efefef" d="m1663.9188 115.2738l0 0c0 -12.689499 10.286865 -22.976372 22.97644 -22.976372l0 0c6.093628 0 11.937744 2.4207153 16.246704 6.729622c4.30896 4.3089066 6.7296143 10.153038 6.7296143 16.24675l0 0c0 12.689507 -10.286865 22.97638 -22.976318 22.97638l0 0c-12.689575 0 -22.97644 -10.286873 -22.97644 -22.97638z" fill-rule="evenodd"/><path stroke="#000000" stroke-width="3.0" stroke-linejoin="round" stroke-linecap="butt" d="m1663.9188 115.2738l0 0c0 -12.689499 10.286865 -22.976372 22.97644 -22.976372l0 0c6.093628 0 11.937744 2.4207153 16.246704 6.729622c4.30896 4.3089066 6.7296143 10.153038 6.7296143 16.24675l0 0c0 12.689507 -10.286865 22.97638 -22.976318 22.97638l0 0c-12.689575 0 -22.97644 -10.286873 -22.97644 -22.97638z" fill-rule="evenodd"/><path fill="#000000" d="m1686.8152 106.563805q2.484375 0 3.890625 1.78125q1.6875 2.109375 1.6875 7.0q0 4.875 -1.6875 7.0q-1.40625 1.765625 -3.890625 1.765625q-2.515625 0 -4.046875 -1.921875q-1.53125 -1.9375 -1.53125 -6.890625q0 -4.84375 1.6875 -6.984375q1.390625 -1.75 3.890625 -1.75zm0 2.734375q-0.609375 0 -1.078125 0.375q-0.46875 0.375 -0.71875 1.359375q-0.34375 1.28125 -0.34375 4.3125q0 3.015625 0.296875 4.15625q0.3125 1.125 0.765625 1.5q0.46875 0.375 1.078125 0.375q0.59375 0 1.0625 -0.375q0.46875 -0.390625 0.71875 -1.375q0.34375 -1.265625 0.34375 -4.28125q0 -3.03125 -0.3125 -4.15625q-0.296875 -1.140625 -0.765625 -1.515625q-0.453125 -0.375 -1.046875 -0.375z" fill-rule="nonzero"/><path fill="#98afc7" d="m30.404404 345.96408l0 0c0 -31.284515 25.36113 -56.64566 56.645668 -56.64566l0 0c15.023369 0 29.431412 5.9680176 40.054535 16.591125c10.623131 10.623138 16.591133 25.031189 16.591133 40.054535l0 0c0 31.284546 -25.36113 56.64569 -56.645668 56.64569l0 0c-31.284538 0 -56.645668 -25.361145 -56.645668 -56.64569z" fill-rule="evenodd"/><path stroke="#98afc7" stroke-width="1.0" stroke-linejoin="round" stroke-linecap="butt" d="m30.404404 345.96408l0 0c0 -31.284515 25.36113 -56.64566 56.645668 -56.64566l0 0c15.023369 0 29.431412 5.9680176 40.054535 16.591125c10.623131 10.623138 16.591133 25.031189 16.591133 40.054535l0 0c0 31.284546 -25.36113 56.64569 -56.645668 56.64569l0 0c-31.284538 0 -56.645668 -25.361145 -56.645668 -56.64569z" fill-rule="evenodd"/><path fill="#b3d9d9" d="m167.77579 345.77954l0 0c0 -31.284546 25.36113 -56.64569 56.645676 -56.64569l0 0c15.023361 0 29.431412 5.9680176 40.05455 16.591125c10.623108 10.623138 16.591125 25.031189 16.591125 40.054565l0 0c0 31.284515 -25.36113 56.64566 -56.645676 56.64566l0 0c-31.284546 0 -56.645676 -25.361145 -56.645676 -56.64566z" fill-rule="evenodd"/><path stroke="#b3d9d9" stroke-width="1.0" stroke-linejoin="round" stroke-linecap="butt" d="m167.77579 345.77954l0 0c0 -31.284546 25.36113 -56.64569 56.645676 -56.64569l0 0c15.023361 0 29.431412 5.9680176 40.05455 16.591125c10.623108 10.623138 16.591125 25.031189 16.591125 40.054565l0 0c0 31.284515 -25.36113 56.64566 -56.645676 56.64566l0 0c-31.284546 0 -56.645676 -25.361145 -56.645676 -56.64566z" fill-rule="evenodd"/><path fill="#aaf0d1" d="m374.99103 345.77954l0 0c0 -31.284546 25.361115 -56.64569 56.64566 -56.64569l0 0c15.023376 0 29.431396 5.9680176 40.054535 16.591125c10.623138 10.623138 16.591125 25.031189 16.591125 40.054565l0 0c0 31.284515 -25.361115 56.64566 -56.64566 56.64566l0 0c-31.284546 0 -56.64566 -25.361145 -56.64566 -56.64566z" fill-rule="evenodd"/><path stroke="#aaf0d1" stroke-width="1.0" stroke-linejoin="round" stroke-linecap="butt" d="m374.99103 345.77954l0 0c0 -31.284546 25.361115 -56.64569 56.64566 -56.64569l0 0c15.023376 0 29.431396 5.9680176 40.054535 16.591125c10.623138 10.623138 16.591125 25.031189 16.591125 40.054565l0 0c0 31.284515 -25.361115 56.64566 -56.64566 56.64566l0 0c-31.284546 0 -56.64566 -25.361145 -56.64566 -56.64566z" fill-rule="evenodd"/><path fill="#5e7d7e" d="m658.84454 345.77954l0 0c0 -31.284546 25.361145 -56.64569 56.64569 -56.64569l0 0c15.023315 0 29.431396 5.9680176 40.054504 16.591125c10.623108 10.623138 16.591125 25.031189 16.591125 40.054565l0 0c0 31.284515 -25.361145 56.64566 -56.64563 56.64566l0 0c-31.284546 0 -56.64569 -25.361145 -56.64569 -56.64566z" fill-rule="evenodd"/><path stroke="#566d7e" stroke-width="1.0" stroke-linejoin="round" stroke-linecap="butt" d="m658.84454 345.77954l0 0c0 -31.284546 25.361145 -56.64569 56.64569 -56.64569l0 0c15.023315 0 29.431396 5.9680176 40.054504 16.591125c10.623108 10.623138 16.591125 25.031189 16.591125 40.054565l0 0c0 31.284515 -25.361145 56.64566 -56.64563 56.64566l0 0c-31.284546 0 -56.64569 -25.361145 -56.64569 -56.64566z" fill-rule="evenodd"/><path fill="#848b79" d="m994.264 345.77954l0 0c0 -31.284546 25.361145 -56.64569 56.64569 -56.64569l0 0c15.023315 0 29.431396 5.9680176 40.054565 16.591125c10.623047 10.623138 16.591064 25.031189 16.591064 40.054565l0 0c0 31.284515 -25.361084 56.64566 -56.64563 56.64566l0 0c-31.284546 0 -56.64569 -25.361145 -56.64569 -56.64566z" fill-rule="evenodd"/><path stroke="#848b79" stroke-width="1.0" stroke-linejoin="round" stroke-linecap="butt" d="m994.264 345.77954l0 0c0 -31.284546 25.361145 -56.64569 56.64569 -56.64569l0 0c15.023315 0 29.431396 5.9680176 40.054565 16.591125c10.623047 10.623138 16.591064 25.031189 16.591064 40.054565l0 0c0 31.284515 -25.361084 56.64566 -56.64563 56.64566l0 0c-31.284546 0 -56.64569 -25.361145 -56.64569 -56.64566z" fill-rule="evenodd"/><path fill="#b5eaaa" d="m1267.5895 345.77954l0 0c0 -31.284546 25.361084 -56.64569 56.64563 -56.64569l0 0c15.023315 0 29.431396 5.9680176 40.054565 16.591125c10.623047 10.623138 16.591064 25.031189 16.591064 40.054565l0 0c0 31.284515 -25.361084 56.64566 -56.64563 56.64566l0 0c-31.284546 0 -56.64563 -25.361145 -56.64563 -56.64566z" fill-rule="evenodd"/><path stroke="#b5eaaa" stroke-width="1.0" stroke-linejoin="round" stroke-linecap="butt" d="m1267.5895 345.77954l0 0c0 -31.284546 25.361084 -56.64569 56.64563 -56.64569l0 0c15.023315 0 29.431396 5.9680176 40.054565 16.591125c10.623047 10.623138 16.591064 25.031189 16.591064 40.054565l0 0c0 31.284515 -25.361084 56.64566 -56.64563 56.64566l0 0c-31.284546 0 -56.64563 -25.361145 -56.64563 -56.64566z" fill-rule="evenodd"/><path fill="#e3f9a6" d="m1498.8165 345.77954l0 0c0 -31.284546 25.361084 -56.64569 56.64563 -56.64569l0 0c15.023315 0 29.431396 5.9680176 40.054565 16.591125c10.623047 10.623138 16.591064 25.031189 16.591064 40.054565l0 0c0 31.284515 -25.361084 56.64566 -56.64563 56.64566l0 0c-31.284546 0 -56.64563 -25.361145 -56.64563 -56.64566z" fill-rule="evenodd"/><path stroke="#e3f9a6" stroke-width="1.0" stroke-linejoin="round" stroke-linecap="butt" d="m1498.8165 345.77954l0 0c0 -31.284546 25.361084 -56.64569 56.64563 -56.64569l0 0c15.023315 0 29.431396 5.9680176 40.054565 16.591125c10.623047 10.623138 16.591064 25.031189 16.591064 40.054565l0 0c0 31.284515 -25.361084 56.64566 -56.64563 56.64566l0 0c-31.284546 0 -56.64563 -25.361145 -56.64563 -56.64566z" fill-rule="evenodd"/><path fill="#e8f1d4" d="m1630.2495 345.77954l0 0c0 -31.284546 25.361206 -56.64569 56.645752 -56.64569l0 0c15.023315 0 29.431396 5.9680176 40.054443 16.591125c10.623169 10.623138 16.591187 25.031189 16.591187 40.054565l0 0c0 31.284515 -25.361084 56.64566 -56.64563 56.64566l0 0c-31.284546 0 -56.645752 -25.361145 -56.645752 -56.64566z" fill-rule="evenodd"/><path stroke="#e8f1d4" stroke-width="1.0" stroke-linejoin="round" stroke-linecap="butt" d="m1630.2495 345.77954l0 0c0 -31.284546 25.361206 -56.64569 56.645752 -56.64569l0 0c15.023315 0 29.431396 5.9680176 40.054443 16.591125c10.623169 10.623138 16.591187 25.031189 16.591187 40.054565l0 0c0 31.284515 -25.361084 56.64566 -56.64563 56.64566l0 0c-31.284546 0 -56.645752 -25.361145 -56.645752 -56.64566z" fill-rule="evenodd"/><path fill="#000000" fill-opacity="0.0" d="m0 229.96326l2015.8425 0" fill-rule="evenodd"/><path stroke="#999999" stroke-width="4.0" stroke-linejoin="round" stroke-linecap="butt" d="m0 229.96326l2015.8425 0" fill-rule="evenodd"/><path fill="#000000" fill-opacity="0.0" d="m87.049866 275.82153l0 -91.71655" fill-rule="evenodd"/><path stroke="#000000" stroke-width="4.0" stroke-linejoin="round" stroke-linecap="butt" d="m87.049866 275.82153l0 -78.008194" fill-rule="evenodd"/><path fill="#000000" stroke="#000000" stroke-width="4.0" stroke-linecap="butt" d="m87.049866 197.81334l4.498337 4.4983215l-4.498337 -12.35907l-4.498329 12.35907z" fill-rule="evenodd"/><path fill="#000000" fill-opacity="0.0" d="m224.16606 275.82153l0 -91.71655" fill-rule="evenodd"/><path stroke="#000000" stroke-width="4.0" stroke-linejoin="round" stroke-linecap="butt" d="m224.16608 275.82153l0 -78.008194" fill-rule="evenodd"/><path fill="#000000" stroke="#000000" stroke-width="4.0" stroke-linecap="butt" d="m224.16608 197.81334l4.498337 4.4983215l-4.498337 -12.35907l-4.498337 12.35907z" fill-rule="evenodd"/><path fill="#000000" fill-opacity="0.0" d="m431.04987 275.82153l0 -91.71655" fill-rule="evenodd"/><path stroke="#000000" stroke-width="4.0" stroke-linejoin="round" stroke-linecap="butt" d="m431.04987 275.82153l0 -78.008194" fill-rule="evenodd"/><path fill="#000000" stroke="#000000" stroke-width="4.0" stroke-linecap="butt" d="m431.04987 197.81334l4.498352 4.4983215l-4.498352 -12.35907l-4.4983215 12.35907z" fill-rule="evenodd"/><path fill="#000000" fill-opacity="0.0" d="m715.7013 275.82153l0 -91.71655" fill-rule="evenodd"/><path stroke="#000000" stroke-width="4.0" stroke-linejoin="round" stroke-linecap="butt" d="m715.7013 275.82153l0 -78.008194" fill-rule="evenodd"/><path fill="#000000" stroke="#000000" stroke-width="4.0" stroke-linecap="butt" d="m715.7013 197.81334l4.498291 4.4983215l-4.498291 -12.35907l-4.498352 12.35907z" fill-rule="evenodd"/><path fill="#000000" fill-opacity="0.0" d="m1050.5851 275.82153l0 -91.71655" fill-rule="evenodd"/><path stroke="#000000" stroke-width="4.0" stroke-linejoin="round" stroke-linecap="butt" d="m1050.5851 275.82153l0 -78.008194" fill-rule="evenodd"/><path fill="#000000" stroke="#000000" stroke-width="4.0" stroke-linecap="butt" d="m1050.5851 197.81334l4.498291 4.4983215l-4.498291 -12.35907l-4.498413 12.35907z" fill-rule="evenodd"/><path fill="#7f5c56" d="m1034.5645 70.13134l79.93701 0l0 85.51182l-79.93701 0z" fill-rule="evenodd"/><path stroke="#7f5c56" stroke-width="1.0" stroke-linejoin="round" stroke-linecap="butt" d="m1034.5645 70.13134l79.93701 0l0 85.51182l-79.93701 0z" fill-rule="evenodd"/><path fill="#7f5c56" d="m891.6202 112.3913l0 0c0 -51.07982 41.408386 -92.48819 92.48816 -92.48819l0 0c24.529419 0 48.05414 9.744263 65.39899 27.089163c17.34497 17.344898 27.089233 40.869633 27.089233 65.39903l0 0c0 51.07982 -41.408447 92.48819 -92.48822 92.48819l0 0c-51.079773 0 -92.48816 -41.40837 -92.48816 -92.48819z" fill-rule="evenodd"/><path stroke="#7f5c56" stroke-width="1.0" stroke-linejoin="round" stroke-linecap="butt" d="m891.6202 112.3913l0 0c0 -51.07982 41.408386 -92.48819 92.48816 -92.48819l0 0c24.529419 0 48.05414 9.744263 65.39899 27.089163c17.34497 17.344898 27.089233 40.869633 27.089233 65.39903l0 0c0 51.07982 -41.408447 92.48819 -92.48822 92.48819l0 0c-51.079773 0 -92.48816 -41.40837 -92.48816 -92.48819z" fill-rule="evenodd"/><path fill="#7f5c56" d="m1063.4733 112.391075l0 0c0 -31.284538 25.361084 -56.645668 56.64563 -56.645668l0 0c15.023315 0 29.431396 5.96801 40.054565 16.591133c10.623047 10.623123 16.591064 25.031174 16.591064 40.054535l0 0c0 31.284538 -25.361084 56.645668 -56.64563 56.645668l0 0c-31.284546 0 -56.64563 -25.36113 -56.64563 -56.645668z" fill-rule="evenodd"/><path stroke="#7f5c56" stroke-width="1.0" stroke-linejoin="round" stroke-linecap="butt" d="m1063.4733 112.391075l0 0c0 -31.284538 25.361084 -56.645668 56.64563 -56.645668l0 0c15.023315 0 29.431396 5.96801 40.054565 16.591133c10.623047 10.623123 16.591064 25.031174 16.591064 40.054535l0 0c0 31.284538 -25.361084 56.645668 -56.64563 56.645668l0 0c-31.284546 0 -56.64563 -25.36113 -56.64563 -56.645668z" fill-rule="evenodd"/><path fill="#b38481" d="m1034.5645 83.60625l79.93701 0l0 58.173233l-79.93701 0z" fill-rule="evenodd"/><path stroke="#b38481" stroke-width="1.0" stroke-linejoin="round" stroke-linecap="butt" d="m1034.5645 83.60625l79.93701 0l0 58.173233l-79.93701 0z" fill-rule="evenodd"/><path fill="#b38481" d="m904.0296 112.3913l0 0c0 -44.226273 35.852478 -80.07874 80.078735 -80.07874l0 0c21.23822 0 41.606506 8.436844 56.624207 23.454521c15.0177 15.017677 23.45459 35.386017 23.45459 56.62422l0 0c0 44.226257 -35.85254 80.078735 -80.0788 80.078735l0 0c-44.226257 0 -80.078735 -35.852478 -80.078735 -80.078735z" fill-rule="evenodd"/><path stroke="#b38481" stroke-width="1.0" stroke-linejoin="round" stroke-linecap="butt" d="m904.0296 112.3913l0 0c0 -44.226273 35.852478 -80.07874 80.078735 -80.07874l0 0c21.23822 0 41.606506 8.436844 56.624207 23.454521c15.0177 15.017677 23.45459 35.386017 23.45459 56.62422l0 0c0 44.226257 -35.85254 80.078735 -80.0788 80.078735l0 0c-44.226257 0 -80.078735 -35.852478 -80.078735 -80.078735z" fill-rule="evenodd"/><path fill="#b38481" d="m1074.2606 112.490814l0 0c0 -25.32682 20.531494 -45.85827 45.858276 -45.85827l0 0c12.1623535 0 23.82666 4.831482 32.426758 13.43158c8.600098 8.60009 13.431519 20.26432 13.431519 32.42669l0 0c0 25.326828 -20.531494 45.85826 -45.858276 45.85826l0 0c-25.326782 0 -45.858276 -20.531433 -45.858276 -45.85826z" fill-rule="evenodd"/><path stroke="#b38481" stroke-width="1.0" stroke-linejoin="round" stroke-linecap="butt" d="m1074.2606 112.490814l0 0c0 -25.32682 20.531494 -45.85827 45.858276 -45.85827l0 0c12.1623535 0 23.82666 4.831482 32.426758 13.43158c8.600098 8.60009 13.431519 20.26432 13.431519 32.42669l0 0c0 25.326828 -20.531494 45.85826 -45.858276 45.85826l0 0c-25.326782 0 -45.858276 -20.531433 -45.858276 -45.85826z" fill-rule="evenodd"/><path fill="#ea9999" d="m1085.6465 112.490814l0 0c0 -19.038605 15.433838 -34.472443 34.472412 -34.472443l0 0c9.1427 0 17.910889 3.6319122 24.375732 10.096748c6.4648438 6.464836 10.09668 15.233032 10.09668 24.375694l0 0c0 19.038605 -15.433838 34.472443 -34.472412 34.472443l0 0c-19.038574 0 -34.472412 -15.433838 -34.472412 -34.472443z" fill-rule="evenodd"/><path stroke="#ea9999" stroke-width="1.0" stroke-linejoin="round" stroke-linecap="butt" d="m1085.6465 112.490814l0 0c0 -19.038605 15.433838 -34.472443 34.472412 -34.472443l0 0c9.1427 0 17.910889 3.6319122 24.375732 10.096748c6.4648438 6.464836 10.09668 15.233032 10.09668 24.375694l0 0c0 19.038605 -15.433838 34.472443 -34.472412 34.472443l0 0c-19.038574 0 -34.472412 -15.433838 -34.472412 -34.472443z" fill-rule="evenodd"/><path fill="#ea9999" d="m1026.5645 92.77093l79.93701 0l0 40.28347l-79.93701 0z" fill-rule="evenodd"/><path stroke="#ea9999" stroke-width="1.0" stroke-linejoin="round" stroke-linecap="butt" d="m1026.5645 92.77093l79.93701 0l0 40.28347l-79.93701 0z" fill-rule="evenodd"/><path fill="#ea9999" d="m917.48114 112.490814l0 0c0 -37.53797 30.430481 -67.968506 67.968445 -67.968506l0 0c18.026428 0 35.314453 7.1609497 48.061035 19.907516c12.746582 12.746567 19.90747 30.034622 19.90747 48.06099l0 0c0 37.537964 -30.430481 67.968506 -67.968506 67.968506l0 0c-37.537964 0 -67.968445 -30.430542 -67.968445 -67.968506z" fill-rule="evenodd"/><path stroke="#ea9999" stroke-width="1.0" stroke-linejoin="round" stroke-linecap="butt" d="m917.48114 112.490814l0 0c0 -37.53797 30.430481 -67.968506 67.968445 -67.968506l0 0c18.026428 0 35.314453 7.1609497 48.061035 19.907516c12.746582 12.746567 19.90747 30.034622 19.90747 48.06099l0 0c0 37.537964 -30.430481 67.968506 -67.968506 67.968506l0 0c-37.537964 0 -67.968445 -30.430542 -67.968445 -67.968506z" fill-rule="evenodd"/><path fill="#3d3c3a" d="m1019.74854 101.95276l101.48035 0l0 21.952751l-101.48035 0z" fill-rule="evenodd"/><path stroke="#3d3c3a" stroke-width="1.0" stroke-linejoin="round" stroke-linecap="butt" d="m1019.74854 101.95276l101.48035 0l0 21.952751l-101.48035 0z" fill-rule="evenodd"/><path fill="#566d7e" d="m928.8051 112.490814l0 0c0 -31.284538 25.361145 -56.645668 56.64569 -56.645668l0 0c15.023376 0 29.431396 5.968006 40.054565 16.591133c10.623047 10.623123 16.591064 25.031166 16.591064 40.054535l0 0c0 31.284546 -25.361084 56.645676 -56.64563 56.645676l0 0c-31.284546 0 -56.64569 -25.36113 -56.64569 -56.645676z" fill-rule="evenodd"/><path stroke="#566d7e" stroke-width="1.0" stroke-linejoin="round" stroke-linecap="butt" d="m928.8051 112.490814l0 0c0 -31.284538 25.361145 -56.645668 56.64569 -56.645668l0 0c15.023376 0 29.431396 5.968006 40.054565 16.591133c10.623047 10.623123 16.591064 25.031166 16.591064 40.054535l0 0c0 31.284546 -25.361084 56.645676 -56.64563 56.645676l0 0c-31.284546 0 -56.64569 -25.36113 -56.64569 -56.645676z" fill-rule="evenodd"/><path fill="#7aaeae" d="m939.5925 112.490814l0 0c0 -25.32682 20.531433 -45.85827 45.858276 -45.85827l0 0c12.1623535 0 23.8266 4.831482 32.426697 13.43158c8.600037 8.60009 13.43158 20.26432 13.43158 32.42669l0 0c0 25.326828 -20.531433 45.85826 -45.858276 45.85826l0 0c-25.326843 0 -45.858276 -20.531433 -45.858276 -45.85826z" fill-rule="evenodd"/><path stroke="#7aaeae" stroke-width="1.0" stroke-linejoin="round" stroke-linecap="butt" d="m939.5925 112.490814l0 0c0 -25.32682 20.531433 -45.85827 45.858276 -45.85827l0 0c12.1623535 0 23.8266 4.831482 32.426697 13.43158c8.600037 8.60009 13.43158 20.26432 13.43158 32.42669l0 0c0 25.326828 -20.531433 45.85826 -45.858276 45.85826l0 0c-25.326843 0 -45.858276 -20.531433 -45.858276 -45.85826z" fill-rule="evenodd"/><path fill="#9fc5e8" d="m950.9784 112.490814l0 0c0 -19.038605 15.433838 -34.472443 34.472412 -34.472443l0 0c9.142639 0 17.910889 3.6319122 24.375732 10.096748c6.4647827 6.464836 10.096741 15.233032 10.096741 24.375694l0 0c0 19.038605 -15.433838 34.472443 -34.472473 34.472443l0 0c-19.038574 0 -34.472412 -15.433838 -34.472412 -34.472443z" fill-rule="evenodd"/><path stroke="#9fc5e8" stroke-width="1.0" stroke-linejoin="round" stroke-linecap="butt" d="m950.9784 112.490814l0 0c0 -19.038605 15.433838 -34.472443 34.472412 -34.472443l0 0c9.142639 0 17.910889 3.6319122 24.375732 10.096748c6.4647827 6.464836 10.096741 15.233032 10.096741 24.375694l0 0c0 19.038605 -15.433838 34.472443 -34.472473 34.472443l0 0c-19.038574 0 -34.472412 -15.433838 -34.472412 -34.472443z" fill-rule="evenodd"/><path fill="#3b72ab" d="m962.4744 112.490814l0 0c0 -12.689507 10.286865 -22.97638 22.97638 -22.97638l0 0c6.09375 0 11.937866 2.420723 16.246765 6.7296295c4.308899 4.3089066 6.7296143 10.153038 6.7296143 16.24675l0 0c0 12.689499 -10.286865 22.97638 -22.97638 22.97638l0 0c-12.689514 0 -22.97638 -10.2868805 -22.97638 -22.97638z" fill-rule="evenodd"/><path stroke="#3b72ab" stroke-width="1.0" stroke-linejoin="round" stroke-linecap="butt" d="m962.4744 112.490814l0 0c0 -12.689507 10.286865 -22.97638 22.97638 -22.97638l0 0c6.09375 0 11.937866 2.420723 16.246765 6.7296295c4.308899 4.3089066 6.7296143 10.153038 6.7296143 16.24675l0 0c0 12.689499 -10.286865 22.97638 -22.97638 22.97638l0 0c-12.689514 0 -22.97638 -10.2868805 -22.97638 -22.97638z" fill-rule="evenodd"/><path fill="#d2583a" d="m1097.1426 112.490814l0 0c0 -12.689507 10.286865 -22.97638 22.976318 -22.97638l0 0c6.09375 0 11.937866 2.420723 16.246704 6.7296295c4.30896 4.3089066 6.7297363 10.153038 6.7297363 16.24675l0 0c0 12.689499 -10.286987 22.97638 -22.97644 22.97638l0 0c-12.689453 0 -22.976318 -10.2868805 -22.976318 -22.97638z" fill-rule="evenodd"/><path stroke="#d2583a" stroke-width="1.0" stroke-linejoin="round" stroke-linecap="butt" d="m1097.1426 112.490814l0 0c0 -12.689507 10.286865 -22.97638 22.976318 -22.97638l0 0c6.09375 0 11.937866 2.420723 16.246704 6.7296295c4.30896 4.3089066 6.7297363 10.153038 6.7297363 16.24675l0 0c0 12.689499 -10.286987 22.97638 -22.97644 22.97638l0 0c-12.689453 0 -22.976318 -10.2868805 -22.976318 -22.97638z" fill-rule="evenodd"/><path fill="#000000" fill-opacity="0.0" d="m1323.7013 275.82153l0 -91.71655" fill-rule="evenodd"/><path stroke="#000000" stroke-width="4.0" stroke-linejoin="round" stroke-linecap="butt" d="m1323.7013 275.82153l0 -78.008194" fill-rule="evenodd"/><path fill="#000000" stroke="#000000" stroke-width="4.0" stroke-linecap="butt" d="m1323.7013 197.81334l4.498291 4.4983215l-4.498291 -12.35907l-4.498291 12.35907z" fill-rule="evenodd"/><path fill="#000000" fill-opacity="0.0" d="m1555.7013 275.82153l0 -91.71655" fill-rule="evenodd"/><path stroke="#000000" stroke-width="4.0" stroke-linejoin="round" stroke-linecap="butt" d="m1555.7013 275.82153l0 -78.008194" fill-rule="evenodd"/><path fill="#000000" stroke="#000000" stroke-width="4.0" stroke-linecap="butt" d="m1555.7013 197.81334l4.498291 4.4983215l-4.498291 -12.35907l-4.498291 12.35907z" fill-rule="evenodd"/><path fill="#000000" fill-opacity="0.0" d="m1686.1204 275.82153l0 -91.71655" fill-rule="evenodd"/><path stroke="#000000" stroke-width="4.0" stroke-linejoin="round" stroke-linecap="butt" d="m1686.1202 275.82153l0 -78.008194" fill-rule="evenodd"/><path fill="#000000" stroke="#000000" stroke-width="4.0" stroke-linecap="butt" d="m1686.1202 197.81334l4.498291 4.4983215l-4.498291 -12.35907l-4.498291 12.35907z" fill-rule="evenodd"/><path fill="#000000" fill-opacity="0.0" d="m1813.8136 151.80315l213.1969 0l0 67.87402l-213.1969 0z" fill-rule="evenodd"/><path fill="#000000" d="m1828.6105 199.20314q-0.71875 0 -1.140625 -0.421875q-0.421875 -0.421875 -0.421875 -1.140625l0 -18.75q0 -0.734375 0.421875 -1.140625q0.421875 -0.421875 1.140625 -0.421875q0.6875 0 1.09375 0.421875q0.421875 0.40625 0.421875 1.140625l0 18.75q0 0.71875 -0.421875 1.140625q-0.40625 0.421875 -1.09375 0.421875zm-0.03125 -26.046875q-0.875 0 -1.515625 -0.625q-0.640625 -0.640625 -0.640625 -1.5625q0 -1.0 0.65625 -1.578125q0.65625 -0.59375 1.53125 -0.59375q0.84375 0 1.5 0.59375q0.671875 0.578125 0.671875 1.578125q0 0.921875 -0.640625 1.5625q-0.640625 0.625 -1.5625 0.625zm28.153809 26.046875q-0.671875 0 -1.125 -0.4375q-0.4375 -0.4375 -0.4375 -1.078125l0 -10.40625q0 -2.484375 -0.9375 -4.078125q-0.9375 -1.59375 -2.5625 -2.390625q-1.609375 -0.8125 -3.65625 -0.8125q-1.953125 0 -3.546875 0.765625q-1.578125 0.75 -2.5 2.078125q-0.90625 1.3125 -0.90625 3.0l-2.203125 0q0.078125 -2.515625 1.359375 -4.5q1.28125 -1.984375 3.390625 -3.125q2.125 -1.140625 4.71875 -1.140625q2.84375 0 5.078125 1.1875q2.25 1.171875 3.546875 3.453125q1.296875 2.28125 1.296875 5.5625l0 10.40625q0 0.640625 -0.4375 1.078125q-0.4375 0.4375 -1.078125 0.4375zm-17.203125 0q-0.71875 0 -1.140625 -0.421875q-0.421875 -0.421875 -0.421875 -1.09375l0 -18.796875q0 -0.734375 0.421875 -1.140625q0.421875 -0.421875 1.140625 -0.421875q0.6875 0 1.109375 0.421875q0.421875 0.40625 0.421875 1.140625l0 18.796875q0 0.671875 -0.421875 1.09375q-0.421875 0.421875 -1.109375 0.421875zm33.15808 0.203125q-2.359375 0 -4.6875 -0.796875q-2.3125 -0.8125 -3.75 -2.40625q-0.4375 -0.484375 -0.359375 -1.078125q0.078125 -0.609375 0.609375 -1.046875q0.546875 -0.390625 1.140625 -0.3125q0.609375 0.078125 1.015625 0.515625q0.953125 1.125 2.53125 1.734375q1.578125 0.59375 3.5 0.59375q2.96875 0 4.28125 -1.015625q1.328125 -1.03125 1.359375 -2.46875q0 -1.4375 -1.359375 -2.375q-1.359375 -0.953125 -4.46875 -1.46875q-4.046875 -0.640625 -5.9375 -2.234375q-1.875 -1.609375 -1.875 -3.796875q0 -2.046875 1.078125 -3.40625q1.09375 -1.359375 2.890625 -2.03125q1.796875 -0.6875 3.953125 -0.6875q2.6875 0 4.625 0.921875q1.9375 0.921875 3.140625 2.46875q0.390625 0.53125 0.3125 1.09375q-0.078125 0.546875 -0.640625 0.90625q-0.46875 0.28125 -1.09375 0.1875q-0.625 -0.09375 -1.0625 -0.578125q-1.0 -1.15625 -2.328125 -1.6875q-1.3125 -0.546875 -3.03125 -0.546875q-2.203125 0 -3.53125 0.90625q-1.3125 0.890625 -1.3125 2.25q0 0.921875 0.5 1.609375q0.5 0.671875 1.71875 1.1875q1.234375 0.515625 3.421875 0.875q3.0 0.484375 4.734375 1.421875q1.75 0.9375 2.484375 2.203125q0.75 1.265625 0.75 2.734375q0 1.890625 -1.109375 3.3125q-1.09375 1.40625 -3.03125 2.21875q-1.9375 0.796875 -4.46875 0.796875zm16.122437 -0.203125q-0.71875 0 -1.140625 -0.421875q-0.421875 -0.421875 -0.421875 -1.140625l0 -18.75q0 -0.734375 0.421875 -1.140625q0.421875 -0.421875 1.140625 -0.421875q0.6875 0 1.09375 0.421875q0.421875 0.40625 0.421875 1.140625l0 18.75q0 0.71875 -0.421875 1.140625q-0.40625 0.421875 -1.09375 0.421875zm-0.03125 -26.046875q-0.875 0 -1.515625 -0.625q-0.640625 -0.640625 -0.640625 -1.5625q0 -1.0 0.65625 -1.578125q0.65625 -0.59375 1.53125 -0.59375q0.84375 0 1.5 0.59375q0.671875 0.578125 0.671875 1.578125q0 0.921875 -0.640625 1.5625q-0.640625 0.625 -1.5625 0.625zm19.356934 26.25q-3.15625 0 -5.6875 -1.453125q-2.515625 -1.46875 -3.984375 -3.984375q-1.453125 -2.53125 -1.453125 -5.71875q0 -3.171875 1.421875 -5.6875q1.421875 -2.515625 3.859375 -3.96875q2.4375 -1.46875 5.515625 -1.46875q2.6875 0 4.84375 1.140625q2.15625 1.140625 3.484375 3.015625l0 -11.765625q0 -0.71875 0.4375 -1.125q0.4375 -0.421875 1.125 -0.421875q0.671875 0 1.109375 0.421875q0.453125 0.40625 0.453125 1.125l0 18.890625q-0.09375 3.109375 -1.546875 5.609375q-1.453125 2.5 -3.953125 3.953125q-2.5 1.4375 -5.625 1.4375zm0 -2.796875q2.3125 0 4.125 -1.09375q1.828125 -1.109375 2.890625 -2.984375q1.0625 -1.890625 1.0625 -4.28125q0 -2.359375 -1.0625 -4.265625q-1.0625 -1.90625 -2.890625 -2.984375q-1.8125 -1.078125 -4.125 -1.078125q-2.28125 0 -4.125 1.078125q-1.84375 1.078125 -2.921875 2.984375q-1.078125 1.90625 -1.078125 4.265625q0 2.390625 1.078125 4.28125q1.078125 1.875 2.921875 2.984375q1.84375 1.09375 4.125 1.09375zm28.233032 2.796875q-3.234375 0 -5.734375 -1.421875q-2.5 -1.421875 -3.921875 -3.9375q-1.421875 -2.53125 -1.421875 -5.765625q0 -3.28125 1.34375 -5.78125q1.34375 -2.5 3.703125 -3.9375q2.359375 -1.4375 5.4375 -1.4375q3.03125 0 5.296875 1.390625q2.265625 1.375 3.5 3.8125q1.234375 2.4375 1.234375 5.5625q0 0.625 -0.40625 1.015625q-0.390625 0.375 -1.03125 0.375l-17.0 0l0 -2.5625l17.328125 0l-1.71875 1.25q0.03125 -2.328125 -0.84375 -4.15625q-0.875 -1.84375 -2.5 -2.875q-1.625 -1.046875 -3.859375 -1.046875q-2.28125 0 -4.0 1.078125q-1.71875 1.078125 -2.671875 2.984375q-0.9375 1.890625 -0.9375 4.328125q0 2.4375 1.0625 4.328125q1.0625 1.875 2.90625 2.953125q1.84375 1.078125 4.234375 1.078125q1.4375 0 2.890625 -0.5q1.46875 -0.5 2.359375 -1.25q0.4375 -0.375 0.984375 -0.390625q0.5625 -0.015625 0.96875 0.296875q0.515625 0.484375 0.53125 1.046875q0.03125 0.5625 -0.453125 0.953125q-1.3125 1.125 -3.359375 1.875q-2.03125 0.734375 -3.921875 0.734375z" fill-rule="nonzero"/><path fill="#000000" fill-opacity="0.0" d="m1813.8136 239.80315l213.1969 0l0 67.87401l-213.1969 0z" fill-rule="evenodd"/><path fill="#000000" d="m1836.3761 287.40628q-3.203125 0 -5.734375 -1.4375q-2.515625 -1.453125 -3.953125 -3.96875q-1.4375 -2.515625 -1.4375 -5.71875q0 -3.234375 1.4375 -5.75q1.4375 -2.53125 3.953125 -3.96875q2.53125 -1.4375 5.734375 -1.4375q3.203125 0 5.703125 1.4375q2.5 1.4375 3.9375 3.96875q1.4375 2.515625 1.484375 5.75q0 3.203125 -1.46875 5.71875q-1.453125 2.515625 -3.953125 3.96875q-2.5 1.4375 -5.703125 1.4375zm0 -2.796875q2.3125 0 4.15625 -1.078125q1.84375 -1.09375 2.875 -2.96875q1.046875 -1.875 1.046875 -4.28125q0 -2.390625 -1.046875 -4.296875q-1.03125 -1.90625 -2.875 -2.984375q-1.84375 -1.078125 -4.15625 -1.078125q-2.328125 0 -4.171875 1.078125q-1.828125 1.078125 -2.890625 2.984375q-1.0625 1.90625 -1.0625 4.296875q0 2.40625 1.0625 4.28125q1.0625 1.875 2.890625 2.96875q1.84375 1.078125 4.171875 1.078125zm26.642578 2.828125q-2.84375 0 -5.09375 -1.171875q-2.234375 -1.1875 -3.53125 -3.46875q-1.296875 -2.28125 -1.296875 -5.546875l0 -10.40625q0 -0.640625 0.4375 -1.078125q0.4375 -0.4375 1.078125 -0.4375q0.6875 0 1.125 0.4375q0.4375 0.4375 0.4375 1.078125l0 10.40625q0 2.46875 0.9375 4.078125q0.9375 1.59375 2.5625 2.390625q1.625 0.796875 3.65625 0.796875q1.96875 0 3.546875 -0.75q1.578125 -0.765625 2.5 -2.078125q0.921875 -1.328125 0.921875 -3.0l2.1875 0q-0.109375 2.515625 -1.375 4.5q-1.265625 1.96875 -3.390625 3.109375q-2.109375 1.140625 -4.703125 1.140625zm8.796875 -0.234375q-0.6875 0 -1.109375 -0.421875q-0.40625 -0.421875 -0.40625 -1.140625l0 -18.796875q0 -0.6875 0.40625 -1.09375q0.421875 -0.421875 1.109375 -0.421875q0.671875 0 1.109375 0.421875q0.453125 0.40625 0.453125 1.09375l0 18.796875q0 0.71875 -0.453125 1.140625q-0.4375 0.421875 -1.109375 0.421875zm17.314331 0q-2.109375 0 -3.78125 -1.0q-1.65625 -1.0 -2.625 -2.734375q-0.953125 -1.75 -0.953125 -3.984375l0 -19.5625q0 -0.671875 0.421875 -1.109375q0.421875 -0.453125 1.09375 -0.453125q0.6875 0 1.125 0.453125q0.4375 0.4375 0.4375 1.109375l0 19.5625q0 2.03125 1.203125 3.34375q1.203125 1.296875 3.078125 1.296875l1.078125 0q0.640625 0 1.046875 0.4375q0.40625 0.4375 0.40625 1.125q0 0.671875 -0.484375 1.09375q-0.484375 0.421875 -1.203125 0.421875l-0.84375 0zm-9.953125 -18.40625q-0.609375 0 -1.015625 -0.375q-0.390625 -0.375 -0.390625 -0.9375q0 -0.59375 0.390625 -0.96875q0.40625 -0.390625 1.015625 -0.390625l10.203125 0q0.59375 0 0.984375 0.390625q0.40625 0.375 0.40625 0.96875q0 0.5625 -0.40625 0.9375q-0.390625 0.375 -0.984375 0.375l-10.203125 0zm25.111206 18.609375q-2.359375 0 -4.6875 -0.796875q-2.3125 -0.8125 -3.75 -2.40625q-0.4375 -0.484375 -0.359375 -1.078125q0.078125 -0.609375 0.609375 -1.046875q0.546875 -0.390625 1.140625 -0.3125q0.609375 0.078125 1.015625 0.515625q0.953125 1.125 2.53125 1.734375q1.578125 0.59375 3.5 0.59375q2.96875 0 4.28125 -1.015625q1.328125 -1.03125 1.359375 -2.46875q0 -1.4375 -1.359375 -2.375q-1.359375 -0.953125 -4.46875 -1.46875q-4.046875 -0.640625 -5.9375 -2.234375q-1.875 -1.609375 -1.875 -3.796875q0 -2.046875 1.078125 -3.40625q1.09375 -1.359375 2.890625 -2.03125q1.796875 -0.6875 3.953125 -0.6875q2.6875 0 4.625 0.921875q1.9375 0.921875 3.140625 2.46875q0.390625 0.53125 0.3125 1.09375q-0.078125 0.546875 -0.640625 0.90625q-0.46875 0.28125 -1.09375 0.1875q-0.625 -0.09375 -1.0625 -0.578125q-1.0 -1.15625 -2.328125 -1.6875q-1.3125 -0.546875 -3.03125 -0.546875q-2.203125 0 -3.53125 0.90625q-1.3125 0.890625 -1.3125 2.25q0 0.921875 0.5 1.609375q0.5 0.671875 1.71875 1.1875q1.234375 0.515625 3.421875 0.875q3.0 0.484375 4.734375 1.421875q1.75 0.9375 2.484375 2.203125q0.75 1.265625 0.75 2.734375q0 1.890625 -1.109375 3.3125q-1.09375 1.40625 -3.03125 2.21875q-1.9375 0.796875 -4.46875 0.796875zm16.122437 -0.203125q-0.71875 0 -1.140625 -0.421875q-0.421875 -0.421875 -0.421875 -1.140625l0 -18.75q0 -0.734375 0.421875 -1.140625q0.421875 -0.421875 1.140625 -0.421875q0.6875 0 1.09375 0.421875q0.421875 0.40625 0.421875 1.140625l0 18.75q0 0.71875 -0.421875 1.140625q-0.40625 0.421875 -1.09375 0.421875zm-0.03125 -26.046875q-0.875 0 -1.515625 -0.625q-0.640625 -0.640625 -0.640625 -1.5625q0 -1.0 0.65625 -1.578125q0.65625 -0.59375 1.53125 -0.59375q0.84375 0 1.5 0.59375q0.671875 0.578125 0.671875 1.578125q0 0.921875 -0.640625 1.5625q-0.640625 0.625 -1.5625 0.625zm19.356934 26.25q-3.15625 0 -5.6875 -1.453125q-2.515625 -1.46875 -3.984375 -3.984375q-1.453125 -2.53125 -1.453125 -5.71875q0 -3.171875 1.421875 -5.6875q1.421875 -2.515625 3.859375 -3.96875q2.4375 -1.46875 5.515625 -1.46875q2.6875 0 4.84375 1.140625q2.15625 1.140625 3.484375 3.015625l0 -11.765625q0 -0.71875 0.4375 -1.125q0.4375 -0.42189026 1.125 -0.42189026q0.671875 0 1.109375 0.42189026q0.453125 0.40625 0.453125 1.125l0 18.890625q-0.09375 3.109375 -1.546875 5.609375q-1.453125 2.5 -3.953125 3.953125q-2.5 1.4375 -5.625 1.4375zm0 -2.796875q2.3125 0 4.125 -1.09375q1.828125 -1.109375 2.890625 -2.984375q1.0625 -1.890625 1.0625 -4.28125q0 -2.359375 -1.0625 -4.265625q-1.0625 -1.90625 -2.890625 -2.984375q-1.8125 -1.078125 -4.125 -1.078125q-2.28125 0 -4.125 1.078125q-1.84375 1.078125 -2.921875 2.984375q-1.078125 1.90625 -1.078125 4.265625q0 2.390625 1.078125 4.28125q1.078125 1.875 2.921875 2.984375q1.84375 1.09375 4.125 1.09375zm28.233032 2.796875q-3.234375 0 -5.734375 -1.421875q-2.5 -1.421875 -3.921875 -3.9375q-1.421875 -2.53125 -1.421875 -5.765625q0 -3.28125 1.34375 -5.78125q1.34375 -2.5 3.703125 -3.9375q2.359375 -1.4375 5.4375 -1.4375q3.03125 0 5.296875 1.390625q2.265625 1.375 3.5 3.8125q1.234375 2.4375 1.234375 5.5625q0 0.625 -0.40625 1.015625q-0.390625 0.375 -1.03125 0.375l-17.0 0l0 -2.5625l17.328125 0l-1.71875 1.25q0.03125 -2.328125 -0.84375 -4.15625q-0.875 -1.84375 -2.5 -2.875q-1.625 -1.046875 -3.859375 -1.046875q-2.28125 0 -4.0 1.078125q-1.71875 1.078125 -2.671875 2.984375q-0.9375 1.890625 -0.9375 4.328125q0 2.4375 1.0625 4.328125q1.0625 1.875 2.90625 2.953125q1.84375 1.078125 4.234375 1.078125q1.4375 0 2.890625 -0.5q1.46875 -0.5 2.359375 -1.25q0.4375 -0.375 0.984375 -0.390625q0.5625 -0.015625 0.96875 0.296875q0.515625 0.484375 0.53125 1.046875q0.03125 0.5625 -0.453125 0.953125q-1.3125 1.125 -3.359375 1.875q-2.03125 0.734375 -3.921875 0.734375z" fill-rule="nonzero"/></g></svg>